G75*
%MOIN*%
%OFA0B0*%
%FSLAX25Y25*%
%IPPOS*%
%LPD*%
%AMOC8*
5,1,8,0,0,1.08239X$1,22.5*
%
%ADD10C,0.00000*%
%ADD11R,0.02362X0.08661*%
%ADD12R,0.06000X0.10000*%
%ADD13R,0.05906X0.05118*%
D10*
X0001300Y0001031D02*
X0001300Y0232921D01*
X0174528Y0232921D01*
X0174528Y0001031D01*
X0001300Y0001031D01*
D11*
X0019713Y0048252D03*
X0024713Y0048252D03*
X0029713Y0048252D03*
X0034713Y0048252D03*
X0034713Y0068724D03*
X0029713Y0068724D03*
X0024713Y0068724D03*
X0019713Y0068724D03*
X0059696Y0068724D03*
X0064696Y0068724D03*
X0069696Y0068724D03*
X0074696Y0068724D03*
X0074696Y0048252D03*
X0069696Y0048252D03*
X0064696Y0048252D03*
X0059696Y0048252D03*
X0099679Y0048252D03*
X0104679Y0048252D03*
X0109679Y0048252D03*
X0114679Y0048252D03*
X0114679Y0068724D03*
X0109679Y0068724D03*
X0104679Y0068724D03*
X0099679Y0068724D03*
X0139662Y0068724D03*
X0144662Y0068724D03*
X0149662Y0068724D03*
X0154662Y0068724D03*
X0154662Y0048252D03*
X0149662Y0048252D03*
X0144662Y0048252D03*
X0139662Y0048252D03*
X0142316Y0166878D03*
X0147316Y0166878D03*
X0152316Y0166878D03*
X0157316Y0166878D03*
X0157316Y0187350D03*
X0152316Y0187350D03*
X0147316Y0187350D03*
X0142316Y0187350D03*
X0115087Y0187350D03*
X0110087Y0187350D03*
X0105087Y0187350D03*
X0100087Y0187350D03*
X0100087Y0166878D03*
X0105087Y0166878D03*
X0110087Y0166878D03*
X0115087Y0166878D03*
X0074847Y0166878D03*
X0069847Y0166878D03*
X0064847Y0166878D03*
X0059847Y0166878D03*
X0059847Y0187350D03*
X0064847Y0187350D03*
X0069847Y0187350D03*
X0074847Y0187350D03*
X0034883Y0187350D03*
X0029883Y0187350D03*
X0024883Y0187350D03*
X0019883Y0187350D03*
X0019883Y0166878D03*
X0024883Y0166878D03*
X0029883Y0166878D03*
X0034883Y0166878D03*
D12*
X0152481Y0149543D03*
X0152481Y0123543D03*
D13*
X0134379Y0166020D03*
X0134379Y0173500D03*
X0122552Y0173500D03*
X0122552Y0166020D03*
X0092646Y0165626D03*
X0092646Y0173106D03*
X0082001Y0173106D03*
X0082001Y0165626D03*
X0052209Y0165571D03*
X0052209Y0173051D03*
X0042631Y0173106D03*
X0042631Y0165626D03*
X0012202Y0165986D03*
X0012202Y0173467D03*
X0011532Y0069567D03*
X0011532Y0062087D03*
X0042249Y0062087D03*
X0042249Y0069567D03*
X0052083Y0069567D03*
X0052083Y0062087D03*
X0082406Y0062087D03*
X0082406Y0069567D03*
X0092241Y0069567D03*
X0092241Y0062087D03*
X0122170Y0062087D03*
X0122170Y0069567D03*
X0132406Y0069567D03*
X0132406Y0062087D03*
M02*
