G75*
%MOIN*%
%OFA0B0*%
%FSLAX25Y25*%
%IPPOS*%
%LPD*%
%AMOC8*
5,1,8,0,0,1.08239X$1,22.5*
%
%ADD10C,0.00000*%
%ADD11C,0.00500*%
%ADD12C,0.02400*%
%ADD13C,0.00400*%
%ADD14C,0.00800*%
%ADD15C,0.00600*%
D10*
X0001300Y0001031D02*
X0001300Y0232921D01*
X0174528Y0232921D01*
X0174528Y0001031D01*
X0001300Y0001031D01*
D11*
X0029619Y0068650D02*
X0092611Y0068650D01*
X0092611Y0097390D01*
X0092611Y0163138D02*
X0085918Y0163138D01*
X0038674Y0163138D02*
X0029619Y0163138D01*
X0029619Y0097390D02*
X0029619Y0068650D01*
D12*
X0042217Y0071406D02*
X0045761Y0071406D01*
X0045761Y0085972D01*
X0049698Y0085972D01*
X0049698Y0071799D01*
X0054422Y0071799D01*
X0054422Y0085972D01*
X0059146Y0085972D01*
X0059146Y0071799D01*
X0063477Y0071799D01*
X0063477Y0085579D01*
X0067808Y0085579D01*
X0067808Y0071799D01*
X0083556Y0071799D01*
X0067808Y0093453D02*
X0042217Y0093453D01*
X0042217Y0091091D01*
X0042217Y0090697D02*
X0042217Y0071406D01*
D13*
X0042713Y0107344D02*
X0045024Y0107344D01*
X0045024Y0112544D01*
X0042713Y0112544D01*
X0043291Y0110233D02*
X0045024Y0110233D01*
X0047353Y0107344D02*
X0050242Y0107344D01*
X0047786Y0110233D01*
X0048653Y0112544D02*
X0048734Y0112542D01*
X0048814Y0112536D01*
X0048894Y0112526D01*
X0048974Y0112513D01*
X0049053Y0112495D01*
X0049131Y0112474D01*
X0049208Y0112449D01*
X0049283Y0112421D01*
X0049357Y0112388D01*
X0049430Y0112352D01*
X0049500Y0112313D01*
X0049569Y0112270D01*
X0049635Y0112225D01*
X0049699Y0112176D01*
X0049761Y0112123D01*
X0049820Y0112068D01*
X0049877Y0112011D01*
X0049930Y0111950D01*
X0049981Y0111887D01*
X0050028Y0111822D01*
X0050072Y0111754D01*
X0050113Y0111684D01*
X0050151Y0111613D01*
X0050185Y0111540D01*
X0050215Y0111465D01*
X0050242Y0111389D01*
X0047786Y0110233D02*
X0047736Y0110283D01*
X0047689Y0110336D01*
X0047644Y0110390D01*
X0047603Y0110447D01*
X0047564Y0110506D01*
X0047528Y0110567D01*
X0047495Y0110630D01*
X0047466Y0110694D01*
X0047440Y0110760D01*
X0047417Y0110827D01*
X0047397Y0110894D01*
X0047382Y0110963D01*
X0047369Y0111033D01*
X0047360Y0111103D01*
X0047355Y0111173D01*
X0047353Y0111244D01*
X0047355Y0111314D01*
X0047361Y0111385D01*
X0047370Y0111454D01*
X0047383Y0111523D01*
X0047400Y0111592D01*
X0047421Y0111659D01*
X0047445Y0111725D01*
X0047473Y0111790D01*
X0047504Y0111853D01*
X0047539Y0111914D01*
X0047577Y0111974D01*
X0047618Y0112031D01*
X0047662Y0112086D01*
X0047709Y0112138D01*
X0047759Y0112188D01*
X0047811Y0112235D01*
X0047866Y0112279D01*
X0047923Y0112320D01*
X0047983Y0112358D01*
X0048044Y0112393D01*
X0048107Y0112424D01*
X0048172Y0112452D01*
X0048238Y0112476D01*
X0048305Y0112497D01*
X0048374Y0112514D01*
X0048443Y0112527D01*
X0048512Y0112536D01*
X0048583Y0112542D01*
X0048653Y0112544D01*
X0052393Y0107344D02*
X0055282Y0107344D01*
X0053837Y0107344D02*
X0053837Y0112544D01*
X0055282Y0111389D01*
X0060168Y0109366D02*
X0063635Y0109366D01*
X0069727Y0109655D02*
X0071171Y0109655D01*
X0069727Y0109656D02*
X0069651Y0109658D01*
X0069576Y0109664D01*
X0069501Y0109674D01*
X0069427Y0109688D01*
X0069353Y0109705D01*
X0069281Y0109727D01*
X0069210Y0109752D01*
X0069140Y0109781D01*
X0069071Y0109813D01*
X0069005Y0109849D01*
X0068941Y0109889D01*
X0068878Y0109932D01*
X0068818Y0109978D01*
X0068761Y0110027D01*
X0068706Y0110079D01*
X0068654Y0110134D01*
X0068605Y0110191D01*
X0068559Y0110251D01*
X0068516Y0110314D01*
X0068476Y0110378D01*
X0068440Y0110444D01*
X0068408Y0110513D01*
X0068379Y0110583D01*
X0068354Y0110654D01*
X0068332Y0110726D01*
X0068315Y0110800D01*
X0068301Y0110874D01*
X0068291Y0110949D01*
X0068285Y0111024D01*
X0068283Y0111100D01*
X0068285Y0111176D01*
X0068291Y0111251D01*
X0068301Y0111326D01*
X0068315Y0111400D01*
X0068332Y0111474D01*
X0068354Y0111546D01*
X0068379Y0111617D01*
X0068408Y0111687D01*
X0068440Y0111756D01*
X0068476Y0111822D01*
X0068516Y0111886D01*
X0068559Y0111949D01*
X0068605Y0112009D01*
X0068654Y0112066D01*
X0068706Y0112121D01*
X0068761Y0112173D01*
X0068818Y0112222D01*
X0068878Y0112268D01*
X0068941Y0112311D01*
X0069005Y0112351D01*
X0069071Y0112387D01*
X0069140Y0112419D01*
X0069210Y0112448D01*
X0069281Y0112473D01*
X0069353Y0112495D01*
X0069427Y0112512D01*
X0069501Y0112526D01*
X0069576Y0112536D01*
X0069651Y0112542D01*
X0069727Y0112544D01*
X0071171Y0112544D01*
X0071171Y0107344D01*
X0073970Y0109511D02*
X0075559Y0110377D01*
X0074982Y0112544D02*
X0074895Y0112542D01*
X0074808Y0112537D01*
X0074721Y0112528D01*
X0074635Y0112516D01*
X0074549Y0112500D01*
X0074464Y0112481D01*
X0074380Y0112459D01*
X0074297Y0112433D01*
X0074215Y0112404D01*
X0074134Y0112371D01*
X0074054Y0112335D01*
X0073976Y0112296D01*
X0073900Y0112254D01*
X0073825Y0112209D01*
X0073753Y0112161D01*
X0073682Y0112111D01*
X0075560Y0110378D02*
X0075617Y0110414D01*
X0075673Y0110453D01*
X0075725Y0110495D01*
X0075776Y0110541D01*
X0075823Y0110589D01*
X0075868Y0110640D01*
X0075909Y0110693D01*
X0075948Y0110749D01*
X0075983Y0110807D01*
X0076015Y0110866D01*
X0076044Y0110928D01*
X0076068Y0110991D01*
X0076090Y0111055D01*
X0076107Y0111121D01*
X0076120Y0111187D01*
X0076130Y0111254D01*
X0076136Y0111321D01*
X0076138Y0111389D01*
X0076136Y0111456D01*
X0076130Y0111523D01*
X0076120Y0111590D01*
X0076107Y0111656D01*
X0076089Y0111721D01*
X0076068Y0111784D01*
X0076043Y0111847D01*
X0076015Y0111908D01*
X0075983Y0111967D01*
X0075948Y0112024D01*
X0075909Y0112079D01*
X0075868Y0112132D01*
X0075823Y0112182D01*
X0075775Y0112230D01*
X0075725Y0112275D01*
X0075672Y0112316D01*
X0075617Y0112355D01*
X0075560Y0112390D01*
X0075501Y0112422D01*
X0075440Y0112450D01*
X0075377Y0112475D01*
X0075314Y0112496D01*
X0075249Y0112514D01*
X0075183Y0112527D01*
X0075116Y0112537D01*
X0075049Y0112543D01*
X0074982Y0112545D01*
X0076281Y0108066D02*
X0076212Y0107999D01*
X0076140Y0107935D01*
X0076066Y0107873D01*
X0075989Y0107815D01*
X0075911Y0107760D01*
X0075830Y0107707D01*
X0075747Y0107658D01*
X0075662Y0107613D01*
X0075575Y0107571D01*
X0075487Y0107532D01*
X0075397Y0107496D01*
X0075306Y0107465D01*
X0075214Y0107437D01*
X0075121Y0107412D01*
X0075027Y0107391D01*
X0074932Y0107374D01*
X0074836Y0107361D01*
X0074741Y0107352D01*
X0074644Y0107346D01*
X0074548Y0107344D01*
X0074481Y0107346D01*
X0074414Y0107352D01*
X0074347Y0107362D01*
X0074281Y0107375D01*
X0074216Y0107393D01*
X0074153Y0107414D01*
X0074090Y0107439D01*
X0074029Y0107467D01*
X0073970Y0107499D01*
X0073913Y0107534D01*
X0073858Y0107573D01*
X0073805Y0107614D01*
X0073755Y0107659D01*
X0073707Y0107707D01*
X0073662Y0107757D01*
X0073621Y0107810D01*
X0073582Y0107865D01*
X0073547Y0107922D01*
X0073515Y0107981D01*
X0073487Y0108042D01*
X0073462Y0108105D01*
X0073441Y0108168D01*
X0073423Y0108233D01*
X0073410Y0108299D01*
X0073400Y0108366D01*
X0073394Y0108433D01*
X0073392Y0108500D01*
X0073394Y0108568D01*
X0073400Y0108635D01*
X0073410Y0108702D01*
X0073423Y0108768D01*
X0073440Y0108834D01*
X0073462Y0108898D01*
X0073486Y0108961D01*
X0073515Y0109023D01*
X0073547Y0109082D01*
X0073582Y0109140D01*
X0073621Y0109196D01*
X0073662Y0109249D01*
X0073707Y0109300D01*
X0073754Y0109348D01*
X0073805Y0109394D01*
X0073858Y0109436D01*
X0073913Y0109475D01*
X0073970Y0109511D01*
X0077993Y0107344D02*
X0080304Y0107344D01*
X0080304Y0112544D01*
X0077993Y0112544D01*
X0078571Y0110233D02*
X0080304Y0110233D01*
D14*
X0102658Y0072528D02*
X0102658Y0061504D01*
X0113681Y0061504D01*
X0113681Y0072528D01*
X0102658Y0072528D01*
X0103839Y0063866D02*
X0106201Y0063866D01*
X0106199Y0063799D01*
X0106193Y0063731D01*
X0106184Y0063665D01*
X0106170Y0063599D01*
X0106153Y0063533D01*
X0106132Y0063469D01*
X0106108Y0063406D01*
X0106080Y0063345D01*
X0106048Y0063285D01*
X0106014Y0063228D01*
X0105975Y0063172D01*
X0105934Y0063118D01*
X0105890Y0063067D01*
X0105843Y0063019D01*
X0105793Y0062973D01*
X0105741Y0062931D01*
X0105687Y0062891D01*
X0105630Y0062855D01*
X0105571Y0062821D01*
X0105511Y0062792D01*
X0105448Y0062765D01*
X0105385Y0062743D01*
X0105320Y0062724D01*
X0105255Y0062709D01*
X0105188Y0062697D01*
X0105121Y0062689D01*
X0105054Y0062685D01*
X0104986Y0062685D01*
X0104919Y0062689D01*
X0104852Y0062697D01*
X0104785Y0062709D01*
X0104720Y0062724D01*
X0104655Y0062743D01*
X0104592Y0062765D01*
X0104529Y0062792D01*
X0104469Y0062821D01*
X0104410Y0062855D01*
X0104353Y0062891D01*
X0104299Y0062931D01*
X0104247Y0062973D01*
X0104197Y0063019D01*
X0104150Y0063067D01*
X0104106Y0063118D01*
X0104065Y0063172D01*
X0104026Y0063228D01*
X0103992Y0063285D01*
X0103960Y0063345D01*
X0103932Y0063406D01*
X0103908Y0063469D01*
X0103887Y0063533D01*
X0103870Y0063599D01*
X0103856Y0063665D01*
X0103847Y0063731D01*
X0103841Y0063799D01*
X0103839Y0063866D01*
X0136938Y0150531D02*
X0136938Y0176335D01*
X0150938Y0176335D01*
X0150938Y0150531D01*
X0136938Y0150531D01*
X0028721Y0165362D02*
X0028721Y0176386D01*
X0017697Y0176386D01*
X0017697Y0165362D01*
X0028721Y0165362D01*
X0027540Y0174024D02*
X0025178Y0174024D01*
X0025180Y0174091D01*
X0025186Y0174159D01*
X0025195Y0174225D01*
X0025209Y0174291D01*
X0025226Y0174357D01*
X0025247Y0174421D01*
X0025271Y0174484D01*
X0025299Y0174545D01*
X0025331Y0174605D01*
X0025365Y0174662D01*
X0025404Y0174718D01*
X0025445Y0174772D01*
X0025489Y0174823D01*
X0025536Y0174871D01*
X0025586Y0174917D01*
X0025638Y0174959D01*
X0025692Y0174999D01*
X0025749Y0175035D01*
X0025808Y0175069D01*
X0025868Y0175098D01*
X0025931Y0175125D01*
X0025994Y0175147D01*
X0026059Y0175166D01*
X0026124Y0175181D01*
X0026191Y0175193D01*
X0026258Y0175201D01*
X0026325Y0175205D01*
X0026393Y0175205D01*
X0026460Y0175201D01*
X0026527Y0175193D01*
X0026594Y0175181D01*
X0026659Y0175166D01*
X0026724Y0175147D01*
X0026787Y0175125D01*
X0026850Y0175098D01*
X0026910Y0175069D01*
X0026969Y0175035D01*
X0027026Y0174999D01*
X0027080Y0174959D01*
X0027132Y0174917D01*
X0027182Y0174871D01*
X0027229Y0174823D01*
X0027273Y0174772D01*
X0027314Y0174718D01*
X0027353Y0174662D01*
X0027387Y0174605D01*
X0027419Y0174545D01*
X0027447Y0174484D01*
X0027471Y0174421D01*
X0027492Y0174357D01*
X0027509Y0174291D01*
X0027523Y0174225D01*
X0027532Y0174159D01*
X0027538Y0174091D01*
X0027540Y0174024D01*
D15*
X0131812Y0071701D02*
X0131812Y0067685D01*
X0131812Y0071701D02*
X0135237Y0071701D01*
X0136064Y0066583D02*
X0138977Y0066583D01*
X0143229Y0067685D02*
X0143229Y0071701D01*
X0139804Y0071701D01*
X0149135Y0071701D02*
X0149135Y0067685D01*
X0149135Y0071701D02*
X0152560Y0071701D01*
X0153387Y0066583D02*
X0156300Y0066583D01*
X0157127Y0071701D02*
X0160552Y0071701D01*
X0160552Y0067685D01*
M02*
