G75*
%MOIN*%
%OFA0B0*%
%FSLAX25Y25*%
%IPPOS*%
%LPD*%
%AMOC8*
5,1,8,0,0,1.08239X$1,22.5*
%
%ADD10C,0.00000*%
%ADD11C,0.00300*%
%ADD12C,0.00600*%
%ADD13C,0.00800*%
%ADD14C,0.00400*%
D10*
X0001300Y0001031D02*
X0001300Y0232921D01*
X0174528Y0232921D01*
X0174528Y0001031D01*
X0001300Y0001031D01*
D11*
X0014978Y0003656D02*
X0015022Y0003750D01*
X0015063Y0003847D01*
X0015100Y0003944D01*
X0015134Y0004043D01*
X0015165Y0004143D01*
X0015192Y0004244D01*
X0015216Y0004346D01*
X0015236Y0004449D01*
X0015252Y0004552D01*
X0015265Y0004656D01*
X0015274Y0004760D01*
X0015279Y0004864D01*
X0015281Y0004969D01*
X0013261Y0004969D02*
X0013263Y0005074D01*
X0013268Y0005178D01*
X0013277Y0005282D01*
X0013290Y0005386D01*
X0013306Y0005489D01*
X0013326Y0005592D01*
X0013350Y0005694D01*
X0013377Y0005795D01*
X0013408Y0005895D01*
X0013442Y0005994D01*
X0013479Y0006091D01*
X0013520Y0006187D01*
X0013564Y0006282D01*
X0014271Y0006787D02*
X0014326Y0006785D01*
X0014380Y0006779D01*
X0014433Y0006769D01*
X0014486Y0006755D01*
X0014538Y0006738D01*
X0014588Y0006716D01*
X0014637Y0006692D01*
X0014683Y0006663D01*
X0014728Y0006631D01*
X0014770Y0006597D01*
X0014809Y0006559D01*
X0014845Y0006518D01*
X0014879Y0006475D01*
X0014909Y0006429D01*
X0014936Y0006382D01*
X0014959Y0006333D01*
X0014979Y0006282D01*
X0015080Y0005979D02*
X0013463Y0003958D01*
X0014271Y0003150D02*
X0014326Y0003152D01*
X0014380Y0003158D01*
X0014433Y0003168D01*
X0014486Y0003182D01*
X0014538Y0003199D01*
X0014588Y0003221D01*
X0014637Y0003245D01*
X0014683Y0003274D01*
X0014728Y0003306D01*
X0014770Y0003340D01*
X0014809Y0003378D01*
X0014845Y0003419D01*
X0014879Y0003462D01*
X0014909Y0003508D01*
X0014936Y0003555D01*
X0014959Y0003604D01*
X0014979Y0003655D01*
X0014271Y0003150D02*
X0014216Y0003152D01*
X0014162Y0003158D01*
X0014109Y0003168D01*
X0014056Y0003182D01*
X0014004Y0003199D01*
X0013954Y0003221D01*
X0013905Y0003245D01*
X0013859Y0003274D01*
X0013814Y0003306D01*
X0013772Y0003340D01*
X0013733Y0003378D01*
X0013697Y0003419D01*
X0013663Y0003462D01*
X0013633Y0003508D01*
X0013606Y0003555D01*
X0013583Y0003604D01*
X0013563Y0003655D01*
X0015281Y0004969D02*
X0015279Y0005074D01*
X0015274Y0005178D01*
X0015265Y0005282D01*
X0015252Y0005386D01*
X0015236Y0005489D01*
X0015216Y0005592D01*
X0015192Y0005694D01*
X0015165Y0005795D01*
X0015134Y0005895D01*
X0015100Y0005994D01*
X0015063Y0006091D01*
X0015022Y0006188D01*
X0014978Y0006282D01*
X0014271Y0006787D02*
X0014216Y0006785D01*
X0014162Y0006779D01*
X0014109Y0006769D01*
X0014056Y0006755D01*
X0014004Y0006738D01*
X0013954Y0006716D01*
X0013905Y0006692D01*
X0013859Y0006663D01*
X0013814Y0006631D01*
X0013772Y0006597D01*
X0013733Y0006559D01*
X0013697Y0006518D01*
X0013663Y0006475D01*
X0013633Y0006429D01*
X0013606Y0006382D01*
X0013583Y0006333D01*
X0013563Y0006282D01*
X0013261Y0004969D02*
X0013263Y0004864D01*
X0013268Y0004760D01*
X0013277Y0004656D01*
X0013290Y0004552D01*
X0013306Y0004449D01*
X0013326Y0004346D01*
X0013350Y0004244D01*
X0013377Y0004143D01*
X0013408Y0004043D01*
X0013442Y0003944D01*
X0013479Y0003847D01*
X0013520Y0003751D01*
X0013564Y0003656D01*
X0016652Y0002746D02*
X0018268Y0007191D01*
X0019536Y0006787D02*
X0020345Y0006787D01*
X0019941Y0006787D02*
X0019941Y0003150D01*
X0020345Y0003150D02*
X0019536Y0003150D01*
X0021883Y0003150D02*
X0021883Y0006787D01*
X0023904Y0003150D01*
X0023904Y0006787D01*
X0029455Y0004969D02*
X0029453Y0004864D01*
X0029448Y0004760D01*
X0029439Y0004656D01*
X0029426Y0004552D01*
X0029410Y0004449D01*
X0029390Y0004346D01*
X0029366Y0004244D01*
X0029339Y0004143D01*
X0029308Y0004043D01*
X0029274Y0003944D01*
X0029237Y0003847D01*
X0029196Y0003750D01*
X0029152Y0003656D01*
X0029153Y0003655D02*
X0029133Y0003604D01*
X0029110Y0003555D01*
X0029083Y0003508D01*
X0029053Y0003462D01*
X0029019Y0003419D01*
X0028983Y0003378D01*
X0028944Y0003340D01*
X0028902Y0003306D01*
X0028857Y0003274D01*
X0028811Y0003245D01*
X0028762Y0003221D01*
X0028712Y0003199D01*
X0028660Y0003182D01*
X0028607Y0003168D01*
X0028554Y0003158D01*
X0028500Y0003152D01*
X0028445Y0003150D01*
X0028390Y0003152D01*
X0028336Y0003158D01*
X0028283Y0003168D01*
X0028230Y0003182D01*
X0028178Y0003199D01*
X0028128Y0003221D01*
X0028079Y0003245D01*
X0028033Y0003274D01*
X0027988Y0003306D01*
X0027946Y0003340D01*
X0027907Y0003378D01*
X0027871Y0003419D01*
X0027837Y0003462D01*
X0027807Y0003508D01*
X0027780Y0003555D01*
X0027757Y0003604D01*
X0027737Y0003655D01*
X0027636Y0003958D02*
X0029253Y0005979D01*
X0029153Y0006282D02*
X0029133Y0006333D01*
X0029110Y0006382D01*
X0029083Y0006429D01*
X0029053Y0006475D01*
X0029019Y0006518D01*
X0028983Y0006559D01*
X0028944Y0006597D01*
X0028902Y0006631D01*
X0028857Y0006663D01*
X0028811Y0006692D01*
X0028762Y0006716D01*
X0028712Y0006738D01*
X0028660Y0006755D01*
X0028607Y0006769D01*
X0028554Y0006779D01*
X0028500Y0006785D01*
X0028445Y0006787D01*
X0028390Y0006785D01*
X0028336Y0006779D01*
X0028283Y0006769D01*
X0028230Y0006755D01*
X0028178Y0006738D01*
X0028128Y0006716D01*
X0028079Y0006692D01*
X0028033Y0006663D01*
X0027988Y0006631D01*
X0027946Y0006597D01*
X0027907Y0006559D01*
X0027871Y0006518D01*
X0027837Y0006475D01*
X0027807Y0006429D01*
X0027780Y0006382D01*
X0027757Y0006333D01*
X0027737Y0006282D01*
X0029152Y0006282D02*
X0029196Y0006188D01*
X0029237Y0006091D01*
X0029274Y0005994D01*
X0029308Y0005895D01*
X0029339Y0005795D01*
X0029366Y0005694D01*
X0029390Y0005592D01*
X0029410Y0005489D01*
X0029426Y0005386D01*
X0029439Y0005282D01*
X0029448Y0005178D01*
X0029453Y0005074D01*
X0029455Y0004969D01*
X0027434Y0004969D02*
X0027436Y0005074D01*
X0027441Y0005178D01*
X0027450Y0005282D01*
X0027463Y0005386D01*
X0027479Y0005489D01*
X0027499Y0005592D01*
X0027523Y0005694D01*
X0027550Y0005795D01*
X0027581Y0005895D01*
X0027615Y0005994D01*
X0027652Y0006091D01*
X0027693Y0006187D01*
X0027737Y0006282D01*
X0027435Y0004969D02*
X0027437Y0004864D01*
X0027442Y0004760D01*
X0027451Y0004656D01*
X0027464Y0004552D01*
X0027480Y0004449D01*
X0027500Y0004346D01*
X0027524Y0004244D01*
X0027551Y0004143D01*
X0027582Y0004043D01*
X0027616Y0003944D01*
X0027653Y0003847D01*
X0027694Y0003751D01*
X0027738Y0003656D01*
X0030825Y0002746D02*
X0032442Y0007191D01*
X0033812Y0005777D02*
X0033812Y0004160D01*
X0033814Y0004098D01*
X0033820Y0004036D01*
X0033829Y0003974D01*
X0033843Y0003914D01*
X0033860Y0003854D01*
X0033880Y0003795D01*
X0033904Y0003738D01*
X0033932Y0003682D01*
X0033963Y0003628D01*
X0033998Y0003576D01*
X0034035Y0003527D01*
X0034076Y0003480D01*
X0034119Y0003435D01*
X0034165Y0003393D01*
X0034213Y0003354D01*
X0034264Y0003318D01*
X0034317Y0003285D01*
X0034372Y0003256D01*
X0034428Y0003230D01*
X0034486Y0003207D01*
X0034546Y0003189D01*
X0034606Y0003173D01*
X0034667Y0003162D01*
X0034729Y0003154D01*
X0034791Y0003150D01*
X0034853Y0003150D01*
X0034915Y0003154D01*
X0034977Y0003162D01*
X0035038Y0003173D01*
X0035098Y0003189D01*
X0035158Y0003207D01*
X0035216Y0003230D01*
X0035272Y0003256D01*
X0035327Y0003285D01*
X0035380Y0003318D01*
X0035431Y0003354D01*
X0035479Y0003393D01*
X0035525Y0003435D01*
X0035568Y0003480D01*
X0035609Y0003527D01*
X0035646Y0003576D01*
X0035681Y0003628D01*
X0035712Y0003682D01*
X0035740Y0003738D01*
X0035764Y0003795D01*
X0035784Y0003854D01*
X0035801Y0003914D01*
X0035815Y0003974D01*
X0035824Y0004036D01*
X0035830Y0004098D01*
X0035832Y0004160D01*
X0035833Y0004160D02*
X0035833Y0005777D01*
X0035832Y0005777D02*
X0035830Y0005839D01*
X0035824Y0005901D01*
X0035815Y0005963D01*
X0035801Y0006023D01*
X0035784Y0006083D01*
X0035764Y0006142D01*
X0035740Y0006199D01*
X0035712Y0006255D01*
X0035681Y0006309D01*
X0035646Y0006361D01*
X0035609Y0006410D01*
X0035568Y0006457D01*
X0035525Y0006502D01*
X0035479Y0006544D01*
X0035431Y0006583D01*
X0035380Y0006619D01*
X0035327Y0006652D01*
X0035272Y0006681D01*
X0035216Y0006707D01*
X0035158Y0006730D01*
X0035098Y0006748D01*
X0035038Y0006764D01*
X0034977Y0006775D01*
X0034915Y0006783D01*
X0034853Y0006787D01*
X0034791Y0006787D01*
X0034729Y0006783D01*
X0034667Y0006775D01*
X0034606Y0006764D01*
X0034546Y0006748D01*
X0034486Y0006730D01*
X0034428Y0006707D01*
X0034372Y0006681D01*
X0034317Y0006652D01*
X0034264Y0006619D01*
X0034213Y0006583D01*
X0034165Y0006544D01*
X0034119Y0006502D01*
X0034076Y0006457D01*
X0034035Y0006410D01*
X0033998Y0006361D01*
X0033963Y0006309D01*
X0033932Y0006255D01*
X0033904Y0006199D01*
X0033880Y0006142D01*
X0033860Y0006083D01*
X0033843Y0006023D01*
X0033829Y0005963D01*
X0033820Y0005901D01*
X0033814Y0005839D01*
X0033812Y0005777D01*
X0037474Y0006787D02*
X0037474Y0004160D01*
X0037476Y0004098D01*
X0037482Y0004036D01*
X0037491Y0003974D01*
X0037505Y0003914D01*
X0037522Y0003854D01*
X0037542Y0003795D01*
X0037566Y0003738D01*
X0037594Y0003682D01*
X0037625Y0003628D01*
X0037660Y0003576D01*
X0037697Y0003527D01*
X0037738Y0003480D01*
X0037781Y0003435D01*
X0037827Y0003393D01*
X0037875Y0003354D01*
X0037926Y0003318D01*
X0037979Y0003285D01*
X0038034Y0003256D01*
X0038090Y0003230D01*
X0038148Y0003207D01*
X0038208Y0003189D01*
X0038268Y0003173D01*
X0038329Y0003162D01*
X0038391Y0003154D01*
X0038453Y0003150D01*
X0038515Y0003150D01*
X0038577Y0003154D01*
X0038639Y0003162D01*
X0038700Y0003173D01*
X0038760Y0003189D01*
X0038820Y0003207D01*
X0038878Y0003230D01*
X0038934Y0003256D01*
X0038989Y0003285D01*
X0039042Y0003318D01*
X0039093Y0003354D01*
X0039141Y0003393D01*
X0039187Y0003435D01*
X0039230Y0003480D01*
X0039271Y0003527D01*
X0039308Y0003576D01*
X0039343Y0003628D01*
X0039374Y0003682D01*
X0039402Y0003738D01*
X0039426Y0003795D01*
X0039446Y0003854D01*
X0039463Y0003914D01*
X0039477Y0003974D01*
X0039486Y0004036D01*
X0039492Y0004098D01*
X0039494Y0004160D01*
X0039494Y0006787D01*
X0040899Y0006787D02*
X0042919Y0006787D01*
X0041909Y0006787D02*
X0041909Y0003150D01*
X0053812Y0003150D02*
X0055833Y0003150D01*
X0054822Y0003150D02*
X0054822Y0006787D01*
X0053812Y0005979D01*
X0057203Y0002746D02*
X0058820Y0007191D01*
X0060088Y0006787D02*
X0060896Y0006787D01*
X0060492Y0006787D02*
X0060492Y0003150D01*
X0060088Y0003150D02*
X0060896Y0003150D01*
X0062434Y0003150D02*
X0062434Y0006787D01*
X0064455Y0003150D01*
X0064455Y0006787D01*
X0067985Y0005979D02*
X0068996Y0006787D01*
X0068996Y0003150D01*
X0070006Y0003150D02*
X0067985Y0003150D01*
X0071376Y0002746D02*
X0072993Y0007191D01*
X0074363Y0005777D02*
X0074363Y0004160D01*
X0074364Y0004160D02*
X0074366Y0004098D01*
X0074372Y0004036D01*
X0074381Y0003974D01*
X0074395Y0003914D01*
X0074412Y0003854D01*
X0074432Y0003795D01*
X0074456Y0003738D01*
X0074484Y0003682D01*
X0074515Y0003628D01*
X0074550Y0003576D01*
X0074587Y0003527D01*
X0074628Y0003480D01*
X0074671Y0003435D01*
X0074717Y0003393D01*
X0074765Y0003354D01*
X0074816Y0003318D01*
X0074869Y0003285D01*
X0074924Y0003256D01*
X0074980Y0003230D01*
X0075038Y0003207D01*
X0075098Y0003189D01*
X0075158Y0003173D01*
X0075219Y0003162D01*
X0075281Y0003154D01*
X0075343Y0003150D01*
X0075405Y0003150D01*
X0075467Y0003154D01*
X0075529Y0003162D01*
X0075590Y0003173D01*
X0075650Y0003189D01*
X0075710Y0003207D01*
X0075768Y0003230D01*
X0075824Y0003256D01*
X0075879Y0003285D01*
X0075932Y0003318D01*
X0075983Y0003354D01*
X0076031Y0003393D01*
X0076077Y0003435D01*
X0076120Y0003480D01*
X0076161Y0003527D01*
X0076198Y0003576D01*
X0076233Y0003628D01*
X0076264Y0003682D01*
X0076292Y0003738D01*
X0076316Y0003795D01*
X0076336Y0003854D01*
X0076353Y0003914D01*
X0076367Y0003974D01*
X0076376Y0004036D01*
X0076382Y0004098D01*
X0076384Y0004160D01*
X0076384Y0005777D01*
X0076382Y0005839D01*
X0076376Y0005901D01*
X0076367Y0005963D01*
X0076353Y0006023D01*
X0076336Y0006083D01*
X0076316Y0006142D01*
X0076292Y0006199D01*
X0076264Y0006255D01*
X0076233Y0006309D01*
X0076198Y0006361D01*
X0076161Y0006410D01*
X0076120Y0006457D01*
X0076077Y0006502D01*
X0076031Y0006544D01*
X0075983Y0006583D01*
X0075932Y0006619D01*
X0075879Y0006652D01*
X0075824Y0006681D01*
X0075768Y0006707D01*
X0075710Y0006730D01*
X0075650Y0006748D01*
X0075590Y0006764D01*
X0075529Y0006775D01*
X0075467Y0006783D01*
X0075405Y0006787D01*
X0075343Y0006787D01*
X0075281Y0006783D01*
X0075219Y0006775D01*
X0075158Y0006764D01*
X0075098Y0006748D01*
X0075038Y0006730D01*
X0074980Y0006707D01*
X0074924Y0006681D01*
X0074869Y0006652D01*
X0074816Y0006619D01*
X0074765Y0006583D01*
X0074717Y0006544D01*
X0074671Y0006502D01*
X0074628Y0006457D01*
X0074587Y0006410D01*
X0074550Y0006361D01*
X0074515Y0006309D01*
X0074484Y0006255D01*
X0074456Y0006199D01*
X0074432Y0006142D01*
X0074412Y0006083D01*
X0074395Y0006023D01*
X0074381Y0005963D01*
X0074372Y0005901D01*
X0074366Y0005839D01*
X0074364Y0005777D01*
X0078025Y0006787D02*
X0078025Y0004160D01*
X0078027Y0004098D01*
X0078033Y0004036D01*
X0078042Y0003974D01*
X0078056Y0003914D01*
X0078073Y0003854D01*
X0078093Y0003795D01*
X0078117Y0003738D01*
X0078145Y0003682D01*
X0078176Y0003628D01*
X0078211Y0003576D01*
X0078248Y0003527D01*
X0078289Y0003480D01*
X0078332Y0003435D01*
X0078378Y0003393D01*
X0078426Y0003354D01*
X0078477Y0003318D01*
X0078530Y0003285D01*
X0078585Y0003256D01*
X0078641Y0003230D01*
X0078699Y0003207D01*
X0078759Y0003189D01*
X0078819Y0003173D01*
X0078880Y0003162D01*
X0078942Y0003154D01*
X0079004Y0003150D01*
X0079066Y0003150D01*
X0079128Y0003154D01*
X0079190Y0003162D01*
X0079251Y0003173D01*
X0079311Y0003189D01*
X0079371Y0003207D01*
X0079429Y0003230D01*
X0079485Y0003256D01*
X0079540Y0003285D01*
X0079593Y0003318D01*
X0079644Y0003354D01*
X0079692Y0003393D01*
X0079738Y0003435D01*
X0079781Y0003480D01*
X0079822Y0003527D01*
X0079859Y0003576D01*
X0079894Y0003628D01*
X0079925Y0003682D01*
X0079953Y0003738D01*
X0079977Y0003795D01*
X0079997Y0003854D01*
X0080014Y0003914D01*
X0080028Y0003974D01*
X0080037Y0004036D01*
X0080043Y0004098D01*
X0080045Y0004160D01*
X0080045Y0006787D01*
X0081450Y0006787D02*
X0083470Y0006787D01*
X0082460Y0006787D02*
X0082460Y0003150D01*
X0093182Y0003150D02*
X0095203Y0003150D01*
X0096573Y0002746D02*
X0098190Y0007191D01*
X0099458Y0006787D02*
X0100266Y0006787D01*
X0099862Y0006787D02*
X0099862Y0003150D01*
X0099458Y0003150D02*
X0100266Y0003150D01*
X0101804Y0003150D02*
X0101804Y0006787D01*
X0103825Y0003150D01*
X0103825Y0006787D01*
X0109073Y0005171D02*
X0109116Y0005214D01*
X0109155Y0005260D01*
X0109192Y0005308D01*
X0109226Y0005359D01*
X0109257Y0005411D01*
X0109285Y0005465D01*
X0109309Y0005521D01*
X0109329Y0005579D01*
X0109346Y0005637D01*
X0109359Y0005696D01*
X0109368Y0005757D01*
X0109374Y0005817D01*
X0109376Y0005878D01*
X0109073Y0005171D02*
X0107355Y0003150D01*
X0109376Y0003150D01*
X0110747Y0002746D02*
X0112363Y0007191D01*
X0113733Y0005777D02*
X0113733Y0004160D01*
X0113734Y0004160D02*
X0113736Y0004098D01*
X0113742Y0004036D01*
X0113751Y0003974D01*
X0113765Y0003914D01*
X0113782Y0003854D01*
X0113802Y0003795D01*
X0113826Y0003738D01*
X0113854Y0003682D01*
X0113885Y0003628D01*
X0113920Y0003576D01*
X0113957Y0003527D01*
X0113998Y0003480D01*
X0114041Y0003435D01*
X0114087Y0003393D01*
X0114135Y0003354D01*
X0114186Y0003318D01*
X0114239Y0003285D01*
X0114294Y0003256D01*
X0114350Y0003230D01*
X0114408Y0003207D01*
X0114468Y0003189D01*
X0114528Y0003173D01*
X0114589Y0003162D01*
X0114651Y0003154D01*
X0114713Y0003150D01*
X0114775Y0003150D01*
X0114837Y0003154D01*
X0114899Y0003162D01*
X0114960Y0003173D01*
X0115020Y0003189D01*
X0115080Y0003207D01*
X0115138Y0003230D01*
X0115194Y0003256D01*
X0115249Y0003285D01*
X0115302Y0003318D01*
X0115353Y0003354D01*
X0115401Y0003393D01*
X0115447Y0003435D01*
X0115490Y0003480D01*
X0115531Y0003527D01*
X0115568Y0003576D01*
X0115603Y0003628D01*
X0115634Y0003682D01*
X0115662Y0003738D01*
X0115686Y0003795D01*
X0115706Y0003854D01*
X0115723Y0003914D01*
X0115737Y0003974D01*
X0115746Y0004036D01*
X0115752Y0004098D01*
X0115754Y0004160D01*
X0115754Y0005777D01*
X0115752Y0005839D01*
X0115746Y0005901D01*
X0115737Y0005963D01*
X0115723Y0006023D01*
X0115706Y0006083D01*
X0115686Y0006142D01*
X0115662Y0006199D01*
X0115634Y0006255D01*
X0115603Y0006309D01*
X0115568Y0006361D01*
X0115531Y0006410D01*
X0115490Y0006457D01*
X0115447Y0006502D01*
X0115401Y0006544D01*
X0115353Y0006583D01*
X0115302Y0006619D01*
X0115249Y0006652D01*
X0115194Y0006681D01*
X0115138Y0006707D01*
X0115080Y0006730D01*
X0115020Y0006748D01*
X0114960Y0006764D01*
X0114899Y0006775D01*
X0114837Y0006783D01*
X0114775Y0006787D01*
X0114713Y0006787D01*
X0114651Y0006783D01*
X0114589Y0006775D01*
X0114528Y0006764D01*
X0114468Y0006748D01*
X0114408Y0006730D01*
X0114350Y0006707D01*
X0114294Y0006681D01*
X0114239Y0006652D01*
X0114186Y0006619D01*
X0114135Y0006583D01*
X0114087Y0006544D01*
X0114041Y0006502D01*
X0113998Y0006457D01*
X0113957Y0006410D01*
X0113920Y0006361D01*
X0113885Y0006309D01*
X0113854Y0006255D01*
X0113826Y0006199D01*
X0113802Y0006142D01*
X0113782Y0006083D01*
X0113765Y0006023D01*
X0113751Y0005963D01*
X0113742Y0005901D01*
X0113736Y0005839D01*
X0113734Y0005777D01*
X0117395Y0006787D02*
X0117395Y0004160D01*
X0117397Y0004098D01*
X0117403Y0004036D01*
X0117412Y0003974D01*
X0117426Y0003914D01*
X0117443Y0003854D01*
X0117463Y0003795D01*
X0117487Y0003738D01*
X0117515Y0003682D01*
X0117546Y0003628D01*
X0117581Y0003576D01*
X0117618Y0003527D01*
X0117659Y0003480D01*
X0117702Y0003435D01*
X0117748Y0003393D01*
X0117796Y0003354D01*
X0117847Y0003318D01*
X0117900Y0003285D01*
X0117955Y0003256D01*
X0118011Y0003230D01*
X0118069Y0003207D01*
X0118129Y0003189D01*
X0118189Y0003173D01*
X0118250Y0003162D01*
X0118312Y0003154D01*
X0118374Y0003150D01*
X0118436Y0003150D01*
X0118498Y0003154D01*
X0118560Y0003162D01*
X0118621Y0003173D01*
X0118681Y0003189D01*
X0118741Y0003207D01*
X0118799Y0003230D01*
X0118855Y0003256D01*
X0118910Y0003285D01*
X0118963Y0003318D01*
X0119014Y0003354D01*
X0119062Y0003393D01*
X0119108Y0003435D01*
X0119151Y0003480D01*
X0119192Y0003527D01*
X0119229Y0003576D01*
X0119264Y0003628D01*
X0119295Y0003682D01*
X0119323Y0003738D01*
X0119347Y0003795D01*
X0119367Y0003854D01*
X0119384Y0003914D01*
X0119398Y0003974D01*
X0119407Y0004036D01*
X0119413Y0004098D01*
X0119415Y0004160D01*
X0119415Y0006787D01*
X0120820Y0006787D02*
X0122841Y0006787D01*
X0121830Y0006787D02*
X0121830Y0003150D01*
X0133340Y0003150D02*
X0134350Y0003150D01*
X0134412Y0003152D01*
X0134474Y0003158D01*
X0134536Y0003167D01*
X0134596Y0003181D01*
X0134656Y0003198D01*
X0134715Y0003218D01*
X0134772Y0003242D01*
X0134828Y0003270D01*
X0134882Y0003301D01*
X0134934Y0003336D01*
X0134983Y0003373D01*
X0135030Y0003414D01*
X0135075Y0003457D01*
X0135117Y0003503D01*
X0135156Y0003551D01*
X0135192Y0003602D01*
X0135225Y0003655D01*
X0135254Y0003710D01*
X0135280Y0003766D01*
X0135303Y0003824D01*
X0135321Y0003884D01*
X0135337Y0003944D01*
X0135348Y0004005D01*
X0135356Y0004067D01*
X0135360Y0004129D01*
X0135360Y0004191D01*
X0135356Y0004253D01*
X0135348Y0004315D01*
X0135337Y0004376D01*
X0135321Y0004436D01*
X0135303Y0004496D01*
X0135280Y0004554D01*
X0135254Y0004610D01*
X0135225Y0004665D01*
X0135192Y0004718D01*
X0135156Y0004769D01*
X0135117Y0004817D01*
X0135075Y0004863D01*
X0135030Y0004906D01*
X0134983Y0004947D01*
X0134934Y0004984D01*
X0134882Y0005019D01*
X0134828Y0005050D01*
X0134772Y0005078D01*
X0134715Y0005102D01*
X0134656Y0005122D01*
X0134596Y0005139D01*
X0134536Y0005153D01*
X0134474Y0005162D01*
X0134412Y0005168D01*
X0134350Y0005170D01*
X0134552Y0005171D02*
X0133744Y0005171D01*
X0134552Y0005171D02*
X0134607Y0005173D01*
X0134662Y0005179D01*
X0134716Y0005188D01*
X0134770Y0005201D01*
X0134823Y0005218D01*
X0134874Y0005238D01*
X0134924Y0005262D01*
X0134972Y0005289D01*
X0135018Y0005319D01*
X0135062Y0005352D01*
X0135104Y0005388D01*
X0135143Y0005427D01*
X0135179Y0005469D01*
X0135212Y0005513D01*
X0135242Y0005559D01*
X0135269Y0005607D01*
X0135293Y0005657D01*
X0135313Y0005708D01*
X0135330Y0005761D01*
X0135343Y0005815D01*
X0135352Y0005869D01*
X0135358Y0005924D01*
X0135360Y0005979D01*
X0135358Y0006034D01*
X0135352Y0006089D01*
X0135343Y0006143D01*
X0135330Y0006197D01*
X0135313Y0006250D01*
X0135293Y0006301D01*
X0135269Y0006351D01*
X0135242Y0006399D01*
X0135212Y0006445D01*
X0135179Y0006489D01*
X0135143Y0006531D01*
X0135104Y0006570D01*
X0135062Y0006606D01*
X0135018Y0006639D01*
X0134972Y0006669D01*
X0134924Y0006696D01*
X0134874Y0006720D01*
X0134823Y0006740D01*
X0134770Y0006757D01*
X0134716Y0006770D01*
X0134662Y0006779D01*
X0134607Y0006785D01*
X0134552Y0006787D01*
X0133340Y0006787D01*
X0138347Y0007191D02*
X0136731Y0002746D01*
X0139615Y0003150D02*
X0140423Y0003150D01*
X0140019Y0003150D02*
X0140019Y0006787D01*
X0139615Y0006787D02*
X0140423Y0006787D01*
X0141962Y0006787D02*
X0141962Y0003150D01*
X0143982Y0003150D02*
X0141962Y0006787D01*
X0143982Y0006787D02*
X0143982Y0003150D01*
X0147513Y0003150D02*
X0148523Y0003150D01*
X0148585Y0003152D01*
X0148647Y0003158D01*
X0148709Y0003167D01*
X0148769Y0003181D01*
X0148829Y0003198D01*
X0148888Y0003218D01*
X0148945Y0003242D01*
X0149001Y0003270D01*
X0149055Y0003301D01*
X0149107Y0003336D01*
X0149156Y0003373D01*
X0149203Y0003414D01*
X0149248Y0003457D01*
X0149290Y0003503D01*
X0149329Y0003551D01*
X0149365Y0003602D01*
X0149398Y0003655D01*
X0149427Y0003710D01*
X0149453Y0003766D01*
X0149476Y0003824D01*
X0149494Y0003884D01*
X0149510Y0003944D01*
X0149521Y0004005D01*
X0149529Y0004067D01*
X0149533Y0004129D01*
X0149533Y0004191D01*
X0149529Y0004253D01*
X0149521Y0004315D01*
X0149510Y0004376D01*
X0149494Y0004436D01*
X0149476Y0004496D01*
X0149453Y0004554D01*
X0149427Y0004610D01*
X0149398Y0004665D01*
X0149365Y0004718D01*
X0149329Y0004769D01*
X0149290Y0004817D01*
X0149248Y0004863D01*
X0149203Y0004906D01*
X0149156Y0004947D01*
X0149107Y0004984D01*
X0149055Y0005019D01*
X0149001Y0005050D01*
X0148945Y0005078D01*
X0148888Y0005102D01*
X0148829Y0005122D01*
X0148769Y0005139D01*
X0148709Y0005153D01*
X0148647Y0005162D01*
X0148585Y0005168D01*
X0148523Y0005170D01*
X0148725Y0005171D02*
X0147917Y0005171D01*
X0148725Y0005171D02*
X0148780Y0005173D01*
X0148835Y0005179D01*
X0148889Y0005188D01*
X0148943Y0005201D01*
X0148996Y0005218D01*
X0149047Y0005238D01*
X0149097Y0005262D01*
X0149145Y0005289D01*
X0149191Y0005319D01*
X0149235Y0005352D01*
X0149277Y0005388D01*
X0149316Y0005427D01*
X0149352Y0005469D01*
X0149385Y0005513D01*
X0149415Y0005559D01*
X0149442Y0005607D01*
X0149466Y0005657D01*
X0149486Y0005708D01*
X0149503Y0005761D01*
X0149516Y0005815D01*
X0149525Y0005869D01*
X0149531Y0005924D01*
X0149533Y0005979D01*
X0149531Y0006034D01*
X0149525Y0006089D01*
X0149516Y0006143D01*
X0149503Y0006197D01*
X0149486Y0006250D01*
X0149466Y0006301D01*
X0149442Y0006351D01*
X0149415Y0006399D01*
X0149385Y0006445D01*
X0149352Y0006489D01*
X0149316Y0006531D01*
X0149277Y0006570D01*
X0149235Y0006606D01*
X0149191Y0006639D01*
X0149145Y0006669D01*
X0149097Y0006696D01*
X0149047Y0006720D01*
X0148996Y0006740D01*
X0148943Y0006757D01*
X0148889Y0006770D01*
X0148835Y0006779D01*
X0148780Y0006785D01*
X0148725Y0006787D01*
X0147513Y0006787D01*
X0152520Y0007191D02*
X0150904Y0002746D01*
X0153891Y0004160D02*
X0153891Y0005777D01*
X0153893Y0005839D01*
X0153899Y0005901D01*
X0153908Y0005963D01*
X0153922Y0006023D01*
X0153939Y0006083D01*
X0153959Y0006142D01*
X0153983Y0006199D01*
X0154011Y0006255D01*
X0154042Y0006309D01*
X0154077Y0006361D01*
X0154114Y0006410D01*
X0154155Y0006457D01*
X0154198Y0006502D01*
X0154244Y0006544D01*
X0154292Y0006583D01*
X0154343Y0006619D01*
X0154396Y0006652D01*
X0154451Y0006681D01*
X0154507Y0006707D01*
X0154565Y0006730D01*
X0154625Y0006748D01*
X0154685Y0006764D01*
X0154746Y0006775D01*
X0154808Y0006783D01*
X0154870Y0006787D01*
X0154932Y0006787D01*
X0154994Y0006783D01*
X0155056Y0006775D01*
X0155117Y0006764D01*
X0155177Y0006748D01*
X0155237Y0006730D01*
X0155295Y0006707D01*
X0155351Y0006681D01*
X0155406Y0006652D01*
X0155459Y0006619D01*
X0155510Y0006583D01*
X0155558Y0006544D01*
X0155604Y0006502D01*
X0155647Y0006457D01*
X0155688Y0006410D01*
X0155725Y0006361D01*
X0155760Y0006309D01*
X0155791Y0006255D01*
X0155819Y0006199D01*
X0155843Y0006142D01*
X0155863Y0006083D01*
X0155880Y0006023D01*
X0155894Y0005963D01*
X0155903Y0005901D01*
X0155909Y0005839D01*
X0155911Y0005777D01*
X0155911Y0004160D01*
X0155909Y0004098D01*
X0155903Y0004036D01*
X0155894Y0003974D01*
X0155880Y0003914D01*
X0155863Y0003854D01*
X0155843Y0003795D01*
X0155819Y0003738D01*
X0155791Y0003682D01*
X0155760Y0003628D01*
X0155725Y0003576D01*
X0155688Y0003527D01*
X0155647Y0003480D01*
X0155604Y0003435D01*
X0155558Y0003393D01*
X0155510Y0003354D01*
X0155459Y0003318D01*
X0155406Y0003285D01*
X0155351Y0003256D01*
X0155295Y0003230D01*
X0155237Y0003207D01*
X0155177Y0003189D01*
X0155117Y0003173D01*
X0155056Y0003162D01*
X0154994Y0003154D01*
X0154932Y0003150D01*
X0154870Y0003150D01*
X0154808Y0003154D01*
X0154746Y0003162D01*
X0154685Y0003173D01*
X0154625Y0003189D01*
X0154565Y0003207D01*
X0154507Y0003230D01*
X0154451Y0003256D01*
X0154396Y0003285D01*
X0154343Y0003318D01*
X0154292Y0003354D01*
X0154244Y0003393D01*
X0154198Y0003435D01*
X0154155Y0003480D01*
X0154114Y0003527D01*
X0154077Y0003576D01*
X0154042Y0003628D01*
X0154011Y0003682D01*
X0153983Y0003738D01*
X0153959Y0003795D01*
X0153939Y0003854D01*
X0153922Y0003914D01*
X0153908Y0003974D01*
X0153899Y0004036D01*
X0153893Y0004098D01*
X0153891Y0004160D01*
X0157552Y0004160D02*
X0157552Y0006787D01*
X0159573Y0006787D02*
X0159573Y0004160D01*
X0159571Y0004098D01*
X0159565Y0004036D01*
X0159556Y0003974D01*
X0159542Y0003914D01*
X0159525Y0003854D01*
X0159505Y0003795D01*
X0159481Y0003738D01*
X0159453Y0003682D01*
X0159422Y0003628D01*
X0159387Y0003576D01*
X0159350Y0003527D01*
X0159309Y0003480D01*
X0159266Y0003435D01*
X0159220Y0003393D01*
X0159172Y0003354D01*
X0159121Y0003318D01*
X0159068Y0003285D01*
X0159013Y0003256D01*
X0158957Y0003230D01*
X0158899Y0003207D01*
X0158839Y0003189D01*
X0158779Y0003173D01*
X0158718Y0003162D01*
X0158656Y0003154D01*
X0158594Y0003150D01*
X0158532Y0003150D01*
X0158470Y0003154D01*
X0158408Y0003162D01*
X0158347Y0003173D01*
X0158287Y0003189D01*
X0158227Y0003207D01*
X0158169Y0003230D01*
X0158113Y0003256D01*
X0158058Y0003285D01*
X0158005Y0003318D01*
X0157954Y0003354D01*
X0157906Y0003393D01*
X0157860Y0003435D01*
X0157817Y0003480D01*
X0157776Y0003527D01*
X0157739Y0003576D01*
X0157704Y0003628D01*
X0157673Y0003682D01*
X0157645Y0003738D01*
X0157621Y0003795D01*
X0157601Y0003854D01*
X0157584Y0003914D01*
X0157570Y0003974D01*
X0157561Y0004036D01*
X0157555Y0004098D01*
X0157553Y0004160D01*
X0160977Y0006787D02*
X0162998Y0006787D01*
X0161988Y0006787D02*
X0161988Y0003150D01*
X0108467Y0006787D02*
X0108400Y0006785D01*
X0108334Y0006779D01*
X0108268Y0006770D01*
X0108202Y0006757D01*
X0108138Y0006740D01*
X0108074Y0006719D01*
X0108012Y0006695D01*
X0107951Y0006667D01*
X0107892Y0006636D01*
X0107835Y0006601D01*
X0107780Y0006564D01*
X0107727Y0006523D01*
X0107677Y0006479D01*
X0107629Y0006433D01*
X0107584Y0006383D01*
X0107542Y0006332D01*
X0107502Y0006278D01*
X0107466Y0006221D01*
X0107434Y0006163D01*
X0107404Y0006103D01*
X0107378Y0006042D01*
X0107356Y0005979D01*
X0108467Y0006787D02*
X0108526Y0006785D01*
X0108586Y0006779D01*
X0108644Y0006770D01*
X0108702Y0006756D01*
X0108759Y0006739D01*
X0108815Y0006718D01*
X0108869Y0006693D01*
X0108922Y0006665D01*
X0108972Y0006634D01*
X0109020Y0006599D01*
X0109066Y0006561D01*
X0109110Y0006521D01*
X0109150Y0006477D01*
X0109188Y0006431D01*
X0109223Y0006383D01*
X0109254Y0006333D01*
X0109282Y0006280D01*
X0109307Y0006226D01*
X0109328Y0006170D01*
X0109345Y0006113D01*
X0109359Y0006055D01*
X0109368Y0005997D01*
X0109374Y0005937D01*
X0109376Y0005878D01*
X0094900Y0005171D02*
X0093182Y0003150D01*
X0093183Y0005979D02*
X0093205Y0006042D01*
X0093231Y0006103D01*
X0093261Y0006163D01*
X0093293Y0006221D01*
X0093329Y0006278D01*
X0093369Y0006332D01*
X0093411Y0006383D01*
X0093456Y0006433D01*
X0093504Y0006479D01*
X0093554Y0006523D01*
X0093607Y0006564D01*
X0093662Y0006601D01*
X0093719Y0006636D01*
X0093778Y0006667D01*
X0093839Y0006695D01*
X0093901Y0006719D01*
X0093965Y0006740D01*
X0094029Y0006757D01*
X0094095Y0006770D01*
X0094161Y0006779D01*
X0094227Y0006785D01*
X0094294Y0006787D01*
X0094353Y0006785D01*
X0094413Y0006779D01*
X0094471Y0006770D01*
X0094529Y0006756D01*
X0094586Y0006739D01*
X0094642Y0006718D01*
X0094696Y0006693D01*
X0094749Y0006665D01*
X0094799Y0006634D01*
X0094847Y0006599D01*
X0094893Y0006561D01*
X0094937Y0006521D01*
X0094977Y0006477D01*
X0095015Y0006431D01*
X0095050Y0006383D01*
X0095081Y0006333D01*
X0095109Y0006280D01*
X0095134Y0006226D01*
X0095155Y0006170D01*
X0095172Y0006113D01*
X0095186Y0006055D01*
X0095195Y0005997D01*
X0095201Y0005937D01*
X0095203Y0005878D01*
X0095201Y0005817D01*
X0095195Y0005757D01*
X0095186Y0005696D01*
X0095173Y0005637D01*
X0095156Y0005579D01*
X0095136Y0005521D01*
X0095112Y0005465D01*
X0095084Y0005411D01*
X0095053Y0005359D01*
X0095019Y0005308D01*
X0094982Y0005260D01*
X0094943Y0005214D01*
X0094900Y0005171D01*
X0031613Y0227549D02*
X0033229Y0231994D01*
X0034600Y0230580D02*
X0034600Y0228963D01*
X0034602Y0228901D01*
X0034608Y0228839D01*
X0034617Y0228777D01*
X0034631Y0228717D01*
X0034648Y0228657D01*
X0034668Y0228598D01*
X0034692Y0228541D01*
X0034720Y0228485D01*
X0034751Y0228431D01*
X0034786Y0228379D01*
X0034823Y0228330D01*
X0034864Y0228283D01*
X0034907Y0228238D01*
X0034953Y0228196D01*
X0035001Y0228157D01*
X0035052Y0228121D01*
X0035105Y0228088D01*
X0035160Y0228059D01*
X0035216Y0228033D01*
X0035274Y0228010D01*
X0035334Y0227992D01*
X0035394Y0227976D01*
X0035455Y0227965D01*
X0035517Y0227957D01*
X0035579Y0227953D01*
X0035641Y0227953D01*
X0035703Y0227957D01*
X0035765Y0227965D01*
X0035826Y0227976D01*
X0035886Y0227992D01*
X0035946Y0228010D01*
X0036004Y0228033D01*
X0036060Y0228059D01*
X0036115Y0228088D01*
X0036168Y0228121D01*
X0036219Y0228157D01*
X0036267Y0228196D01*
X0036313Y0228238D01*
X0036356Y0228283D01*
X0036397Y0228330D01*
X0036434Y0228379D01*
X0036469Y0228431D01*
X0036500Y0228485D01*
X0036528Y0228541D01*
X0036552Y0228598D01*
X0036572Y0228657D01*
X0036589Y0228717D01*
X0036603Y0228777D01*
X0036612Y0228839D01*
X0036618Y0228901D01*
X0036620Y0228963D01*
X0036620Y0230580D01*
X0036618Y0230642D01*
X0036612Y0230704D01*
X0036603Y0230766D01*
X0036589Y0230826D01*
X0036572Y0230886D01*
X0036552Y0230945D01*
X0036528Y0231002D01*
X0036500Y0231058D01*
X0036469Y0231112D01*
X0036434Y0231164D01*
X0036397Y0231213D01*
X0036356Y0231260D01*
X0036313Y0231305D01*
X0036267Y0231347D01*
X0036219Y0231386D01*
X0036168Y0231422D01*
X0036115Y0231455D01*
X0036060Y0231484D01*
X0036004Y0231510D01*
X0035946Y0231533D01*
X0035886Y0231551D01*
X0035826Y0231567D01*
X0035765Y0231578D01*
X0035703Y0231586D01*
X0035641Y0231590D01*
X0035579Y0231590D01*
X0035517Y0231586D01*
X0035455Y0231578D01*
X0035394Y0231567D01*
X0035334Y0231551D01*
X0035274Y0231533D01*
X0035216Y0231510D01*
X0035160Y0231484D01*
X0035105Y0231455D01*
X0035052Y0231422D01*
X0035001Y0231386D01*
X0034953Y0231347D01*
X0034907Y0231305D01*
X0034864Y0231260D01*
X0034823Y0231213D01*
X0034786Y0231164D01*
X0034751Y0231112D01*
X0034720Y0231058D01*
X0034692Y0231002D01*
X0034668Y0230945D01*
X0034648Y0230886D01*
X0034631Y0230826D01*
X0034617Y0230766D01*
X0034608Y0230704D01*
X0034602Y0230642D01*
X0034600Y0230580D01*
X0038261Y0231590D02*
X0038261Y0228963D01*
X0038263Y0228901D01*
X0038269Y0228839D01*
X0038278Y0228777D01*
X0038292Y0228717D01*
X0038309Y0228657D01*
X0038329Y0228598D01*
X0038353Y0228541D01*
X0038381Y0228485D01*
X0038412Y0228431D01*
X0038447Y0228379D01*
X0038484Y0228330D01*
X0038525Y0228283D01*
X0038568Y0228238D01*
X0038614Y0228196D01*
X0038662Y0228157D01*
X0038713Y0228121D01*
X0038766Y0228088D01*
X0038821Y0228059D01*
X0038877Y0228033D01*
X0038935Y0228010D01*
X0038995Y0227992D01*
X0039055Y0227976D01*
X0039116Y0227965D01*
X0039178Y0227957D01*
X0039240Y0227953D01*
X0039302Y0227953D01*
X0039364Y0227957D01*
X0039426Y0227965D01*
X0039487Y0227976D01*
X0039547Y0227992D01*
X0039607Y0228010D01*
X0039665Y0228033D01*
X0039721Y0228059D01*
X0039776Y0228088D01*
X0039829Y0228121D01*
X0039880Y0228157D01*
X0039928Y0228196D01*
X0039974Y0228238D01*
X0040017Y0228283D01*
X0040058Y0228330D01*
X0040095Y0228379D01*
X0040130Y0228431D01*
X0040161Y0228485D01*
X0040189Y0228541D01*
X0040213Y0228598D01*
X0040233Y0228657D01*
X0040250Y0228717D01*
X0040264Y0228777D01*
X0040273Y0228839D01*
X0040279Y0228901D01*
X0040281Y0228963D01*
X0040282Y0228963D02*
X0040282Y0231590D01*
X0041686Y0231590D02*
X0043707Y0231590D01*
X0042696Y0231590D02*
X0042696Y0227953D01*
X0053419Y0228347D02*
X0054631Y0228347D01*
X0054686Y0228349D01*
X0054741Y0228355D01*
X0054795Y0228364D01*
X0054849Y0228377D01*
X0054902Y0228394D01*
X0054953Y0228414D01*
X0055003Y0228438D01*
X0055051Y0228465D01*
X0055097Y0228495D01*
X0055141Y0228528D01*
X0055182Y0228564D01*
X0055222Y0228603D01*
X0055258Y0228645D01*
X0055291Y0228689D01*
X0055321Y0228735D01*
X0055348Y0228783D01*
X0055372Y0228833D01*
X0055392Y0228884D01*
X0055409Y0228937D01*
X0055422Y0228991D01*
X0055431Y0229045D01*
X0055437Y0229100D01*
X0055439Y0229155D01*
X0055439Y0229559D01*
X0055437Y0229614D01*
X0055431Y0229669D01*
X0055422Y0229723D01*
X0055409Y0229777D01*
X0055392Y0229830D01*
X0055372Y0229881D01*
X0055348Y0229931D01*
X0055321Y0229979D01*
X0055291Y0230025D01*
X0055258Y0230069D01*
X0055222Y0230111D01*
X0055183Y0230150D01*
X0055141Y0230186D01*
X0055097Y0230219D01*
X0055051Y0230249D01*
X0055003Y0230276D01*
X0054953Y0230300D01*
X0054902Y0230320D01*
X0054849Y0230337D01*
X0054795Y0230350D01*
X0054741Y0230359D01*
X0054686Y0230365D01*
X0054631Y0230367D01*
X0053419Y0230367D01*
X0053419Y0231984D01*
X0055439Y0231984D01*
X0058426Y0232388D02*
X0056810Y0227943D01*
X0059694Y0228347D02*
X0060502Y0228347D01*
X0060098Y0228347D02*
X0060098Y0231984D01*
X0059694Y0231984D02*
X0060502Y0231984D01*
X0062041Y0231984D02*
X0062041Y0228347D01*
X0064061Y0228347D02*
X0062041Y0231984D01*
X0064061Y0231984D02*
X0064061Y0228347D01*
X0067592Y0228347D02*
X0068804Y0228347D01*
X0068859Y0228349D01*
X0068914Y0228355D01*
X0068968Y0228364D01*
X0069022Y0228377D01*
X0069075Y0228394D01*
X0069126Y0228414D01*
X0069176Y0228438D01*
X0069224Y0228465D01*
X0069270Y0228495D01*
X0069314Y0228528D01*
X0069355Y0228564D01*
X0069395Y0228603D01*
X0069431Y0228645D01*
X0069464Y0228689D01*
X0069494Y0228735D01*
X0069521Y0228783D01*
X0069545Y0228833D01*
X0069565Y0228884D01*
X0069582Y0228937D01*
X0069595Y0228991D01*
X0069604Y0229045D01*
X0069610Y0229100D01*
X0069612Y0229155D01*
X0069612Y0229559D01*
X0069610Y0229614D01*
X0069604Y0229669D01*
X0069595Y0229723D01*
X0069582Y0229777D01*
X0069565Y0229830D01*
X0069545Y0229881D01*
X0069521Y0229931D01*
X0069494Y0229979D01*
X0069464Y0230025D01*
X0069431Y0230069D01*
X0069395Y0230111D01*
X0069356Y0230150D01*
X0069314Y0230186D01*
X0069270Y0230219D01*
X0069224Y0230249D01*
X0069176Y0230276D01*
X0069126Y0230300D01*
X0069075Y0230320D01*
X0069022Y0230337D01*
X0068968Y0230350D01*
X0068914Y0230359D01*
X0068859Y0230365D01*
X0068804Y0230367D01*
X0067592Y0230367D01*
X0067592Y0231984D01*
X0069612Y0231984D01*
X0072599Y0232388D02*
X0070983Y0227943D01*
X0073970Y0229357D02*
X0073970Y0230974D01*
X0073972Y0231036D01*
X0073978Y0231098D01*
X0073987Y0231160D01*
X0074001Y0231220D01*
X0074018Y0231280D01*
X0074038Y0231339D01*
X0074062Y0231396D01*
X0074090Y0231452D01*
X0074121Y0231506D01*
X0074156Y0231558D01*
X0074193Y0231607D01*
X0074234Y0231654D01*
X0074277Y0231699D01*
X0074323Y0231741D01*
X0074371Y0231780D01*
X0074422Y0231816D01*
X0074475Y0231849D01*
X0074530Y0231878D01*
X0074586Y0231904D01*
X0074644Y0231927D01*
X0074704Y0231945D01*
X0074764Y0231961D01*
X0074825Y0231972D01*
X0074887Y0231980D01*
X0074949Y0231984D01*
X0075011Y0231984D01*
X0075073Y0231980D01*
X0075135Y0231972D01*
X0075196Y0231961D01*
X0075256Y0231945D01*
X0075316Y0231927D01*
X0075374Y0231904D01*
X0075430Y0231878D01*
X0075485Y0231849D01*
X0075538Y0231816D01*
X0075589Y0231780D01*
X0075637Y0231741D01*
X0075683Y0231699D01*
X0075726Y0231654D01*
X0075767Y0231607D01*
X0075804Y0231558D01*
X0075839Y0231506D01*
X0075870Y0231452D01*
X0075898Y0231396D01*
X0075922Y0231339D01*
X0075942Y0231280D01*
X0075959Y0231220D01*
X0075973Y0231160D01*
X0075982Y0231098D01*
X0075988Y0231036D01*
X0075990Y0230974D01*
X0075990Y0229357D01*
X0075988Y0229295D01*
X0075982Y0229233D01*
X0075973Y0229171D01*
X0075959Y0229111D01*
X0075942Y0229051D01*
X0075922Y0228992D01*
X0075898Y0228935D01*
X0075870Y0228879D01*
X0075839Y0228825D01*
X0075804Y0228773D01*
X0075767Y0228724D01*
X0075726Y0228677D01*
X0075683Y0228632D01*
X0075637Y0228590D01*
X0075589Y0228551D01*
X0075538Y0228515D01*
X0075485Y0228482D01*
X0075430Y0228453D01*
X0075374Y0228427D01*
X0075316Y0228404D01*
X0075256Y0228386D01*
X0075196Y0228370D01*
X0075135Y0228359D01*
X0075073Y0228351D01*
X0075011Y0228347D01*
X0074949Y0228347D01*
X0074887Y0228351D01*
X0074825Y0228359D01*
X0074764Y0228370D01*
X0074704Y0228386D01*
X0074644Y0228404D01*
X0074586Y0228427D01*
X0074530Y0228453D01*
X0074475Y0228482D01*
X0074422Y0228515D01*
X0074371Y0228551D01*
X0074323Y0228590D01*
X0074277Y0228632D01*
X0074234Y0228677D01*
X0074193Y0228724D01*
X0074156Y0228773D01*
X0074121Y0228825D01*
X0074090Y0228879D01*
X0074062Y0228935D01*
X0074038Y0228992D01*
X0074018Y0229051D01*
X0074001Y0229111D01*
X0073987Y0229171D01*
X0073978Y0229233D01*
X0073972Y0229295D01*
X0073970Y0229357D01*
X0077631Y0229357D02*
X0077631Y0231984D01*
X0079652Y0231984D02*
X0079652Y0229357D01*
X0079651Y0229357D02*
X0079649Y0229295D01*
X0079643Y0229233D01*
X0079634Y0229171D01*
X0079620Y0229111D01*
X0079603Y0229051D01*
X0079583Y0228992D01*
X0079559Y0228935D01*
X0079531Y0228879D01*
X0079500Y0228825D01*
X0079465Y0228773D01*
X0079428Y0228724D01*
X0079387Y0228677D01*
X0079344Y0228632D01*
X0079298Y0228590D01*
X0079250Y0228551D01*
X0079199Y0228515D01*
X0079146Y0228482D01*
X0079091Y0228453D01*
X0079035Y0228427D01*
X0078977Y0228404D01*
X0078917Y0228386D01*
X0078857Y0228370D01*
X0078796Y0228359D01*
X0078734Y0228351D01*
X0078672Y0228347D01*
X0078610Y0228347D01*
X0078548Y0228351D01*
X0078486Y0228359D01*
X0078425Y0228370D01*
X0078365Y0228386D01*
X0078305Y0228404D01*
X0078247Y0228427D01*
X0078191Y0228453D01*
X0078136Y0228482D01*
X0078083Y0228515D01*
X0078032Y0228551D01*
X0077984Y0228590D01*
X0077938Y0228632D01*
X0077895Y0228677D01*
X0077854Y0228724D01*
X0077817Y0228773D01*
X0077782Y0228825D01*
X0077751Y0228879D01*
X0077723Y0228935D01*
X0077699Y0228992D01*
X0077679Y0229051D01*
X0077662Y0229111D01*
X0077648Y0229171D01*
X0077639Y0229233D01*
X0077633Y0229295D01*
X0077631Y0229357D01*
X0081056Y0231984D02*
X0083077Y0231984D01*
X0082067Y0231984D02*
X0082067Y0228347D01*
X0093576Y0229357D02*
X0093576Y0230367D01*
X0094788Y0230367D01*
X0093576Y0230367D02*
X0093578Y0230446D01*
X0093584Y0230525D01*
X0093593Y0230604D01*
X0093607Y0230682D01*
X0093624Y0230760D01*
X0093646Y0230836D01*
X0093670Y0230911D01*
X0093699Y0230985D01*
X0093731Y0231058D01*
X0093767Y0231129D01*
X0093806Y0231198D01*
X0093848Y0231265D01*
X0093894Y0231330D01*
X0093943Y0231392D01*
X0093995Y0231452D01*
X0094049Y0231510D01*
X0094107Y0231564D01*
X0094167Y0231616D01*
X0094229Y0231665D01*
X0094294Y0231711D01*
X0094361Y0231753D01*
X0094430Y0231792D01*
X0094501Y0231828D01*
X0094574Y0231860D01*
X0094648Y0231889D01*
X0094723Y0231913D01*
X0094799Y0231935D01*
X0094877Y0231952D01*
X0094955Y0231966D01*
X0095034Y0231975D01*
X0095113Y0231981D01*
X0095192Y0231983D01*
X0094788Y0230367D02*
X0094843Y0230365D01*
X0094898Y0230359D01*
X0094952Y0230350D01*
X0095006Y0230337D01*
X0095059Y0230320D01*
X0095110Y0230300D01*
X0095160Y0230276D01*
X0095208Y0230249D01*
X0095254Y0230219D01*
X0095298Y0230186D01*
X0095340Y0230150D01*
X0095379Y0230111D01*
X0095415Y0230069D01*
X0095448Y0230025D01*
X0095478Y0229979D01*
X0095505Y0229931D01*
X0095529Y0229881D01*
X0095549Y0229830D01*
X0095566Y0229777D01*
X0095579Y0229723D01*
X0095588Y0229669D01*
X0095594Y0229614D01*
X0095596Y0229559D01*
X0095597Y0229559D02*
X0095597Y0229357D01*
X0095596Y0229357D02*
X0095594Y0229295D01*
X0095588Y0229233D01*
X0095579Y0229171D01*
X0095565Y0229111D01*
X0095548Y0229051D01*
X0095528Y0228992D01*
X0095504Y0228935D01*
X0095476Y0228879D01*
X0095445Y0228825D01*
X0095410Y0228773D01*
X0095373Y0228724D01*
X0095332Y0228677D01*
X0095289Y0228632D01*
X0095243Y0228590D01*
X0095195Y0228551D01*
X0095144Y0228515D01*
X0095091Y0228482D01*
X0095036Y0228453D01*
X0094980Y0228427D01*
X0094922Y0228404D01*
X0094862Y0228386D01*
X0094802Y0228370D01*
X0094741Y0228359D01*
X0094679Y0228351D01*
X0094617Y0228347D01*
X0094555Y0228347D01*
X0094493Y0228351D01*
X0094431Y0228359D01*
X0094370Y0228370D01*
X0094310Y0228386D01*
X0094250Y0228404D01*
X0094192Y0228427D01*
X0094136Y0228453D01*
X0094081Y0228482D01*
X0094028Y0228515D01*
X0093977Y0228551D01*
X0093929Y0228590D01*
X0093883Y0228632D01*
X0093840Y0228677D01*
X0093799Y0228724D01*
X0093762Y0228773D01*
X0093727Y0228825D01*
X0093696Y0228879D01*
X0093668Y0228935D01*
X0093644Y0228992D01*
X0093624Y0229051D01*
X0093607Y0229111D01*
X0093593Y0229171D01*
X0093584Y0229233D01*
X0093578Y0229295D01*
X0093576Y0229357D01*
X0096967Y0227943D02*
X0098583Y0232388D01*
X0099851Y0231984D02*
X0100660Y0231984D01*
X0100256Y0231984D02*
X0100256Y0228347D01*
X0100660Y0228347D02*
X0099851Y0228347D01*
X0102198Y0228347D02*
X0102198Y0231984D01*
X0104219Y0228347D01*
X0104219Y0231984D01*
X0107749Y0230367D02*
X0107749Y0229357D01*
X0107749Y0230367D02*
X0108962Y0230367D01*
X0107750Y0230367D02*
X0107752Y0230446D01*
X0107758Y0230525D01*
X0107767Y0230604D01*
X0107781Y0230682D01*
X0107798Y0230760D01*
X0107820Y0230836D01*
X0107844Y0230911D01*
X0107873Y0230985D01*
X0107905Y0231058D01*
X0107941Y0231129D01*
X0107980Y0231198D01*
X0108022Y0231265D01*
X0108068Y0231330D01*
X0108117Y0231392D01*
X0108169Y0231452D01*
X0108223Y0231510D01*
X0108281Y0231564D01*
X0108341Y0231616D01*
X0108403Y0231665D01*
X0108468Y0231711D01*
X0108535Y0231753D01*
X0108604Y0231792D01*
X0108675Y0231828D01*
X0108748Y0231860D01*
X0108822Y0231889D01*
X0108897Y0231913D01*
X0108973Y0231935D01*
X0109051Y0231952D01*
X0109129Y0231966D01*
X0109208Y0231975D01*
X0109287Y0231981D01*
X0109366Y0231983D01*
X0109770Y0229559D02*
X0109770Y0229357D01*
X0109770Y0229559D02*
X0109768Y0229614D01*
X0109762Y0229669D01*
X0109753Y0229723D01*
X0109740Y0229777D01*
X0109723Y0229830D01*
X0109703Y0229881D01*
X0109679Y0229931D01*
X0109652Y0229979D01*
X0109622Y0230025D01*
X0109589Y0230069D01*
X0109553Y0230111D01*
X0109514Y0230150D01*
X0109472Y0230186D01*
X0109428Y0230219D01*
X0109382Y0230249D01*
X0109334Y0230276D01*
X0109284Y0230300D01*
X0109233Y0230320D01*
X0109180Y0230337D01*
X0109126Y0230350D01*
X0109072Y0230359D01*
X0109017Y0230365D01*
X0108962Y0230367D01*
X0109769Y0229357D02*
X0109767Y0229295D01*
X0109761Y0229233D01*
X0109752Y0229171D01*
X0109738Y0229111D01*
X0109721Y0229051D01*
X0109701Y0228992D01*
X0109677Y0228935D01*
X0109649Y0228879D01*
X0109618Y0228825D01*
X0109583Y0228773D01*
X0109546Y0228724D01*
X0109505Y0228677D01*
X0109462Y0228632D01*
X0109416Y0228590D01*
X0109368Y0228551D01*
X0109317Y0228515D01*
X0109264Y0228482D01*
X0109209Y0228453D01*
X0109153Y0228427D01*
X0109095Y0228404D01*
X0109035Y0228386D01*
X0108975Y0228370D01*
X0108914Y0228359D01*
X0108852Y0228351D01*
X0108790Y0228347D01*
X0108728Y0228347D01*
X0108666Y0228351D01*
X0108604Y0228359D01*
X0108543Y0228370D01*
X0108483Y0228386D01*
X0108423Y0228404D01*
X0108365Y0228427D01*
X0108309Y0228453D01*
X0108254Y0228482D01*
X0108201Y0228515D01*
X0108150Y0228551D01*
X0108102Y0228590D01*
X0108056Y0228632D01*
X0108013Y0228677D01*
X0107972Y0228724D01*
X0107935Y0228773D01*
X0107900Y0228825D01*
X0107869Y0228879D01*
X0107841Y0228935D01*
X0107817Y0228992D01*
X0107797Y0229051D01*
X0107780Y0229111D01*
X0107766Y0229171D01*
X0107757Y0229233D01*
X0107751Y0229295D01*
X0107749Y0229357D01*
X0111140Y0227943D02*
X0112757Y0232388D01*
X0114127Y0230974D02*
X0114127Y0229357D01*
X0114129Y0229295D01*
X0114135Y0229233D01*
X0114144Y0229171D01*
X0114158Y0229111D01*
X0114175Y0229051D01*
X0114195Y0228992D01*
X0114219Y0228935D01*
X0114247Y0228879D01*
X0114278Y0228825D01*
X0114313Y0228773D01*
X0114350Y0228724D01*
X0114391Y0228677D01*
X0114434Y0228632D01*
X0114480Y0228590D01*
X0114528Y0228551D01*
X0114579Y0228515D01*
X0114632Y0228482D01*
X0114687Y0228453D01*
X0114743Y0228427D01*
X0114801Y0228404D01*
X0114861Y0228386D01*
X0114921Y0228370D01*
X0114982Y0228359D01*
X0115044Y0228351D01*
X0115106Y0228347D01*
X0115168Y0228347D01*
X0115230Y0228351D01*
X0115292Y0228359D01*
X0115353Y0228370D01*
X0115413Y0228386D01*
X0115473Y0228404D01*
X0115531Y0228427D01*
X0115587Y0228453D01*
X0115642Y0228482D01*
X0115695Y0228515D01*
X0115746Y0228551D01*
X0115794Y0228590D01*
X0115840Y0228632D01*
X0115883Y0228677D01*
X0115924Y0228724D01*
X0115961Y0228773D01*
X0115996Y0228825D01*
X0116027Y0228879D01*
X0116055Y0228935D01*
X0116079Y0228992D01*
X0116099Y0229051D01*
X0116116Y0229111D01*
X0116130Y0229171D01*
X0116139Y0229233D01*
X0116145Y0229295D01*
X0116147Y0229357D01*
X0116148Y0229357D02*
X0116148Y0230974D01*
X0116147Y0230974D02*
X0116145Y0231036D01*
X0116139Y0231098D01*
X0116130Y0231160D01*
X0116116Y0231220D01*
X0116099Y0231280D01*
X0116079Y0231339D01*
X0116055Y0231396D01*
X0116027Y0231452D01*
X0115996Y0231506D01*
X0115961Y0231558D01*
X0115924Y0231607D01*
X0115883Y0231654D01*
X0115840Y0231699D01*
X0115794Y0231741D01*
X0115746Y0231780D01*
X0115695Y0231816D01*
X0115642Y0231849D01*
X0115587Y0231878D01*
X0115531Y0231904D01*
X0115473Y0231927D01*
X0115413Y0231945D01*
X0115353Y0231961D01*
X0115292Y0231972D01*
X0115230Y0231980D01*
X0115168Y0231984D01*
X0115106Y0231984D01*
X0115044Y0231980D01*
X0114982Y0231972D01*
X0114921Y0231961D01*
X0114861Y0231945D01*
X0114801Y0231927D01*
X0114743Y0231904D01*
X0114687Y0231878D01*
X0114632Y0231849D01*
X0114579Y0231816D01*
X0114528Y0231780D01*
X0114480Y0231741D01*
X0114434Y0231699D01*
X0114391Y0231654D01*
X0114350Y0231607D01*
X0114313Y0231558D01*
X0114278Y0231506D01*
X0114247Y0231452D01*
X0114219Y0231396D01*
X0114195Y0231339D01*
X0114175Y0231280D01*
X0114158Y0231220D01*
X0114144Y0231160D01*
X0114135Y0231098D01*
X0114129Y0231036D01*
X0114127Y0230974D01*
X0117789Y0231984D02*
X0117789Y0229357D01*
X0117791Y0229295D01*
X0117797Y0229233D01*
X0117806Y0229171D01*
X0117820Y0229111D01*
X0117837Y0229051D01*
X0117857Y0228992D01*
X0117881Y0228935D01*
X0117909Y0228879D01*
X0117940Y0228825D01*
X0117975Y0228773D01*
X0118012Y0228724D01*
X0118053Y0228677D01*
X0118096Y0228632D01*
X0118142Y0228590D01*
X0118190Y0228551D01*
X0118241Y0228515D01*
X0118294Y0228482D01*
X0118349Y0228453D01*
X0118405Y0228427D01*
X0118463Y0228404D01*
X0118523Y0228386D01*
X0118583Y0228370D01*
X0118644Y0228359D01*
X0118706Y0228351D01*
X0118768Y0228347D01*
X0118830Y0228347D01*
X0118892Y0228351D01*
X0118954Y0228359D01*
X0119015Y0228370D01*
X0119075Y0228386D01*
X0119135Y0228404D01*
X0119193Y0228427D01*
X0119249Y0228453D01*
X0119304Y0228482D01*
X0119357Y0228515D01*
X0119408Y0228551D01*
X0119456Y0228590D01*
X0119502Y0228632D01*
X0119545Y0228677D01*
X0119586Y0228724D01*
X0119623Y0228773D01*
X0119658Y0228825D01*
X0119689Y0228879D01*
X0119717Y0228935D01*
X0119741Y0228992D01*
X0119761Y0229051D01*
X0119778Y0229111D01*
X0119792Y0229171D01*
X0119801Y0229233D01*
X0119807Y0229295D01*
X0119809Y0229357D01*
X0119809Y0231984D01*
X0121214Y0231984D02*
X0123234Y0231984D01*
X0122224Y0231984D02*
X0122224Y0228347D01*
X0134521Y0231580D02*
X0134521Y0231984D01*
X0136541Y0231984D01*
X0135531Y0228347D01*
X0137912Y0227943D02*
X0139528Y0232388D01*
X0140796Y0231984D02*
X0141605Y0231984D01*
X0141200Y0231984D02*
X0141200Y0228347D01*
X0140796Y0228347D02*
X0141605Y0228347D01*
X0143143Y0228347D02*
X0143143Y0231984D01*
X0145163Y0228347D01*
X0145163Y0231984D01*
X0148694Y0231984D02*
X0150715Y0231984D01*
X0149704Y0228347D01*
X0152085Y0227943D02*
X0153702Y0232388D01*
X0155072Y0230974D02*
X0155072Y0229357D01*
X0155074Y0229295D01*
X0155080Y0229233D01*
X0155089Y0229171D01*
X0155103Y0229111D01*
X0155120Y0229051D01*
X0155140Y0228992D01*
X0155164Y0228935D01*
X0155192Y0228879D01*
X0155223Y0228825D01*
X0155258Y0228773D01*
X0155295Y0228724D01*
X0155336Y0228677D01*
X0155379Y0228632D01*
X0155425Y0228590D01*
X0155473Y0228551D01*
X0155524Y0228515D01*
X0155577Y0228482D01*
X0155632Y0228453D01*
X0155688Y0228427D01*
X0155746Y0228404D01*
X0155806Y0228386D01*
X0155866Y0228370D01*
X0155927Y0228359D01*
X0155989Y0228351D01*
X0156051Y0228347D01*
X0156113Y0228347D01*
X0156175Y0228351D01*
X0156237Y0228359D01*
X0156298Y0228370D01*
X0156358Y0228386D01*
X0156418Y0228404D01*
X0156476Y0228427D01*
X0156532Y0228453D01*
X0156587Y0228482D01*
X0156640Y0228515D01*
X0156691Y0228551D01*
X0156739Y0228590D01*
X0156785Y0228632D01*
X0156828Y0228677D01*
X0156869Y0228724D01*
X0156906Y0228773D01*
X0156941Y0228825D01*
X0156972Y0228879D01*
X0157000Y0228935D01*
X0157024Y0228992D01*
X0157044Y0229051D01*
X0157061Y0229111D01*
X0157075Y0229171D01*
X0157084Y0229233D01*
X0157090Y0229295D01*
X0157092Y0229357D01*
X0157093Y0229357D02*
X0157093Y0230974D01*
X0157092Y0230974D02*
X0157090Y0231036D01*
X0157084Y0231098D01*
X0157075Y0231160D01*
X0157061Y0231220D01*
X0157044Y0231280D01*
X0157024Y0231339D01*
X0157000Y0231396D01*
X0156972Y0231452D01*
X0156941Y0231506D01*
X0156906Y0231558D01*
X0156869Y0231607D01*
X0156828Y0231654D01*
X0156785Y0231699D01*
X0156739Y0231741D01*
X0156691Y0231780D01*
X0156640Y0231816D01*
X0156587Y0231849D01*
X0156532Y0231878D01*
X0156476Y0231904D01*
X0156418Y0231927D01*
X0156358Y0231945D01*
X0156298Y0231961D01*
X0156237Y0231972D01*
X0156175Y0231980D01*
X0156113Y0231984D01*
X0156051Y0231984D01*
X0155989Y0231980D01*
X0155927Y0231972D01*
X0155866Y0231961D01*
X0155806Y0231945D01*
X0155746Y0231927D01*
X0155688Y0231904D01*
X0155632Y0231878D01*
X0155577Y0231849D01*
X0155524Y0231816D01*
X0155473Y0231780D01*
X0155425Y0231741D01*
X0155379Y0231699D01*
X0155336Y0231654D01*
X0155295Y0231607D01*
X0155258Y0231558D01*
X0155223Y0231506D01*
X0155192Y0231452D01*
X0155164Y0231396D01*
X0155140Y0231339D01*
X0155120Y0231280D01*
X0155103Y0231220D01*
X0155089Y0231160D01*
X0155080Y0231098D01*
X0155074Y0231036D01*
X0155072Y0230974D01*
X0158733Y0231984D02*
X0158733Y0229357D01*
X0158734Y0229357D02*
X0158736Y0229295D01*
X0158742Y0229233D01*
X0158751Y0229171D01*
X0158765Y0229111D01*
X0158782Y0229051D01*
X0158802Y0228992D01*
X0158826Y0228935D01*
X0158854Y0228879D01*
X0158885Y0228825D01*
X0158920Y0228773D01*
X0158957Y0228724D01*
X0158998Y0228677D01*
X0159041Y0228632D01*
X0159087Y0228590D01*
X0159135Y0228551D01*
X0159186Y0228515D01*
X0159239Y0228482D01*
X0159294Y0228453D01*
X0159350Y0228427D01*
X0159408Y0228404D01*
X0159468Y0228386D01*
X0159528Y0228370D01*
X0159589Y0228359D01*
X0159651Y0228351D01*
X0159713Y0228347D01*
X0159775Y0228347D01*
X0159837Y0228351D01*
X0159899Y0228359D01*
X0159960Y0228370D01*
X0160020Y0228386D01*
X0160080Y0228404D01*
X0160138Y0228427D01*
X0160194Y0228453D01*
X0160249Y0228482D01*
X0160302Y0228515D01*
X0160353Y0228551D01*
X0160401Y0228590D01*
X0160447Y0228632D01*
X0160490Y0228677D01*
X0160531Y0228724D01*
X0160568Y0228773D01*
X0160603Y0228825D01*
X0160634Y0228879D01*
X0160662Y0228935D01*
X0160686Y0228992D01*
X0160706Y0229051D01*
X0160723Y0229111D01*
X0160737Y0229171D01*
X0160746Y0229233D01*
X0160752Y0229295D01*
X0160754Y0229357D01*
X0160754Y0231984D01*
X0162159Y0231984D02*
X0164179Y0231984D01*
X0163169Y0231984D02*
X0163169Y0228347D01*
X0148694Y0231580D02*
X0148694Y0231984D01*
X0030242Y0228761D02*
X0028222Y0228761D01*
X0029030Y0231590D01*
X0029636Y0229570D02*
X0029636Y0227953D01*
X0024691Y0227953D02*
X0024691Y0231590D01*
X0022670Y0231590D02*
X0024691Y0227953D01*
X0022670Y0227953D02*
X0022670Y0231590D01*
X0021132Y0231590D02*
X0020324Y0231590D01*
X0020728Y0231590D02*
X0020728Y0227953D01*
X0020324Y0227953D02*
X0021132Y0227953D01*
X0017439Y0227549D02*
X0019056Y0231994D01*
X0016069Y0228761D02*
X0014048Y0228761D01*
X0014857Y0231590D01*
X0015463Y0229570D02*
X0015463Y0227953D01*
D12*
X0162087Y0154476D02*
X0162087Y0149476D01*
X0164587Y0146976D01*
X0169587Y0146976D01*
X0172087Y0149476D01*
X0172087Y0154476D01*
X0169587Y0156976D01*
X0164587Y0156976D01*
X0162087Y0154476D01*
X0164587Y0146976D02*
X0162087Y0144476D01*
X0162087Y0139476D01*
X0164587Y0136976D01*
X0169587Y0136976D01*
X0172087Y0134476D01*
X0172087Y0129476D01*
X0169587Y0126976D01*
X0172087Y0124476D01*
X0172087Y0119476D01*
X0169587Y0116976D01*
X0164587Y0116976D01*
X0162087Y0119476D01*
X0162087Y0124476D01*
X0164587Y0126976D01*
X0162087Y0129476D01*
X0162087Y0134476D01*
X0164587Y0136976D01*
X0169587Y0136976D02*
X0172087Y0139476D01*
X0172087Y0144476D01*
X0169587Y0146976D01*
X0169587Y0126976D02*
X0164587Y0126976D01*
D13*
X0159371Y0124732D02*
X0157402Y0124732D01*
X0159371Y0124732D02*
X0159371Y0148354D01*
X0157402Y0148354D01*
X0155434Y0141465D02*
X0155434Y0131622D01*
X0149528Y0131819D02*
X0149528Y0141465D01*
X0147560Y0148354D02*
X0145591Y0148354D01*
X0145591Y0124732D01*
X0147560Y0124732D01*
X0147661Y0115437D02*
X0141654Y0115437D01*
X0141654Y0075437D01*
X0147661Y0075437D01*
X0149563Y0075437D01*
X0165298Y0075437D01*
X0167237Y0075437D01*
X0167237Y0115437D01*
X0169914Y0115437D01*
X0172363Y0115437D01*
X0173544Y0115437D01*
X0173544Y0075437D01*
X0172363Y0075437D01*
X0172363Y0115437D01*
X0169914Y0115437D02*
X0169914Y0075437D01*
X0170698Y0075437D01*
X0172363Y0075437D01*
X0171288Y0074228D02*
X0170698Y0074930D01*
X0170698Y0075437D01*
X0169914Y0075437D02*
X0169068Y0075437D01*
X0167237Y0075437D01*
X0168477Y0074228D02*
X0169068Y0074930D01*
X0169068Y0075437D01*
X0168477Y0074228D02*
X0168477Y0073193D01*
X0171288Y0073193D01*
X0171288Y0074228D01*
X0149962Y0085437D02*
X0149964Y0085622D01*
X0149971Y0085807D01*
X0149982Y0085992D01*
X0149998Y0086176D01*
X0150019Y0086360D01*
X0150044Y0086543D01*
X0150073Y0086726D01*
X0150107Y0086908D01*
X0150145Y0087089D01*
X0150188Y0087269D01*
X0150235Y0087448D01*
X0150287Y0087625D01*
X0150343Y0087802D01*
X0150403Y0087977D01*
X0150467Y0088150D01*
X0150536Y0088322D01*
X0150609Y0088492D01*
X0150686Y0088660D01*
X0150767Y0088827D01*
X0150852Y0088991D01*
X0150941Y0089153D01*
X0151035Y0089313D01*
X0151132Y0089470D01*
X0151233Y0089625D01*
X0151337Y0089778D01*
X0151446Y0089928D01*
X0151558Y0090075D01*
X0151673Y0090220D01*
X0151792Y0090361D01*
X0151915Y0090500D01*
X0152041Y0090635D01*
X0152170Y0090768D01*
X0152303Y0090897D01*
X0152438Y0091023D01*
X0152577Y0091146D01*
X0152718Y0091265D01*
X0152863Y0091380D01*
X0153010Y0091492D01*
X0153160Y0091601D01*
X0153313Y0091705D01*
X0153468Y0091806D01*
X0153625Y0091903D01*
X0153785Y0091997D01*
X0153947Y0092086D01*
X0154111Y0092171D01*
X0154278Y0092252D01*
X0154446Y0092329D01*
X0154616Y0092402D01*
X0154788Y0092471D01*
X0154961Y0092535D01*
X0155136Y0092595D01*
X0155313Y0092651D01*
X0155490Y0092703D01*
X0155669Y0092750D01*
X0155849Y0092793D01*
X0156030Y0092831D01*
X0156212Y0092865D01*
X0156395Y0092894D01*
X0156578Y0092919D01*
X0156762Y0092940D01*
X0156946Y0092956D01*
X0157131Y0092967D01*
X0157316Y0092974D01*
X0157501Y0092976D01*
X0157686Y0092974D01*
X0157871Y0092967D01*
X0158056Y0092956D01*
X0158240Y0092940D01*
X0158424Y0092919D01*
X0158607Y0092894D01*
X0158790Y0092865D01*
X0158972Y0092831D01*
X0159153Y0092793D01*
X0159333Y0092750D01*
X0159512Y0092703D01*
X0159689Y0092651D01*
X0159866Y0092595D01*
X0160041Y0092535D01*
X0160214Y0092471D01*
X0160386Y0092402D01*
X0160556Y0092329D01*
X0160724Y0092252D01*
X0160891Y0092171D01*
X0161055Y0092086D01*
X0161217Y0091997D01*
X0161377Y0091903D01*
X0161534Y0091806D01*
X0161689Y0091705D01*
X0161842Y0091601D01*
X0161992Y0091492D01*
X0162139Y0091380D01*
X0162284Y0091265D01*
X0162425Y0091146D01*
X0162564Y0091023D01*
X0162699Y0090897D01*
X0162832Y0090768D01*
X0162961Y0090635D01*
X0163087Y0090500D01*
X0163210Y0090361D01*
X0163329Y0090220D01*
X0163444Y0090075D01*
X0163556Y0089928D01*
X0163665Y0089778D01*
X0163769Y0089625D01*
X0163870Y0089470D01*
X0163967Y0089313D01*
X0164061Y0089153D01*
X0164150Y0088991D01*
X0164235Y0088827D01*
X0164316Y0088660D01*
X0164393Y0088492D01*
X0164466Y0088322D01*
X0164535Y0088150D01*
X0164599Y0087977D01*
X0164659Y0087802D01*
X0164715Y0087625D01*
X0164767Y0087448D01*
X0164814Y0087269D01*
X0164857Y0087089D01*
X0164895Y0086908D01*
X0164929Y0086726D01*
X0164958Y0086543D01*
X0164983Y0086360D01*
X0165004Y0086176D01*
X0165020Y0085992D01*
X0165031Y0085807D01*
X0165038Y0085622D01*
X0165040Y0085437D01*
X0165038Y0085252D01*
X0165031Y0085067D01*
X0165020Y0084882D01*
X0165004Y0084698D01*
X0164983Y0084514D01*
X0164958Y0084331D01*
X0164929Y0084148D01*
X0164895Y0083966D01*
X0164857Y0083785D01*
X0164814Y0083605D01*
X0164767Y0083426D01*
X0164715Y0083249D01*
X0164659Y0083072D01*
X0164599Y0082897D01*
X0164535Y0082724D01*
X0164466Y0082552D01*
X0164393Y0082382D01*
X0164316Y0082214D01*
X0164235Y0082047D01*
X0164150Y0081883D01*
X0164061Y0081721D01*
X0163967Y0081561D01*
X0163870Y0081404D01*
X0163769Y0081249D01*
X0163665Y0081096D01*
X0163556Y0080946D01*
X0163444Y0080799D01*
X0163329Y0080654D01*
X0163210Y0080513D01*
X0163087Y0080374D01*
X0162961Y0080239D01*
X0162832Y0080106D01*
X0162699Y0079977D01*
X0162564Y0079851D01*
X0162425Y0079728D01*
X0162284Y0079609D01*
X0162139Y0079494D01*
X0161992Y0079382D01*
X0161842Y0079273D01*
X0161689Y0079169D01*
X0161534Y0079068D01*
X0161377Y0078971D01*
X0161217Y0078877D01*
X0161055Y0078788D01*
X0160891Y0078703D01*
X0160724Y0078622D01*
X0160556Y0078545D01*
X0160386Y0078472D01*
X0160214Y0078403D01*
X0160041Y0078339D01*
X0159866Y0078279D01*
X0159689Y0078223D01*
X0159512Y0078171D01*
X0159333Y0078124D01*
X0159153Y0078081D01*
X0158972Y0078043D01*
X0158790Y0078009D01*
X0158607Y0077980D01*
X0158424Y0077955D01*
X0158240Y0077934D01*
X0158056Y0077918D01*
X0157871Y0077907D01*
X0157686Y0077900D01*
X0157501Y0077898D01*
X0157316Y0077900D01*
X0157131Y0077907D01*
X0156946Y0077918D01*
X0156762Y0077934D01*
X0156578Y0077955D01*
X0156395Y0077980D01*
X0156212Y0078009D01*
X0156030Y0078043D01*
X0155849Y0078081D01*
X0155669Y0078124D01*
X0155490Y0078171D01*
X0155313Y0078223D01*
X0155136Y0078279D01*
X0154961Y0078339D01*
X0154788Y0078403D01*
X0154616Y0078472D01*
X0154446Y0078545D01*
X0154278Y0078622D01*
X0154111Y0078703D01*
X0153947Y0078788D01*
X0153785Y0078877D01*
X0153625Y0078971D01*
X0153468Y0079068D01*
X0153313Y0079169D01*
X0153160Y0079273D01*
X0153010Y0079382D01*
X0152863Y0079494D01*
X0152718Y0079609D01*
X0152577Y0079728D01*
X0152438Y0079851D01*
X0152303Y0079977D01*
X0152170Y0080106D01*
X0152041Y0080239D01*
X0151915Y0080374D01*
X0151792Y0080513D01*
X0151673Y0080654D01*
X0151558Y0080799D01*
X0151446Y0080946D01*
X0151337Y0081096D01*
X0151233Y0081249D01*
X0151132Y0081404D01*
X0151035Y0081561D01*
X0150941Y0081721D01*
X0150852Y0081883D01*
X0150767Y0082047D01*
X0150686Y0082214D01*
X0150609Y0082382D01*
X0150536Y0082552D01*
X0150467Y0082724D01*
X0150403Y0082897D01*
X0150343Y0083072D01*
X0150287Y0083249D01*
X0150235Y0083426D01*
X0150188Y0083605D01*
X0150145Y0083785D01*
X0150107Y0083966D01*
X0150073Y0084148D01*
X0150044Y0084331D01*
X0150019Y0084514D01*
X0149998Y0084698D01*
X0149982Y0084882D01*
X0149971Y0085067D01*
X0149964Y0085252D01*
X0149962Y0085437D01*
X0147661Y0075437D02*
X0147661Y0115437D01*
X0149563Y0115437D01*
X0165298Y0115437D01*
X0167237Y0115437D01*
X0149962Y0105437D02*
X0149964Y0105622D01*
X0149971Y0105807D01*
X0149982Y0105992D01*
X0149998Y0106176D01*
X0150019Y0106360D01*
X0150044Y0106543D01*
X0150073Y0106726D01*
X0150107Y0106908D01*
X0150145Y0107089D01*
X0150188Y0107269D01*
X0150235Y0107448D01*
X0150287Y0107625D01*
X0150343Y0107802D01*
X0150403Y0107977D01*
X0150467Y0108150D01*
X0150536Y0108322D01*
X0150609Y0108492D01*
X0150686Y0108660D01*
X0150767Y0108827D01*
X0150852Y0108991D01*
X0150941Y0109153D01*
X0151035Y0109313D01*
X0151132Y0109470D01*
X0151233Y0109625D01*
X0151337Y0109778D01*
X0151446Y0109928D01*
X0151558Y0110075D01*
X0151673Y0110220D01*
X0151792Y0110361D01*
X0151915Y0110500D01*
X0152041Y0110635D01*
X0152170Y0110768D01*
X0152303Y0110897D01*
X0152438Y0111023D01*
X0152577Y0111146D01*
X0152718Y0111265D01*
X0152863Y0111380D01*
X0153010Y0111492D01*
X0153160Y0111601D01*
X0153313Y0111705D01*
X0153468Y0111806D01*
X0153625Y0111903D01*
X0153785Y0111997D01*
X0153947Y0112086D01*
X0154111Y0112171D01*
X0154278Y0112252D01*
X0154446Y0112329D01*
X0154616Y0112402D01*
X0154788Y0112471D01*
X0154961Y0112535D01*
X0155136Y0112595D01*
X0155313Y0112651D01*
X0155490Y0112703D01*
X0155669Y0112750D01*
X0155849Y0112793D01*
X0156030Y0112831D01*
X0156212Y0112865D01*
X0156395Y0112894D01*
X0156578Y0112919D01*
X0156762Y0112940D01*
X0156946Y0112956D01*
X0157131Y0112967D01*
X0157316Y0112974D01*
X0157501Y0112976D01*
X0157686Y0112974D01*
X0157871Y0112967D01*
X0158056Y0112956D01*
X0158240Y0112940D01*
X0158424Y0112919D01*
X0158607Y0112894D01*
X0158790Y0112865D01*
X0158972Y0112831D01*
X0159153Y0112793D01*
X0159333Y0112750D01*
X0159512Y0112703D01*
X0159689Y0112651D01*
X0159866Y0112595D01*
X0160041Y0112535D01*
X0160214Y0112471D01*
X0160386Y0112402D01*
X0160556Y0112329D01*
X0160724Y0112252D01*
X0160891Y0112171D01*
X0161055Y0112086D01*
X0161217Y0111997D01*
X0161377Y0111903D01*
X0161534Y0111806D01*
X0161689Y0111705D01*
X0161842Y0111601D01*
X0161992Y0111492D01*
X0162139Y0111380D01*
X0162284Y0111265D01*
X0162425Y0111146D01*
X0162564Y0111023D01*
X0162699Y0110897D01*
X0162832Y0110768D01*
X0162961Y0110635D01*
X0163087Y0110500D01*
X0163210Y0110361D01*
X0163329Y0110220D01*
X0163444Y0110075D01*
X0163556Y0109928D01*
X0163665Y0109778D01*
X0163769Y0109625D01*
X0163870Y0109470D01*
X0163967Y0109313D01*
X0164061Y0109153D01*
X0164150Y0108991D01*
X0164235Y0108827D01*
X0164316Y0108660D01*
X0164393Y0108492D01*
X0164466Y0108322D01*
X0164535Y0108150D01*
X0164599Y0107977D01*
X0164659Y0107802D01*
X0164715Y0107625D01*
X0164767Y0107448D01*
X0164814Y0107269D01*
X0164857Y0107089D01*
X0164895Y0106908D01*
X0164929Y0106726D01*
X0164958Y0106543D01*
X0164983Y0106360D01*
X0165004Y0106176D01*
X0165020Y0105992D01*
X0165031Y0105807D01*
X0165038Y0105622D01*
X0165040Y0105437D01*
X0165038Y0105252D01*
X0165031Y0105067D01*
X0165020Y0104882D01*
X0165004Y0104698D01*
X0164983Y0104514D01*
X0164958Y0104331D01*
X0164929Y0104148D01*
X0164895Y0103966D01*
X0164857Y0103785D01*
X0164814Y0103605D01*
X0164767Y0103426D01*
X0164715Y0103249D01*
X0164659Y0103072D01*
X0164599Y0102897D01*
X0164535Y0102724D01*
X0164466Y0102552D01*
X0164393Y0102382D01*
X0164316Y0102214D01*
X0164235Y0102047D01*
X0164150Y0101883D01*
X0164061Y0101721D01*
X0163967Y0101561D01*
X0163870Y0101404D01*
X0163769Y0101249D01*
X0163665Y0101096D01*
X0163556Y0100946D01*
X0163444Y0100799D01*
X0163329Y0100654D01*
X0163210Y0100513D01*
X0163087Y0100374D01*
X0162961Y0100239D01*
X0162832Y0100106D01*
X0162699Y0099977D01*
X0162564Y0099851D01*
X0162425Y0099728D01*
X0162284Y0099609D01*
X0162139Y0099494D01*
X0161992Y0099382D01*
X0161842Y0099273D01*
X0161689Y0099169D01*
X0161534Y0099068D01*
X0161377Y0098971D01*
X0161217Y0098877D01*
X0161055Y0098788D01*
X0160891Y0098703D01*
X0160724Y0098622D01*
X0160556Y0098545D01*
X0160386Y0098472D01*
X0160214Y0098403D01*
X0160041Y0098339D01*
X0159866Y0098279D01*
X0159689Y0098223D01*
X0159512Y0098171D01*
X0159333Y0098124D01*
X0159153Y0098081D01*
X0158972Y0098043D01*
X0158790Y0098009D01*
X0158607Y0097980D01*
X0158424Y0097955D01*
X0158240Y0097934D01*
X0158056Y0097918D01*
X0157871Y0097907D01*
X0157686Y0097900D01*
X0157501Y0097898D01*
X0157316Y0097900D01*
X0157131Y0097907D01*
X0156946Y0097918D01*
X0156762Y0097934D01*
X0156578Y0097955D01*
X0156395Y0097980D01*
X0156212Y0098009D01*
X0156030Y0098043D01*
X0155849Y0098081D01*
X0155669Y0098124D01*
X0155490Y0098171D01*
X0155313Y0098223D01*
X0155136Y0098279D01*
X0154961Y0098339D01*
X0154788Y0098403D01*
X0154616Y0098472D01*
X0154446Y0098545D01*
X0154278Y0098622D01*
X0154111Y0098703D01*
X0153947Y0098788D01*
X0153785Y0098877D01*
X0153625Y0098971D01*
X0153468Y0099068D01*
X0153313Y0099169D01*
X0153160Y0099273D01*
X0153010Y0099382D01*
X0152863Y0099494D01*
X0152718Y0099609D01*
X0152577Y0099728D01*
X0152438Y0099851D01*
X0152303Y0099977D01*
X0152170Y0100106D01*
X0152041Y0100239D01*
X0151915Y0100374D01*
X0151792Y0100513D01*
X0151673Y0100654D01*
X0151558Y0100799D01*
X0151446Y0100946D01*
X0151337Y0101096D01*
X0151233Y0101249D01*
X0151132Y0101404D01*
X0151035Y0101561D01*
X0150941Y0101721D01*
X0150852Y0101883D01*
X0150767Y0102047D01*
X0150686Y0102214D01*
X0150609Y0102382D01*
X0150536Y0102552D01*
X0150467Y0102724D01*
X0150403Y0102897D01*
X0150343Y0103072D01*
X0150287Y0103249D01*
X0150235Y0103426D01*
X0150188Y0103605D01*
X0150145Y0103785D01*
X0150107Y0103966D01*
X0150073Y0104148D01*
X0150044Y0104331D01*
X0150019Y0104514D01*
X0149998Y0104698D01*
X0149982Y0104882D01*
X0149971Y0105067D01*
X0149964Y0105252D01*
X0149962Y0105437D01*
X0167870Y0039496D02*
X0007870Y0039496D01*
X0007870Y0033489D01*
X0007870Y0031588D01*
X0007870Y0015852D01*
X0007870Y0013914D01*
X0167870Y0013914D01*
X0167870Y0011237D01*
X0167870Y0008787D01*
X0167870Y0007606D01*
X0007870Y0007606D01*
X0007870Y0008787D01*
X0167870Y0008787D01*
X0167870Y0011237D02*
X0007870Y0011237D01*
X0007870Y0010453D01*
X0007870Y0008787D01*
X0006662Y0009862D02*
X0007364Y0010453D01*
X0007870Y0010453D01*
X0007870Y0011237D02*
X0007870Y0012083D01*
X0007870Y0013914D01*
X0006662Y0012673D02*
X0007364Y0012083D01*
X0007870Y0012083D01*
X0006662Y0012673D02*
X0005626Y0012673D01*
X0005626Y0009862D01*
X0006662Y0009862D01*
X0010331Y0023650D02*
X0010333Y0023835D01*
X0010340Y0024020D01*
X0010351Y0024205D01*
X0010367Y0024389D01*
X0010388Y0024573D01*
X0010413Y0024756D01*
X0010442Y0024939D01*
X0010476Y0025121D01*
X0010514Y0025302D01*
X0010557Y0025482D01*
X0010604Y0025661D01*
X0010656Y0025838D01*
X0010712Y0026015D01*
X0010772Y0026190D01*
X0010836Y0026363D01*
X0010905Y0026535D01*
X0010978Y0026705D01*
X0011055Y0026873D01*
X0011136Y0027040D01*
X0011221Y0027204D01*
X0011310Y0027366D01*
X0011404Y0027526D01*
X0011501Y0027683D01*
X0011602Y0027838D01*
X0011706Y0027991D01*
X0011815Y0028141D01*
X0011927Y0028288D01*
X0012042Y0028433D01*
X0012161Y0028574D01*
X0012284Y0028713D01*
X0012410Y0028848D01*
X0012539Y0028981D01*
X0012672Y0029110D01*
X0012807Y0029236D01*
X0012946Y0029359D01*
X0013087Y0029478D01*
X0013232Y0029593D01*
X0013379Y0029705D01*
X0013529Y0029814D01*
X0013682Y0029918D01*
X0013837Y0030019D01*
X0013994Y0030116D01*
X0014154Y0030210D01*
X0014316Y0030299D01*
X0014480Y0030384D01*
X0014647Y0030465D01*
X0014815Y0030542D01*
X0014985Y0030615D01*
X0015157Y0030684D01*
X0015330Y0030748D01*
X0015505Y0030808D01*
X0015682Y0030864D01*
X0015859Y0030916D01*
X0016038Y0030963D01*
X0016218Y0031006D01*
X0016399Y0031044D01*
X0016581Y0031078D01*
X0016764Y0031107D01*
X0016947Y0031132D01*
X0017131Y0031153D01*
X0017315Y0031169D01*
X0017500Y0031180D01*
X0017685Y0031187D01*
X0017870Y0031189D01*
X0018055Y0031187D01*
X0018240Y0031180D01*
X0018425Y0031169D01*
X0018609Y0031153D01*
X0018793Y0031132D01*
X0018976Y0031107D01*
X0019159Y0031078D01*
X0019341Y0031044D01*
X0019522Y0031006D01*
X0019702Y0030963D01*
X0019881Y0030916D01*
X0020058Y0030864D01*
X0020235Y0030808D01*
X0020410Y0030748D01*
X0020583Y0030684D01*
X0020755Y0030615D01*
X0020925Y0030542D01*
X0021093Y0030465D01*
X0021260Y0030384D01*
X0021424Y0030299D01*
X0021586Y0030210D01*
X0021746Y0030116D01*
X0021903Y0030019D01*
X0022058Y0029918D01*
X0022211Y0029814D01*
X0022361Y0029705D01*
X0022508Y0029593D01*
X0022653Y0029478D01*
X0022794Y0029359D01*
X0022933Y0029236D01*
X0023068Y0029110D01*
X0023201Y0028981D01*
X0023330Y0028848D01*
X0023456Y0028713D01*
X0023579Y0028574D01*
X0023698Y0028433D01*
X0023813Y0028288D01*
X0023925Y0028141D01*
X0024034Y0027991D01*
X0024138Y0027838D01*
X0024239Y0027683D01*
X0024336Y0027526D01*
X0024430Y0027366D01*
X0024519Y0027204D01*
X0024604Y0027040D01*
X0024685Y0026873D01*
X0024762Y0026705D01*
X0024835Y0026535D01*
X0024904Y0026363D01*
X0024968Y0026190D01*
X0025028Y0026015D01*
X0025084Y0025838D01*
X0025136Y0025661D01*
X0025183Y0025482D01*
X0025226Y0025302D01*
X0025264Y0025121D01*
X0025298Y0024939D01*
X0025327Y0024756D01*
X0025352Y0024573D01*
X0025373Y0024389D01*
X0025389Y0024205D01*
X0025400Y0024020D01*
X0025407Y0023835D01*
X0025409Y0023650D01*
X0025407Y0023465D01*
X0025400Y0023280D01*
X0025389Y0023095D01*
X0025373Y0022911D01*
X0025352Y0022727D01*
X0025327Y0022544D01*
X0025298Y0022361D01*
X0025264Y0022179D01*
X0025226Y0021998D01*
X0025183Y0021818D01*
X0025136Y0021639D01*
X0025084Y0021462D01*
X0025028Y0021285D01*
X0024968Y0021110D01*
X0024904Y0020937D01*
X0024835Y0020765D01*
X0024762Y0020595D01*
X0024685Y0020427D01*
X0024604Y0020260D01*
X0024519Y0020096D01*
X0024430Y0019934D01*
X0024336Y0019774D01*
X0024239Y0019617D01*
X0024138Y0019462D01*
X0024034Y0019309D01*
X0023925Y0019159D01*
X0023813Y0019012D01*
X0023698Y0018867D01*
X0023579Y0018726D01*
X0023456Y0018587D01*
X0023330Y0018452D01*
X0023201Y0018319D01*
X0023068Y0018190D01*
X0022933Y0018064D01*
X0022794Y0017941D01*
X0022653Y0017822D01*
X0022508Y0017707D01*
X0022361Y0017595D01*
X0022211Y0017486D01*
X0022058Y0017382D01*
X0021903Y0017281D01*
X0021746Y0017184D01*
X0021586Y0017090D01*
X0021424Y0017001D01*
X0021260Y0016916D01*
X0021093Y0016835D01*
X0020925Y0016758D01*
X0020755Y0016685D01*
X0020583Y0016616D01*
X0020410Y0016552D01*
X0020235Y0016492D01*
X0020058Y0016436D01*
X0019881Y0016384D01*
X0019702Y0016337D01*
X0019522Y0016294D01*
X0019341Y0016256D01*
X0019159Y0016222D01*
X0018976Y0016193D01*
X0018793Y0016168D01*
X0018609Y0016147D01*
X0018425Y0016131D01*
X0018240Y0016120D01*
X0018055Y0016113D01*
X0017870Y0016111D01*
X0017685Y0016113D01*
X0017500Y0016120D01*
X0017315Y0016131D01*
X0017131Y0016147D01*
X0016947Y0016168D01*
X0016764Y0016193D01*
X0016581Y0016222D01*
X0016399Y0016256D01*
X0016218Y0016294D01*
X0016038Y0016337D01*
X0015859Y0016384D01*
X0015682Y0016436D01*
X0015505Y0016492D01*
X0015330Y0016552D01*
X0015157Y0016616D01*
X0014985Y0016685D01*
X0014815Y0016758D01*
X0014647Y0016835D01*
X0014480Y0016916D01*
X0014316Y0017001D01*
X0014154Y0017090D01*
X0013994Y0017184D01*
X0013837Y0017281D01*
X0013682Y0017382D01*
X0013529Y0017486D01*
X0013379Y0017595D01*
X0013232Y0017707D01*
X0013087Y0017822D01*
X0012946Y0017941D01*
X0012807Y0018064D01*
X0012672Y0018190D01*
X0012539Y0018319D01*
X0012410Y0018452D01*
X0012284Y0018587D01*
X0012161Y0018726D01*
X0012042Y0018867D01*
X0011927Y0019012D01*
X0011815Y0019159D01*
X0011706Y0019309D01*
X0011602Y0019462D01*
X0011501Y0019617D01*
X0011404Y0019774D01*
X0011310Y0019934D01*
X0011221Y0020096D01*
X0011136Y0020260D01*
X0011055Y0020427D01*
X0010978Y0020595D01*
X0010905Y0020765D01*
X0010836Y0020937D01*
X0010772Y0021110D01*
X0010712Y0021285D01*
X0010656Y0021462D01*
X0010604Y0021639D01*
X0010557Y0021818D01*
X0010514Y0021998D01*
X0010476Y0022179D01*
X0010442Y0022361D01*
X0010413Y0022544D01*
X0010388Y0022727D01*
X0010367Y0022911D01*
X0010351Y0023095D01*
X0010340Y0023280D01*
X0010333Y0023465D01*
X0010331Y0023650D01*
X0007870Y0033489D02*
X0167870Y0033489D01*
X0167870Y0039496D01*
X0167870Y0033489D02*
X0167870Y0031588D01*
X0167870Y0015852D01*
X0167870Y0013914D01*
X0150331Y0023650D02*
X0150333Y0023835D01*
X0150340Y0024020D01*
X0150351Y0024205D01*
X0150367Y0024389D01*
X0150388Y0024573D01*
X0150413Y0024756D01*
X0150442Y0024939D01*
X0150476Y0025121D01*
X0150514Y0025302D01*
X0150557Y0025482D01*
X0150604Y0025661D01*
X0150656Y0025838D01*
X0150712Y0026015D01*
X0150772Y0026190D01*
X0150836Y0026363D01*
X0150905Y0026535D01*
X0150978Y0026705D01*
X0151055Y0026873D01*
X0151136Y0027040D01*
X0151221Y0027204D01*
X0151310Y0027366D01*
X0151404Y0027526D01*
X0151501Y0027683D01*
X0151602Y0027838D01*
X0151706Y0027991D01*
X0151815Y0028141D01*
X0151927Y0028288D01*
X0152042Y0028433D01*
X0152161Y0028574D01*
X0152284Y0028713D01*
X0152410Y0028848D01*
X0152539Y0028981D01*
X0152672Y0029110D01*
X0152807Y0029236D01*
X0152946Y0029359D01*
X0153087Y0029478D01*
X0153232Y0029593D01*
X0153379Y0029705D01*
X0153529Y0029814D01*
X0153682Y0029918D01*
X0153837Y0030019D01*
X0153994Y0030116D01*
X0154154Y0030210D01*
X0154316Y0030299D01*
X0154480Y0030384D01*
X0154647Y0030465D01*
X0154815Y0030542D01*
X0154985Y0030615D01*
X0155157Y0030684D01*
X0155330Y0030748D01*
X0155505Y0030808D01*
X0155682Y0030864D01*
X0155859Y0030916D01*
X0156038Y0030963D01*
X0156218Y0031006D01*
X0156399Y0031044D01*
X0156581Y0031078D01*
X0156764Y0031107D01*
X0156947Y0031132D01*
X0157131Y0031153D01*
X0157315Y0031169D01*
X0157500Y0031180D01*
X0157685Y0031187D01*
X0157870Y0031189D01*
X0158055Y0031187D01*
X0158240Y0031180D01*
X0158425Y0031169D01*
X0158609Y0031153D01*
X0158793Y0031132D01*
X0158976Y0031107D01*
X0159159Y0031078D01*
X0159341Y0031044D01*
X0159522Y0031006D01*
X0159702Y0030963D01*
X0159881Y0030916D01*
X0160058Y0030864D01*
X0160235Y0030808D01*
X0160410Y0030748D01*
X0160583Y0030684D01*
X0160755Y0030615D01*
X0160925Y0030542D01*
X0161093Y0030465D01*
X0161260Y0030384D01*
X0161424Y0030299D01*
X0161586Y0030210D01*
X0161746Y0030116D01*
X0161903Y0030019D01*
X0162058Y0029918D01*
X0162211Y0029814D01*
X0162361Y0029705D01*
X0162508Y0029593D01*
X0162653Y0029478D01*
X0162794Y0029359D01*
X0162933Y0029236D01*
X0163068Y0029110D01*
X0163201Y0028981D01*
X0163330Y0028848D01*
X0163456Y0028713D01*
X0163579Y0028574D01*
X0163698Y0028433D01*
X0163813Y0028288D01*
X0163925Y0028141D01*
X0164034Y0027991D01*
X0164138Y0027838D01*
X0164239Y0027683D01*
X0164336Y0027526D01*
X0164430Y0027366D01*
X0164519Y0027204D01*
X0164604Y0027040D01*
X0164685Y0026873D01*
X0164762Y0026705D01*
X0164835Y0026535D01*
X0164904Y0026363D01*
X0164968Y0026190D01*
X0165028Y0026015D01*
X0165084Y0025838D01*
X0165136Y0025661D01*
X0165183Y0025482D01*
X0165226Y0025302D01*
X0165264Y0025121D01*
X0165298Y0024939D01*
X0165327Y0024756D01*
X0165352Y0024573D01*
X0165373Y0024389D01*
X0165389Y0024205D01*
X0165400Y0024020D01*
X0165407Y0023835D01*
X0165409Y0023650D01*
X0165407Y0023465D01*
X0165400Y0023280D01*
X0165389Y0023095D01*
X0165373Y0022911D01*
X0165352Y0022727D01*
X0165327Y0022544D01*
X0165298Y0022361D01*
X0165264Y0022179D01*
X0165226Y0021998D01*
X0165183Y0021818D01*
X0165136Y0021639D01*
X0165084Y0021462D01*
X0165028Y0021285D01*
X0164968Y0021110D01*
X0164904Y0020937D01*
X0164835Y0020765D01*
X0164762Y0020595D01*
X0164685Y0020427D01*
X0164604Y0020260D01*
X0164519Y0020096D01*
X0164430Y0019934D01*
X0164336Y0019774D01*
X0164239Y0019617D01*
X0164138Y0019462D01*
X0164034Y0019309D01*
X0163925Y0019159D01*
X0163813Y0019012D01*
X0163698Y0018867D01*
X0163579Y0018726D01*
X0163456Y0018587D01*
X0163330Y0018452D01*
X0163201Y0018319D01*
X0163068Y0018190D01*
X0162933Y0018064D01*
X0162794Y0017941D01*
X0162653Y0017822D01*
X0162508Y0017707D01*
X0162361Y0017595D01*
X0162211Y0017486D01*
X0162058Y0017382D01*
X0161903Y0017281D01*
X0161746Y0017184D01*
X0161586Y0017090D01*
X0161424Y0017001D01*
X0161260Y0016916D01*
X0161093Y0016835D01*
X0160925Y0016758D01*
X0160755Y0016685D01*
X0160583Y0016616D01*
X0160410Y0016552D01*
X0160235Y0016492D01*
X0160058Y0016436D01*
X0159881Y0016384D01*
X0159702Y0016337D01*
X0159522Y0016294D01*
X0159341Y0016256D01*
X0159159Y0016222D01*
X0158976Y0016193D01*
X0158793Y0016168D01*
X0158609Y0016147D01*
X0158425Y0016131D01*
X0158240Y0016120D01*
X0158055Y0016113D01*
X0157870Y0016111D01*
X0157685Y0016113D01*
X0157500Y0016120D01*
X0157315Y0016131D01*
X0157131Y0016147D01*
X0156947Y0016168D01*
X0156764Y0016193D01*
X0156581Y0016222D01*
X0156399Y0016256D01*
X0156218Y0016294D01*
X0156038Y0016337D01*
X0155859Y0016384D01*
X0155682Y0016436D01*
X0155505Y0016492D01*
X0155330Y0016552D01*
X0155157Y0016616D01*
X0154985Y0016685D01*
X0154815Y0016758D01*
X0154647Y0016835D01*
X0154480Y0016916D01*
X0154316Y0017001D01*
X0154154Y0017090D01*
X0153994Y0017184D01*
X0153837Y0017281D01*
X0153682Y0017382D01*
X0153529Y0017486D01*
X0153379Y0017595D01*
X0153232Y0017707D01*
X0153087Y0017822D01*
X0152946Y0017941D01*
X0152807Y0018064D01*
X0152672Y0018190D01*
X0152539Y0018319D01*
X0152410Y0018452D01*
X0152284Y0018587D01*
X0152161Y0018726D01*
X0152042Y0018867D01*
X0151927Y0019012D01*
X0151815Y0019159D01*
X0151706Y0019309D01*
X0151602Y0019462D01*
X0151501Y0019617D01*
X0151404Y0019774D01*
X0151310Y0019934D01*
X0151221Y0020096D01*
X0151136Y0020260D01*
X0151055Y0020427D01*
X0150978Y0020595D01*
X0150905Y0020765D01*
X0150836Y0020937D01*
X0150772Y0021110D01*
X0150712Y0021285D01*
X0150656Y0021462D01*
X0150604Y0021639D01*
X0150557Y0021818D01*
X0150514Y0021998D01*
X0150476Y0022179D01*
X0150442Y0022361D01*
X0150413Y0022544D01*
X0150388Y0022727D01*
X0150367Y0022911D01*
X0150351Y0023095D01*
X0150340Y0023280D01*
X0150333Y0023465D01*
X0150331Y0023650D01*
X0130331Y0023650D02*
X0130333Y0023835D01*
X0130340Y0024020D01*
X0130351Y0024205D01*
X0130367Y0024389D01*
X0130388Y0024573D01*
X0130413Y0024756D01*
X0130442Y0024939D01*
X0130476Y0025121D01*
X0130514Y0025302D01*
X0130557Y0025482D01*
X0130604Y0025661D01*
X0130656Y0025838D01*
X0130712Y0026015D01*
X0130772Y0026190D01*
X0130836Y0026363D01*
X0130905Y0026535D01*
X0130978Y0026705D01*
X0131055Y0026873D01*
X0131136Y0027040D01*
X0131221Y0027204D01*
X0131310Y0027366D01*
X0131404Y0027526D01*
X0131501Y0027683D01*
X0131602Y0027838D01*
X0131706Y0027991D01*
X0131815Y0028141D01*
X0131927Y0028288D01*
X0132042Y0028433D01*
X0132161Y0028574D01*
X0132284Y0028713D01*
X0132410Y0028848D01*
X0132539Y0028981D01*
X0132672Y0029110D01*
X0132807Y0029236D01*
X0132946Y0029359D01*
X0133087Y0029478D01*
X0133232Y0029593D01*
X0133379Y0029705D01*
X0133529Y0029814D01*
X0133682Y0029918D01*
X0133837Y0030019D01*
X0133994Y0030116D01*
X0134154Y0030210D01*
X0134316Y0030299D01*
X0134480Y0030384D01*
X0134647Y0030465D01*
X0134815Y0030542D01*
X0134985Y0030615D01*
X0135157Y0030684D01*
X0135330Y0030748D01*
X0135505Y0030808D01*
X0135682Y0030864D01*
X0135859Y0030916D01*
X0136038Y0030963D01*
X0136218Y0031006D01*
X0136399Y0031044D01*
X0136581Y0031078D01*
X0136764Y0031107D01*
X0136947Y0031132D01*
X0137131Y0031153D01*
X0137315Y0031169D01*
X0137500Y0031180D01*
X0137685Y0031187D01*
X0137870Y0031189D01*
X0138055Y0031187D01*
X0138240Y0031180D01*
X0138425Y0031169D01*
X0138609Y0031153D01*
X0138793Y0031132D01*
X0138976Y0031107D01*
X0139159Y0031078D01*
X0139341Y0031044D01*
X0139522Y0031006D01*
X0139702Y0030963D01*
X0139881Y0030916D01*
X0140058Y0030864D01*
X0140235Y0030808D01*
X0140410Y0030748D01*
X0140583Y0030684D01*
X0140755Y0030615D01*
X0140925Y0030542D01*
X0141093Y0030465D01*
X0141260Y0030384D01*
X0141424Y0030299D01*
X0141586Y0030210D01*
X0141746Y0030116D01*
X0141903Y0030019D01*
X0142058Y0029918D01*
X0142211Y0029814D01*
X0142361Y0029705D01*
X0142508Y0029593D01*
X0142653Y0029478D01*
X0142794Y0029359D01*
X0142933Y0029236D01*
X0143068Y0029110D01*
X0143201Y0028981D01*
X0143330Y0028848D01*
X0143456Y0028713D01*
X0143579Y0028574D01*
X0143698Y0028433D01*
X0143813Y0028288D01*
X0143925Y0028141D01*
X0144034Y0027991D01*
X0144138Y0027838D01*
X0144239Y0027683D01*
X0144336Y0027526D01*
X0144430Y0027366D01*
X0144519Y0027204D01*
X0144604Y0027040D01*
X0144685Y0026873D01*
X0144762Y0026705D01*
X0144835Y0026535D01*
X0144904Y0026363D01*
X0144968Y0026190D01*
X0145028Y0026015D01*
X0145084Y0025838D01*
X0145136Y0025661D01*
X0145183Y0025482D01*
X0145226Y0025302D01*
X0145264Y0025121D01*
X0145298Y0024939D01*
X0145327Y0024756D01*
X0145352Y0024573D01*
X0145373Y0024389D01*
X0145389Y0024205D01*
X0145400Y0024020D01*
X0145407Y0023835D01*
X0145409Y0023650D01*
X0145407Y0023465D01*
X0145400Y0023280D01*
X0145389Y0023095D01*
X0145373Y0022911D01*
X0145352Y0022727D01*
X0145327Y0022544D01*
X0145298Y0022361D01*
X0145264Y0022179D01*
X0145226Y0021998D01*
X0145183Y0021818D01*
X0145136Y0021639D01*
X0145084Y0021462D01*
X0145028Y0021285D01*
X0144968Y0021110D01*
X0144904Y0020937D01*
X0144835Y0020765D01*
X0144762Y0020595D01*
X0144685Y0020427D01*
X0144604Y0020260D01*
X0144519Y0020096D01*
X0144430Y0019934D01*
X0144336Y0019774D01*
X0144239Y0019617D01*
X0144138Y0019462D01*
X0144034Y0019309D01*
X0143925Y0019159D01*
X0143813Y0019012D01*
X0143698Y0018867D01*
X0143579Y0018726D01*
X0143456Y0018587D01*
X0143330Y0018452D01*
X0143201Y0018319D01*
X0143068Y0018190D01*
X0142933Y0018064D01*
X0142794Y0017941D01*
X0142653Y0017822D01*
X0142508Y0017707D01*
X0142361Y0017595D01*
X0142211Y0017486D01*
X0142058Y0017382D01*
X0141903Y0017281D01*
X0141746Y0017184D01*
X0141586Y0017090D01*
X0141424Y0017001D01*
X0141260Y0016916D01*
X0141093Y0016835D01*
X0140925Y0016758D01*
X0140755Y0016685D01*
X0140583Y0016616D01*
X0140410Y0016552D01*
X0140235Y0016492D01*
X0140058Y0016436D01*
X0139881Y0016384D01*
X0139702Y0016337D01*
X0139522Y0016294D01*
X0139341Y0016256D01*
X0139159Y0016222D01*
X0138976Y0016193D01*
X0138793Y0016168D01*
X0138609Y0016147D01*
X0138425Y0016131D01*
X0138240Y0016120D01*
X0138055Y0016113D01*
X0137870Y0016111D01*
X0137685Y0016113D01*
X0137500Y0016120D01*
X0137315Y0016131D01*
X0137131Y0016147D01*
X0136947Y0016168D01*
X0136764Y0016193D01*
X0136581Y0016222D01*
X0136399Y0016256D01*
X0136218Y0016294D01*
X0136038Y0016337D01*
X0135859Y0016384D01*
X0135682Y0016436D01*
X0135505Y0016492D01*
X0135330Y0016552D01*
X0135157Y0016616D01*
X0134985Y0016685D01*
X0134815Y0016758D01*
X0134647Y0016835D01*
X0134480Y0016916D01*
X0134316Y0017001D01*
X0134154Y0017090D01*
X0133994Y0017184D01*
X0133837Y0017281D01*
X0133682Y0017382D01*
X0133529Y0017486D01*
X0133379Y0017595D01*
X0133232Y0017707D01*
X0133087Y0017822D01*
X0132946Y0017941D01*
X0132807Y0018064D01*
X0132672Y0018190D01*
X0132539Y0018319D01*
X0132410Y0018452D01*
X0132284Y0018587D01*
X0132161Y0018726D01*
X0132042Y0018867D01*
X0131927Y0019012D01*
X0131815Y0019159D01*
X0131706Y0019309D01*
X0131602Y0019462D01*
X0131501Y0019617D01*
X0131404Y0019774D01*
X0131310Y0019934D01*
X0131221Y0020096D01*
X0131136Y0020260D01*
X0131055Y0020427D01*
X0130978Y0020595D01*
X0130905Y0020765D01*
X0130836Y0020937D01*
X0130772Y0021110D01*
X0130712Y0021285D01*
X0130656Y0021462D01*
X0130604Y0021639D01*
X0130557Y0021818D01*
X0130514Y0021998D01*
X0130476Y0022179D01*
X0130442Y0022361D01*
X0130413Y0022544D01*
X0130388Y0022727D01*
X0130367Y0022911D01*
X0130351Y0023095D01*
X0130340Y0023280D01*
X0130333Y0023465D01*
X0130331Y0023650D01*
X0110331Y0023650D02*
X0110333Y0023835D01*
X0110340Y0024020D01*
X0110351Y0024205D01*
X0110367Y0024389D01*
X0110388Y0024573D01*
X0110413Y0024756D01*
X0110442Y0024939D01*
X0110476Y0025121D01*
X0110514Y0025302D01*
X0110557Y0025482D01*
X0110604Y0025661D01*
X0110656Y0025838D01*
X0110712Y0026015D01*
X0110772Y0026190D01*
X0110836Y0026363D01*
X0110905Y0026535D01*
X0110978Y0026705D01*
X0111055Y0026873D01*
X0111136Y0027040D01*
X0111221Y0027204D01*
X0111310Y0027366D01*
X0111404Y0027526D01*
X0111501Y0027683D01*
X0111602Y0027838D01*
X0111706Y0027991D01*
X0111815Y0028141D01*
X0111927Y0028288D01*
X0112042Y0028433D01*
X0112161Y0028574D01*
X0112284Y0028713D01*
X0112410Y0028848D01*
X0112539Y0028981D01*
X0112672Y0029110D01*
X0112807Y0029236D01*
X0112946Y0029359D01*
X0113087Y0029478D01*
X0113232Y0029593D01*
X0113379Y0029705D01*
X0113529Y0029814D01*
X0113682Y0029918D01*
X0113837Y0030019D01*
X0113994Y0030116D01*
X0114154Y0030210D01*
X0114316Y0030299D01*
X0114480Y0030384D01*
X0114647Y0030465D01*
X0114815Y0030542D01*
X0114985Y0030615D01*
X0115157Y0030684D01*
X0115330Y0030748D01*
X0115505Y0030808D01*
X0115682Y0030864D01*
X0115859Y0030916D01*
X0116038Y0030963D01*
X0116218Y0031006D01*
X0116399Y0031044D01*
X0116581Y0031078D01*
X0116764Y0031107D01*
X0116947Y0031132D01*
X0117131Y0031153D01*
X0117315Y0031169D01*
X0117500Y0031180D01*
X0117685Y0031187D01*
X0117870Y0031189D01*
X0118055Y0031187D01*
X0118240Y0031180D01*
X0118425Y0031169D01*
X0118609Y0031153D01*
X0118793Y0031132D01*
X0118976Y0031107D01*
X0119159Y0031078D01*
X0119341Y0031044D01*
X0119522Y0031006D01*
X0119702Y0030963D01*
X0119881Y0030916D01*
X0120058Y0030864D01*
X0120235Y0030808D01*
X0120410Y0030748D01*
X0120583Y0030684D01*
X0120755Y0030615D01*
X0120925Y0030542D01*
X0121093Y0030465D01*
X0121260Y0030384D01*
X0121424Y0030299D01*
X0121586Y0030210D01*
X0121746Y0030116D01*
X0121903Y0030019D01*
X0122058Y0029918D01*
X0122211Y0029814D01*
X0122361Y0029705D01*
X0122508Y0029593D01*
X0122653Y0029478D01*
X0122794Y0029359D01*
X0122933Y0029236D01*
X0123068Y0029110D01*
X0123201Y0028981D01*
X0123330Y0028848D01*
X0123456Y0028713D01*
X0123579Y0028574D01*
X0123698Y0028433D01*
X0123813Y0028288D01*
X0123925Y0028141D01*
X0124034Y0027991D01*
X0124138Y0027838D01*
X0124239Y0027683D01*
X0124336Y0027526D01*
X0124430Y0027366D01*
X0124519Y0027204D01*
X0124604Y0027040D01*
X0124685Y0026873D01*
X0124762Y0026705D01*
X0124835Y0026535D01*
X0124904Y0026363D01*
X0124968Y0026190D01*
X0125028Y0026015D01*
X0125084Y0025838D01*
X0125136Y0025661D01*
X0125183Y0025482D01*
X0125226Y0025302D01*
X0125264Y0025121D01*
X0125298Y0024939D01*
X0125327Y0024756D01*
X0125352Y0024573D01*
X0125373Y0024389D01*
X0125389Y0024205D01*
X0125400Y0024020D01*
X0125407Y0023835D01*
X0125409Y0023650D01*
X0125407Y0023465D01*
X0125400Y0023280D01*
X0125389Y0023095D01*
X0125373Y0022911D01*
X0125352Y0022727D01*
X0125327Y0022544D01*
X0125298Y0022361D01*
X0125264Y0022179D01*
X0125226Y0021998D01*
X0125183Y0021818D01*
X0125136Y0021639D01*
X0125084Y0021462D01*
X0125028Y0021285D01*
X0124968Y0021110D01*
X0124904Y0020937D01*
X0124835Y0020765D01*
X0124762Y0020595D01*
X0124685Y0020427D01*
X0124604Y0020260D01*
X0124519Y0020096D01*
X0124430Y0019934D01*
X0124336Y0019774D01*
X0124239Y0019617D01*
X0124138Y0019462D01*
X0124034Y0019309D01*
X0123925Y0019159D01*
X0123813Y0019012D01*
X0123698Y0018867D01*
X0123579Y0018726D01*
X0123456Y0018587D01*
X0123330Y0018452D01*
X0123201Y0018319D01*
X0123068Y0018190D01*
X0122933Y0018064D01*
X0122794Y0017941D01*
X0122653Y0017822D01*
X0122508Y0017707D01*
X0122361Y0017595D01*
X0122211Y0017486D01*
X0122058Y0017382D01*
X0121903Y0017281D01*
X0121746Y0017184D01*
X0121586Y0017090D01*
X0121424Y0017001D01*
X0121260Y0016916D01*
X0121093Y0016835D01*
X0120925Y0016758D01*
X0120755Y0016685D01*
X0120583Y0016616D01*
X0120410Y0016552D01*
X0120235Y0016492D01*
X0120058Y0016436D01*
X0119881Y0016384D01*
X0119702Y0016337D01*
X0119522Y0016294D01*
X0119341Y0016256D01*
X0119159Y0016222D01*
X0118976Y0016193D01*
X0118793Y0016168D01*
X0118609Y0016147D01*
X0118425Y0016131D01*
X0118240Y0016120D01*
X0118055Y0016113D01*
X0117870Y0016111D01*
X0117685Y0016113D01*
X0117500Y0016120D01*
X0117315Y0016131D01*
X0117131Y0016147D01*
X0116947Y0016168D01*
X0116764Y0016193D01*
X0116581Y0016222D01*
X0116399Y0016256D01*
X0116218Y0016294D01*
X0116038Y0016337D01*
X0115859Y0016384D01*
X0115682Y0016436D01*
X0115505Y0016492D01*
X0115330Y0016552D01*
X0115157Y0016616D01*
X0114985Y0016685D01*
X0114815Y0016758D01*
X0114647Y0016835D01*
X0114480Y0016916D01*
X0114316Y0017001D01*
X0114154Y0017090D01*
X0113994Y0017184D01*
X0113837Y0017281D01*
X0113682Y0017382D01*
X0113529Y0017486D01*
X0113379Y0017595D01*
X0113232Y0017707D01*
X0113087Y0017822D01*
X0112946Y0017941D01*
X0112807Y0018064D01*
X0112672Y0018190D01*
X0112539Y0018319D01*
X0112410Y0018452D01*
X0112284Y0018587D01*
X0112161Y0018726D01*
X0112042Y0018867D01*
X0111927Y0019012D01*
X0111815Y0019159D01*
X0111706Y0019309D01*
X0111602Y0019462D01*
X0111501Y0019617D01*
X0111404Y0019774D01*
X0111310Y0019934D01*
X0111221Y0020096D01*
X0111136Y0020260D01*
X0111055Y0020427D01*
X0110978Y0020595D01*
X0110905Y0020765D01*
X0110836Y0020937D01*
X0110772Y0021110D01*
X0110712Y0021285D01*
X0110656Y0021462D01*
X0110604Y0021639D01*
X0110557Y0021818D01*
X0110514Y0021998D01*
X0110476Y0022179D01*
X0110442Y0022361D01*
X0110413Y0022544D01*
X0110388Y0022727D01*
X0110367Y0022911D01*
X0110351Y0023095D01*
X0110340Y0023280D01*
X0110333Y0023465D01*
X0110331Y0023650D01*
X0090331Y0023650D02*
X0090333Y0023835D01*
X0090340Y0024020D01*
X0090351Y0024205D01*
X0090367Y0024389D01*
X0090388Y0024573D01*
X0090413Y0024756D01*
X0090442Y0024939D01*
X0090476Y0025121D01*
X0090514Y0025302D01*
X0090557Y0025482D01*
X0090604Y0025661D01*
X0090656Y0025838D01*
X0090712Y0026015D01*
X0090772Y0026190D01*
X0090836Y0026363D01*
X0090905Y0026535D01*
X0090978Y0026705D01*
X0091055Y0026873D01*
X0091136Y0027040D01*
X0091221Y0027204D01*
X0091310Y0027366D01*
X0091404Y0027526D01*
X0091501Y0027683D01*
X0091602Y0027838D01*
X0091706Y0027991D01*
X0091815Y0028141D01*
X0091927Y0028288D01*
X0092042Y0028433D01*
X0092161Y0028574D01*
X0092284Y0028713D01*
X0092410Y0028848D01*
X0092539Y0028981D01*
X0092672Y0029110D01*
X0092807Y0029236D01*
X0092946Y0029359D01*
X0093087Y0029478D01*
X0093232Y0029593D01*
X0093379Y0029705D01*
X0093529Y0029814D01*
X0093682Y0029918D01*
X0093837Y0030019D01*
X0093994Y0030116D01*
X0094154Y0030210D01*
X0094316Y0030299D01*
X0094480Y0030384D01*
X0094647Y0030465D01*
X0094815Y0030542D01*
X0094985Y0030615D01*
X0095157Y0030684D01*
X0095330Y0030748D01*
X0095505Y0030808D01*
X0095682Y0030864D01*
X0095859Y0030916D01*
X0096038Y0030963D01*
X0096218Y0031006D01*
X0096399Y0031044D01*
X0096581Y0031078D01*
X0096764Y0031107D01*
X0096947Y0031132D01*
X0097131Y0031153D01*
X0097315Y0031169D01*
X0097500Y0031180D01*
X0097685Y0031187D01*
X0097870Y0031189D01*
X0098055Y0031187D01*
X0098240Y0031180D01*
X0098425Y0031169D01*
X0098609Y0031153D01*
X0098793Y0031132D01*
X0098976Y0031107D01*
X0099159Y0031078D01*
X0099341Y0031044D01*
X0099522Y0031006D01*
X0099702Y0030963D01*
X0099881Y0030916D01*
X0100058Y0030864D01*
X0100235Y0030808D01*
X0100410Y0030748D01*
X0100583Y0030684D01*
X0100755Y0030615D01*
X0100925Y0030542D01*
X0101093Y0030465D01*
X0101260Y0030384D01*
X0101424Y0030299D01*
X0101586Y0030210D01*
X0101746Y0030116D01*
X0101903Y0030019D01*
X0102058Y0029918D01*
X0102211Y0029814D01*
X0102361Y0029705D01*
X0102508Y0029593D01*
X0102653Y0029478D01*
X0102794Y0029359D01*
X0102933Y0029236D01*
X0103068Y0029110D01*
X0103201Y0028981D01*
X0103330Y0028848D01*
X0103456Y0028713D01*
X0103579Y0028574D01*
X0103698Y0028433D01*
X0103813Y0028288D01*
X0103925Y0028141D01*
X0104034Y0027991D01*
X0104138Y0027838D01*
X0104239Y0027683D01*
X0104336Y0027526D01*
X0104430Y0027366D01*
X0104519Y0027204D01*
X0104604Y0027040D01*
X0104685Y0026873D01*
X0104762Y0026705D01*
X0104835Y0026535D01*
X0104904Y0026363D01*
X0104968Y0026190D01*
X0105028Y0026015D01*
X0105084Y0025838D01*
X0105136Y0025661D01*
X0105183Y0025482D01*
X0105226Y0025302D01*
X0105264Y0025121D01*
X0105298Y0024939D01*
X0105327Y0024756D01*
X0105352Y0024573D01*
X0105373Y0024389D01*
X0105389Y0024205D01*
X0105400Y0024020D01*
X0105407Y0023835D01*
X0105409Y0023650D01*
X0105407Y0023465D01*
X0105400Y0023280D01*
X0105389Y0023095D01*
X0105373Y0022911D01*
X0105352Y0022727D01*
X0105327Y0022544D01*
X0105298Y0022361D01*
X0105264Y0022179D01*
X0105226Y0021998D01*
X0105183Y0021818D01*
X0105136Y0021639D01*
X0105084Y0021462D01*
X0105028Y0021285D01*
X0104968Y0021110D01*
X0104904Y0020937D01*
X0104835Y0020765D01*
X0104762Y0020595D01*
X0104685Y0020427D01*
X0104604Y0020260D01*
X0104519Y0020096D01*
X0104430Y0019934D01*
X0104336Y0019774D01*
X0104239Y0019617D01*
X0104138Y0019462D01*
X0104034Y0019309D01*
X0103925Y0019159D01*
X0103813Y0019012D01*
X0103698Y0018867D01*
X0103579Y0018726D01*
X0103456Y0018587D01*
X0103330Y0018452D01*
X0103201Y0018319D01*
X0103068Y0018190D01*
X0102933Y0018064D01*
X0102794Y0017941D01*
X0102653Y0017822D01*
X0102508Y0017707D01*
X0102361Y0017595D01*
X0102211Y0017486D01*
X0102058Y0017382D01*
X0101903Y0017281D01*
X0101746Y0017184D01*
X0101586Y0017090D01*
X0101424Y0017001D01*
X0101260Y0016916D01*
X0101093Y0016835D01*
X0100925Y0016758D01*
X0100755Y0016685D01*
X0100583Y0016616D01*
X0100410Y0016552D01*
X0100235Y0016492D01*
X0100058Y0016436D01*
X0099881Y0016384D01*
X0099702Y0016337D01*
X0099522Y0016294D01*
X0099341Y0016256D01*
X0099159Y0016222D01*
X0098976Y0016193D01*
X0098793Y0016168D01*
X0098609Y0016147D01*
X0098425Y0016131D01*
X0098240Y0016120D01*
X0098055Y0016113D01*
X0097870Y0016111D01*
X0097685Y0016113D01*
X0097500Y0016120D01*
X0097315Y0016131D01*
X0097131Y0016147D01*
X0096947Y0016168D01*
X0096764Y0016193D01*
X0096581Y0016222D01*
X0096399Y0016256D01*
X0096218Y0016294D01*
X0096038Y0016337D01*
X0095859Y0016384D01*
X0095682Y0016436D01*
X0095505Y0016492D01*
X0095330Y0016552D01*
X0095157Y0016616D01*
X0094985Y0016685D01*
X0094815Y0016758D01*
X0094647Y0016835D01*
X0094480Y0016916D01*
X0094316Y0017001D01*
X0094154Y0017090D01*
X0093994Y0017184D01*
X0093837Y0017281D01*
X0093682Y0017382D01*
X0093529Y0017486D01*
X0093379Y0017595D01*
X0093232Y0017707D01*
X0093087Y0017822D01*
X0092946Y0017941D01*
X0092807Y0018064D01*
X0092672Y0018190D01*
X0092539Y0018319D01*
X0092410Y0018452D01*
X0092284Y0018587D01*
X0092161Y0018726D01*
X0092042Y0018867D01*
X0091927Y0019012D01*
X0091815Y0019159D01*
X0091706Y0019309D01*
X0091602Y0019462D01*
X0091501Y0019617D01*
X0091404Y0019774D01*
X0091310Y0019934D01*
X0091221Y0020096D01*
X0091136Y0020260D01*
X0091055Y0020427D01*
X0090978Y0020595D01*
X0090905Y0020765D01*
X0090836Y0020937D01*
X0090772Y0021110D01*
X0090712Y0021285D01*
X0090656Y0021462D01*
X0090604Y0021639D01*
X0090557Y0021818D01*
X0090514Y0021998D01*
X0090476Y0022179D01*
X0090442Y0022361D01*
X0090413Y0022544D01*
X0090388Y0022727D01*
X0090367Y0022911D01*
X0090351Y0023095D01*
X0090340Y0023280D01*
X0090333Y0023465D01*
X0090331Y0023650D01*
X0070331Y0023650D02*
X0070333Y0023835D01*
X0070340Y0024020D01*
X0070351Y0024205D01*
X0070367Y0024389D01*
X0070388Y0024573D01*
X0070413Y0024756D01*
X0070442Y0024939D01*
X0070476Y0025121D01*
X0070514Y0025302D01*
X0070557Y0025482D01*
X0070604Y0025661D01*
X0070656Y0025838D01*
X0070712Y0026015D01*
X0070772Y0026190D01*
X0070836Y0026363D01*
X0070905Y0026535D01*
X0070978Y0026705D01*
X0071055Y0026873D01*
X0071136Y0027040D01*
X0071221Y0027204D01*
X0071310Y0027366D01*
X0071404Y0027526D01*
X0071501Y0027683D01*
X0071602Y0027838D01*
X0071706Y0027991D01*
X0071815Y0028141D01*
X0071927Y0028288D01*
X0072042Y0028433D01*
X0072161Y0028574D01*
X0072284Y0028713D01*
X0072410Y0028848D01*
X0072539Y0028981D01*
X0072672Y0029110D01*
X0072807Y0029236D01*
X0072946Y0029359D01*
X0073087Y0029478D01*
X0073232Y0029593D01*
X0073379Y0029705D01*
X0073529Y0029814D01*
X0073682Y0029918D01*
X0073837Y0030019D01*
X0073994Y0030116D01*
X0074154Y0030210D01*
X0074316Y0030299D01*
X0074480Y0030384D01*
X0074647Y0030465D01*
X0074815Y0030542D01*
X0074985Y0030615D01*
X0075157Y0030684D01*
X0075330Y0030748D01*
X0075505Y0030808D01*
X0075682Y0030864D01*
X0075859Y0030916D01*
X0076038Y0030963D01*
X0076218Y0031006D01*
X0076399Y0031044D01*
X0076581Y0031078D01*
X0076764Y0031107D01*
X0076947Y0031132D01*
X0077131Y0031153D01*
X0077315Y0031169D01*
X0077500Y0031180D01*
X0077685Y0031187D01*
X0077870Y0031189D01*
X0078055Y0031187D01*
X0078240Y0031180D01*
X0078425Y0031169D01*
X0078609Y0031153D01*
X0078793Y0031132D01*
X0078976Y0031107D01*
X0079159Y0031078D01*
X0079341Y0031044D01*
X0079522Y0031006D01*
X0079702Y0030963D01*
X0079881Y0030916D01*
X0080058Y0030864D01*
X0080235Y0030808D01*
X0080410Y0030748D01*
X0080583Y0030684D01*
X0080755Y0030615D01*
X0080925Y0030542D01*
X0081093Y0030465D01*
X0081260Y0030384D01*
X0081424Y0030299D01*
X0081586Y0030210D01*
X0081746Y0030116D01*
X0081903Y0030019D01*
X0082058Y0029918D01*
X0082211Y0029814D01*
X0082361Y0029705D01*
X0082508Y0029593D01*
X0082653Y0029478D01*
X0082794Y0029359D01*
X0082933Y0029236D01*
X0083068Y0029110D01*
X0083201Y0028981D01*
X0083330Y0028848D01*
X0083456Y0028713D01*
X0083579Y0028574D01*
X0083698Y0028433D01*
X0083813Y0028288D01*
X0083925Y0028141D01*
X0084034Y0027991D01*
X0084138Y0027838D01*
X0084239Y0027683D01*
X0084336Y0027526D01*
X0084430Y0027366D01*
X0084519Y0027204D01*
X0084604Y0027040D01*
X0084685Y0026873D01*
X0084762Y0026705D01*
X0084835Y0026535D01*
X0084904Y0026363D01*
X0084968Y0026190D01*
X0085028Y0026015D01*
X0085084Y0025838D01*
X0085136Y0025661D01*
X0085183Y0025482D01*
X0085226Y0025302D01*
X0085264Y0025121D01*
X0085298Y0024939D01*
X0085327Y0024756D01*
X0085352Y0024573D01*
X0085373Y0024389D01*
X0085389Y0024205D01*
X0085400Y0024020D01*
X0085407Y0023835D01*
X0085409Y0023650D01*
X0085407Y0023465D01*
X0085400Y0023280D01*
X0085389Y0023095D01*
X0085373Y0022911D01*
X0085352Y0022727D01*
X0085327Y0022544D01*
X0085298Y0022361D01*
X0085264Y0022179D01*
X0085226Y0021998D01*
X0085183Y0021818D01*
X0085136Y0021639D01*
X0085084Y0021462D01*
X0085028Y0021285D01*
X0084968Y0021110D01*
X0084904Y0020937D01*
X0084835Y0020765D01*
X0084762Y0020595D01*
X0084685Y0020427D01*
X0084604Y0020260D01*
X0084519Y0020096D01*
X0084430Y0019934D01*
X0084336Y0019774D01*
X0084239Y0019617D01*
X0084138Y0019462D01*
X0084034Y0019309D01*
X0083925Y0019159D01*
X0083813Y0019012D01*
X0083698Y0018867D01*
X0083579Y0018726D01*
X0083456Y0018587D01*
X0083330Y0018452D01*
X0083201Y0018319D01*
X0083068Y0018190D01*
X0082933Y0018064D01*
X0082794Y0017941D01*
X0082653Y0017822D01*
X0082508Y0017707D01*
X0082361Y0017595D01*
X0082211Y0017486D01*
X0082058Y0017382D01*
X0081903Y0017281D01*
X0081746Y0017184D01*
X0081586Y0017090D01*
X0081424Y0017001D01*
X0081260Y0016916D01*
X0081093Y0016835D01*
X0080925Y0016758D01*
X0080755Y0016685D01*
X0080583Y0016616D01*
X0080410Y0016552D01*
X0080235Y0016492D01*
X0080058Y0016436D01*
X0079881Y0016384D01*
X0079702Y0016337D01*
X0079522Y0016294D01*
X0079341Y0016256D01*
X0079159Y0016222D01*
X0078976Y0016193D01*
X0078793Y0016168D01*
X0078609Y0016147D01*
X0078425Y0016131D01*
X0078240Y0016120D01*
X0078055Y0016113D01*
X0077870Y0016111D01*
X0077685Y0016113D01*
X0077500Y0016120D01*
X0077315Y0016131D01*
X0077131Y0016147D01*
X0076947Y0016168D01*
X0076764Y0016193D01*
X0076581Y0016222D01*
X0076399Y0016256D01*
X0076218Y0016294D01*
X0076038Y0016337D01*
X0075859Y0016384D01*
X0075682Y0016436D01*
X0075505Y0016492D01*
X0075330Y0016552D01*
X0075157Y0016616D01*
X0074985Y0016685D01*
X0074815Y0016758D01*
X0074647Y0016835D01*
X0074480Y0016916D01*
X0074316Y0017001D01*
X0074154Y0017090D01*
X0073994Y0017184D01*
X0073837Y0017281D01*
X0073682Y0017382D01*
X0073529Y0017486D01*
X0073379Y0017595D01*
X0073232Y0017707D01*
X0073087Y0017822D01*
X0072946Y0017941D01*
X0072807Y0018064D01*
X0072672Y0018190D01*
X0072539Y0018319D01*
X0072410Y0018452D01*
X0072284Y0018587D01*
X0072161Y0018726D01*
X0072042Y0018867D01*
X0071927Y0019012D01*
X0071815Y0019159D01*
X0071706Y0019309D01*
X0071602Y0019462D01*
X0071501Y0019617D01*
X0071404Y0019774D01*
X0071310Y0019934D01*
X0071221Y0020096D01*
X0071136Y0020260D01*
X0071055Y0020427D01*
X0070978Y0020595D01*
X0070905Y0020765D01*
X0070836Y0020937D01*
X0070772Y0021110D01*
X0070712Y0021285D01*
X0070656Y0021462D01*
X0070604Y0021639D01*
X0070557Y0021818D01*
X0070514Y0021998D01*
X0070476Y0022179D01*
X0070442Y0022361D01*
X0070413Y0022544D01*
X0070388Y0022727D01*
X0070367Y0022911D01*
X0070351Y0023095D01*
X0070340Y0023280D01*
X0070333Y0023465D01*
X0070331Y0023650D01*
X0050331Y0023650D02*
X0050333Y0023835D01*
X0050340Y0024020D01*
X0050351Y0024205D01*
X0050367Y0024389D01*
X0050388Y0024573D01*
X0050413Y0024756D01*
X0050442Y0024939D01*
X0050476Y0025121D01*
X0050514Y0025302D01*
X0050557Y0025482D01*
X0050604Y0025661D01*
X0050656Y0025838D01*
X0050712Y0026015D01*
X0050772Y0026190D01*
X0050836Y0026363D01*
X0050905Y0026535D01*
X0050978Y0026705D01*
X0051055Y0026873D01*
X0051136Y0027040D01*
X0051221Y0027204D01*
X0051310Y0027366D01*
X0051404Y0027526D01*
X0051501Y0027683D01*
X0051602Y0027838D01*
X0051706Y0027991D01*
X0051815Y0028141D01*
X0051927Y0028288D01*
X0052042Y0028433D01*
X0052161Y0028574D01*
X0052284Y0028713D01*
X0052410Y0028848D01*
X0052539Y0028981D01*
X0052672Y0029110D01*
X0052807Y0029236D01*
X0052946Y0029359D01*
X0053087Y0029478D01*
X0053232Y0029593D01*
X0053379Y0029705D01*
X0053529Y0029814D01*
X0053682Y0029918D01*
X0053837Y0030019D01*
X0053994Y0030116D01*
X0054154Y0030210D01*
X0054316Y0030299D01*
X0054480Y0030384D01*
X0054647Y0030465D01*
X0054815Y0030542D01*
X0054985Y0030615D01*
X0055157Y0030684D01*
X0055330Y0030748D01*
X0055505Y0030808D01*
X0055682Y0030864D01*
X0055859Y0030916D01*
X0056038Y0030963D01*
X0056218Y0031006D01*
X0056399Y0031044D01*
X0056581Y0031078D01*
X0056764Y0031107D01*
X0056947Y0031132D01*
X0057131Y0031153D01*
X0057315Y0031169D01*
X0057500Y0031180D01*
X0057685Y0031187D01*
X0057870Y0031189D01*
X0058055Y0031187D01*
X0058240Y0031180D01*
X0058425Y0031169D01*
X0058609Y0031153D01*
X0058793Y0031132D01*
X0058976Y0031107D01*
X0059159Y0031078D01*
X0059341Y0031044D01*
X0059522Y0031006D01*
X0059702Y0030963D01*
X0059881Y0030916D01*
X0060058Y0030864D01*
X0060235Y0030808D01*
X0060410Y0030748D01*
X0060583Y0030684D01*
X0060755Y0030615D01*
X0060925Y0030542D01*
X0061093Y0030465D01*
X0061260Y0030384D01*
X0061424Y0030299D01*
X0061586Y0030210D01*
X0061746Y0030116D01*
X0061903Y0030019D01*
X0062058Y0029918D01*
X0062211Y0029814D01*
X0062361Y0029705D01*
X0062508Y0029593D01*
X0062653Y0029478D01*
X0062794Y0029359D01*
X0062933Y0029236D01*
X0063068Y0029110D01*
X0063201Y0028981D01*
X0063330Y0028848D01*
X0063456Y0028713D01*
X0063579Y0028574D01*
X0063698Y0028433D01*
X0063813Y0028288D01*
X0063925Y0028141D01*
X0064034Y0027991D01*
X0064138Y0027838D01*
X0064239Y0027683D01*
X0064336Y0027526D01*
X0064430Y0027366D01*
X0064519Y0027204D01*
X0064604Y0027040D01*
X0064685Y0026873D01*
X0064762Y0026705D01*
X0064835Y0026535D01*
X0064904Y0026363D01*
X0064968Y0026190D01*
X0065028Y0026015D01*
X0065084Y0025838D01*
X0065136Y0025661D01*
X0065183Y0025482D01*
X0065226Y0025302D01*
X0065264Y0025121D01*
X0065298Y0024939D01*
X0065327Y0024756D01*
X0065352Y0024573D01*
X0065373Y0024389D01*
X0065389Y0024205D01*
X0065400Y0024020D01*
X0065407Y0023835D01*
X0065409Y0023650D01*
X0065407Y0023465D01*
X0065400Y0023280D01*
X0065389Y0023095D01*
X0065373Y0022911D01*
X0065352Y0022727D01*
X0065327Y0022544D01*
X0065298Y0022361D01*
X0065264Y0022179D01*
X0065226Y0021998D01*
X0065183Y0021818D01*
X0065136Y0021639D01*
X0065084Y0021462D01*
X0065028Y0021285D01*
X0064968Y0021110D01*
X0064904Y0020937D01*
X0064835Y0020765D01*
X0064762Y0020595D01*
X0064685Y0020427D01*
X0064604Y0020260D01*
X0064519Y0020096D01*
X0064430Y0019934D01*
X0064336Y0019774D01*
X0064239Y0019617D01*
X0064138Y0019462D01*
X0064034Y0019309D01*
X0063925Y0019159D01*
X0063813Y0019012D01*
X0063698Y0018867D01*
X0063579Y0018726D01*
X0063456Y0018587D01*
X0063330Y0018452D01*
X0063201Y0018319D01*
X0063068Y0018190D01*
X0062933Y0018064D01*
X0062794Y0017941D01*
X0062653Y0017822D01*
X0062508Y0017707D01*
X0062361Y0017595D01*
X0062211Y0017486D01*
X0062058Y0017382D01*
X0061903Y0017281D01*
X0061746Y0017184D01*
X0061586Y0017090D01*
X0061424Y0017001D01*
X0061260Y0016916D01*
X0061093Y0016835D01*
X0060925Y0016758D01*
X0060755Y0016685D01*
X0060583Y0016616D01*
X0060410Y0016552D01*
X0060235Y0016492D01*
X0060058Y0016436D01*
X0059881Y0016384D01*
X0059702Y0016337D01*
X0059522Y0016294D01*
X0059341Y0016256D01*
X0059159Y0016222D01*
X0058976Y0016193D01*
X0058793Y0016168D01*
X0058609Y0016147D01*
X0058425Y0016131D01*
X0058240Y0016120D01*
X0058055Y0016113D01*
X0057870Y0016111D01*
X0057685Y0016113D01*
X0057500Y0016120D01*
X0057315Y0016131D01*
X0057131Y0016147D01*
X0056947Y0016168D01*
X0056764Y0016193D01*
X0056581Y0016222D01*
X0056399Y0016256D01*
X0056218Y0016294D01*
X0056038Y0016337D01*
X0055859Y0016384D01*
X0055682Y0016436D01*
X0055505Y0016492D01*
X0055330Y0016552D01*
X0055157Y0016616D01*
X0054985Y0016685D01*
X0054815Y0016758D01*
X0054647Y0016835D01*
X0054480Y0016916D01*
X0054316Y0017001D01*
X0054154Y0017090D01*
X0053994Y0017184D01*
X0053837Y0017281D01*
X0053682Y0017382D01*
X0053529Y0017486D01*
X0053379Y0017595D01*
X0053232Y0017707D01*
X0053087Y0017822D01*
X0052946Y0017941D01*
X0052807Y0018064D01*
X0052672Y0018190D01*
X0052539Y0018319D01*
X0052410Y0018452D01*
X0052284Y0018587D01*
X0052161Y0018726D01*
X0052042Y0018867D01*
X0051927Y0019012D01*
X0051815Y0019159D01*
X0051706Y0019309D01*
X0051602Y0019462D01*
X0051501Y0019617D01*
X0051404Y0019774D01*
X0051310Y0019934D01*
X0051221Y0020096D01*
X0051136Y0020260D01*
X0051055Y0020427D01*
X0050978Y0020595D01*
X0050905Y0020765D01*
X0050836Y0020937D01*
X0050772Y0021110D01*
X0050712Y0021285D01*
X0050656Y0021462D01*
X0050604Y0021639D01*
X0050557Y0021818D01*
X0050514Y0021998D01*
X0050476Y0022179D01*
X0050442Y0022361D01*
X0050413Y0022544D01*
X0050388Y0022727D01*
X0050367Y0022911D01*
X0050351Y0023095D01*
X0050340Y0023280D01*
X0050333Y0023465D01*
X0050331Y0023650D01*
X0030331Y0023650D02*
X0030333Y0023835D01*
X0030340Y0024020D01*
X0030351Y0024205D01*
X0030367Y0024389D01*
X0030388Y0024573D01*
X0030413Y0024756D01*
X0030442Y0024939D01*
X0030476Y0025121D01*
X0030514Y0025302D01*
X0030557Y0025482D01*
X0030604Y0025661D01*
X0030656Y0025838D01*
X0030712Y0026015D01*
X0030772Y0026190D01*
X0030836Y0026363D01*
X0030905Y0026535D01*
X0030978Y0026705D01*
X0031055Y0026873D01*
X0031136Y0027040D01*
X0031221Y0027204D01*
X0031310Y0027366D01*
X0031404Y0027526D01*
X0031501Y0027683D01*
X0031602Y0027838D01*
X0031706Y0027991D01*
X0031815Y0028141D01*
X0031927Y0028288D01*
X0032042Y0028433D01*
X0032161Y0028574D01*
X0032284Y0028713D01*
X0032410Y0028848D01*
X0032539Y0028981D01*
X0032672Y0029110D01*
X0032807Y0029236D01*
X0032946Y0029359D01*
X0033087Y0029478D01*
X0033232Y0029593D01*
X0033379Y0029705D01*
X0033529Y0029814D01*
X0033682Y0029918D01*
X0033837Y0030019D01*
X0033994Y0030116D01*
X0034154Y0030210D01*
X0034316Y0030299D01*
X0034480Y0030384D01*
X0034647Y0030465D01*
X0034815Y0030542D01*
X0034985Y0030615D01*
X0035157Y0030684D01*
X0035330Y0030748D01*
X0035505Y0030808D01*
X0035682Y0030864D01*
X0035859Y0030916D01*
X0036038Y0030963D01*
X0036218Y0031006D01*
X0036399Y0031044D01*
X0036581Y0031078D01*
X0036764Y0031107D01*
X0036947Y0031132D01*
X0037131Y0031153D01*
X0037315Y0031169D01*
X0037500Y0031180D01*
X0037685Y0031187D01*
X0037870Y0031189D01*
X0038055Y0031187D01*
X0038240Y0031180D01*
X0038425Y0031169D01*
X0038609Y0031153D01*
X0038793Y0031132D01*
X0038976Y0031107D01*
X0039159Y0031078D01*
X0039341Y0031044D01*
X0039522Y0031006D01*
X0039702Y0030963D01*
X0039881Y0030916D01*
X0040058Y0030864D01*
X0040235Y0030808D01*
X0040410Y0030748D01*
X0040583Y0030684D01*
X0040755Y0030615D01*
X0040925Y0030542D01*
X0041093Y0030465D01*
X0041260Y0030384D01*
X0041424Y0030299D01*
X0041586Y0030210D01*
X0041746Y0030116D01*
X0041903Y0030019D01*
X0042058Y0029918D01*
X0042211Y0029814D01*
X0042361Y0029705D01*
X0042508Y0029593D01*
X0042653Y0029478D01*
X0042794Y0029359D01*
X0042933Y0029236D01*
X0043068Y0029110D01*
X0043201Y0028981D01*
X0043330Y0028848D01*
X0043456Y0028713D01*
X0043579Y0028574D01*
X0043698Y0028433D01*
X0043813Y0028288D01*
X0043925Y0028141D01*
X0044034Y0027991D01*
X0044138Y0027838D01*
X0044239Y0027683D01*
X0044336Y0027526D01*
X0044430Y0027366D01*
X0044519Y0027204D01*
X0044604Y0027040D01*
X0044685Y0026873D01*
X0044762Y0026705D01*
X0044835Y0026535D01*
X0044904Y0026363D01*
X0044968Y0026190D01*
X0045028Y0026015D01*
X0045084Y0025838D01*
X0045136Y0025661D01*
X0045183Y0025482D01*
X0045226Y0025302D01*
X0045264Y0025121D01*
X0045298Y0024939D01*
X0045327Y0024756D01*
X0045352Y0024573D01*
X0045373Y0024389D01*
X0045389Y0024205D01*
X0045400Y0024020D01*
X0045407Y0023835D01*
X0045409Y0023650D01*
X0045407Y0023465D01*
X0045400Y0023280D01*
X0045389Y0023095D01*
X0045373Y0022911D01*
X0045352Y0022727D01*
X0045327Y0022544D01*
X0045298Y0022361D01*
X0045264Y0022179D01*
X0045226Y0021998D01*
X0045183Y0021818D01*
X0045136Y0021639D01*
X0045084Y0021462D01*
X0045028Y0021285D01*
X0044968Y0021110D01*
X0044904Y0020937D01*
X0044835Y0020765D01*
X0044762Y0020595D01*
X0044685Y0020427D01*
X0044604Y0020260D01*
X0044519Y0020096D01*
X0044430Y0019934D01*
X0044336Y0019774D01*
X0044239Y0019617D01*
X0044138Y0019462D01*
X0044034Y0019309D01*
X0043925Y0019159D01*
X0043813Y0019012D01*
X0043698Y0018867D01*
X0043579Y0018726D01*
X0043456Y0018587D01*
X0043330Y0018452D01*
X0043201Y0018319D01*
X0043068Y0018190D01*
X0042933Y0018064D01*
X0042794Y0017941D01*
X0042653Y0017822D01*
X0042508Y0017707D01*
X0042361Y0017595D01*
X0042211Y0017486D01*
X0042058Y0017382D01*
X0041903Y0017281D01*
X0041746Y0017184D01*
X0041586Y0017090D01*
X0041424Y0017001D01*
X0041260Y0016916D01*
X0041093Y0016835D01*
X0040925Y0016758D01*
X0040755Y0016685D01*
X0040583Y0016616D01*
X0040410Y0016552D01*
X0040235Y0016492D01*
X0040058Y0016436D01*
X0039881Y0016384D01*
X0039702Y0016337D01*
X0039522Y0016294D01*
X0039341Y0016256D01*
X0039159Y0016222D01*
X0038976Y0016193D01*
X0038793Y0016168D01*
X0038609Y0016147D01*
X0038425Y0016131D01*
X0038240Y0016120D01*
X0038055Y0016113D01*
X0037870Y0016111D01*
X0037685Y0016113D01*
X0037500Y0016120D01*
X0037315Y0016131D01*
X0037131Y0016147D01*
X0036947Y0016168D01*
X0036764Y0016193D01*
X0036581Y0016222D01*
X0036399Y0016256D01*
X0036218Y0016294D01*
X0036038Y0016337D01*
X0035859Y0016384D01*
X0035682Y0016436D01*
X0035505Y0016492D01*
X0035330Y0016552D01*
X0035157Y0016616D01*
X0034985Y0016685D01*
X0034815Y0016758D01*
X0034647Y0016835D01*
X0034480Y0016916D01*
X0034316Y0017001D01*
X0034154Y0017090D01*
X0033994Y0017184D01*
X0033837Y0017281D01*
X0033682Y0017382D01*
X0033529Y0017486D01*
X0033379Y0017595D01*
X0033232Y0017707D01*
X0033087Y0017822D01*
X0032946Y0017941D01*
X0032807Y0018064D01*
X0032672Y0018190D01*
X0032539Y0018319D01*
X0032410Y0018452D01*
X0032284Y0018587D01*
X0032161Y0018726D01*
X0032042Y0018867D01*
X0031927Y0019012D01*
X0031815Y0019159D01*
X0031706Y0019309D01*
X0031602Y0019462D01*
X0031501Y0019617D01*
X0031404Y0019774D01*
X0031310Y0019934D01*
X0031221Y0020096D01*
X0031136Y0020260D01*
X0031055Y0020427D01*
X0030978Y0020595D01*
X0030905Y0020765D01*
X0030836Y0020937D01*
X0030772Y0021110D01*
X0030712Y0021285D01*
X0030656Y0021462D01*
X0030604Y0021639D01*
X0030557Y0021818D01*
X0030514Y0021998D01*
X0030476Y0022179D01*
X0030442Y0022361D01*
X0030413Y0022544D01*
X0030388Y0022727D01*
X0030367Y0022911D01*
X0030351Y0023095D01*
X0030340Y0023280D01*
X0030333Y0023465D01*
X0030331Y0023650D01*
X0007958Y0195244D02*
X0167958Y0195244D01*
X0167958Y0201251D01*
X0167958Y0203152D01*
X0167958Y0218888D01*
X0167958Y0220826D01*
X0007958Y0220826D01*
X0007958Y0223504D01*
X0007958Y0225953D01*
X0007958Y0227134D01*
X0167958Y0227134D01*
X0167958Y0225953D01*
X0007958Y0225953D01*
X0007958Y0223504D02*
X0167958Y0223504D01*
X0167958Y0224287D01*
X0167958Y0225953D01*
X0169167Y0224878D02*
X0168465Y0224287D01*
X0167958Y0224287D01*
X0167958Y0223504D02*
X0167958Y0222657D01*
X0167958Y0220826D01*
X0169167Y0222067D02*
X0168465Y0222657D01*
X0167958Y0222657D01*
X0169167Y0222067D02*
X0170202Y0222067D01*
X0170202Y0224878D01*
X0169167Y0224878D01*
X0150419Y0211091D02*
X0150421Y0211276D01*
X0150428Y0211461D01*
X0150439Y0211646D01*
X0150455Y0211830D01*
X0150476Y0212014D01*
X0150501Y0212197D01*
X0150530Y0212380D01*
X0150564Y0212562D01*
X0150602Y0212743D01*
X0150645Y0212923D01*
X0150692Y0213102D01*
X0150744Y0213279D01*
X0150800Y0213456D01*
X0150860Y0213631D01*
X0150924Y0213804D01*
X0150993Y0213976D01*
X0151066Y0214146D01*
X0151143Y0214314D01*
X0151224Y0214481D01*
X0151309Y0214645D01*
X0151398Y0214807D01*
X0151492Y0214967D01*
X0151589Y0215124D01*
X0151690Y0215279D01*
X0151794Y0215432D01*
X0151903Y0215582D01*
X0152015Y0215729D01*
X0152130Y0215874D01*
X0152249Y0216015D01*
X0152372Y0216154D01*
X0152498Y0216289D01*
X0152627Y0216422D01*
X0152760Y0216551D01*
X0152895Y0216677D01*
X0153034Y0216800D01*
X0153175Y0216919D01*
X0153320Y0217034D01*
X0153467Y0217146D01*
X0153617Y0217255D01*
X0153770Y0217359D01*
X0153925Y0217460D01*
X0154082Y0217557D01*
X0154242Y0217651D01*
X0154404Y0217740D01*
X0154568Y0217825D01*
X0154735Y0217906D01*
X0154903Y0217983D01*
X0155073Y0218056D01*
X0155245Y0218125D01*
X0155418Y0218189D01*
X0155593Y0218249D01*
X0155770Y0218305D01*
X0155947Y0218357D01*
X0156126Y0218404D01*
X0156306Y0218447D01*
X0156487Y0218485D01*
X0156669Y0218519D01*
X0156852Y0218548D01*
X0157035Y0218573D01*
X0157219Y0218594D01*
X0157403Y0218610D01*
X0157588Y0218621D01*
X0157773Y0218628D01*
X0157958Y0218630D01*
X0158143Y0218628D01*
X0158328Y0218621D01*
X0158513Y0218610D01*
X0158697Y0218594D01*
X0158881Y0218573D01*
X0159064Y0218548D01*
X0159247Y0218519D01*
X0159429Y0218485D01*
X0159610Y0218447D01*
X0159790Y0218404D01*
X0159969Y0218357D01*
X0160146Y0218305D01*
X0160323Y0218249D01*
X0160498Y0218189D01*
X0160671Y0218125D01*
X0160843Y0218056D01*
X0161013Y0217983D01*
X0161181Y0217906D01*
X0161348Y0217825D01*
X0161512Y0217740D01*
X0161674Y0217651D01*
X0161834Y0217557D01*
X0161991Y0217460D01*
X0162146Y0217359D01*
X0162299Y0217255D01*
X0162449Y0217146D01*
X0162596Y0217034D01*
X0162741Y0216919D01*
X0162882Y0216800D01*
X0163021Y0216677D01*
X0163156Y0216551D01*
X0163289Y0216422D01*
X0163418Y0216289D01*
X0163544Y0216154D01*
X0163667Y0216015D01*
X0163786Y0215874D01*
X0163901Y0215729D01*
X0164013Y0215582D01*
X0164122Y0215432D01*
X0164226Y0215279D01*
X0164327Y0215124D01*
X0164424Y0214967D01*
X0164518Y0214807D01*
X0164607Y0214645D01*
X0164692Y0214481D01*
X0164773Y0214314D01*
X0164850Y0214146D01*
X0164923Y0213976D01*
X0164992Y0213804D01*
X0165056Y0213631D01*
X0165116Y0213456D01*
X0165172Y0213279D01*
X0165224Y0213102D01*
X0165271Y0212923D01*
X0165314Y0212743D01*
X0165352Y0212562D01*
X0165386Y0212380D01*
X0165415Y0212197D01*
X0165440Y0212014D01*
X0165461Y0211830D01*
X0165477Y0211646D01*
X0165488Y0211461D01*
X0165495Y0211276D01*
X0165497Y0211091D01*
X0165495Y0210906D01*
X0165488Y0210721D01*
X0165477Y0210536D01*
X0165461Y0210352D01*
X0165440Y0210168D01*
X0165415Y0209985D01*
X0165386Y0209802D01*
X0165352Y0209620D01*
X0165314Y0209439D01*
X0165271Y0209259D01*
X0165224Y0209080D01*
X0165172Y0208903D01*
X0165116Y0208726D01*
X0165056Y0208551D01*
X0164992Y0208378D01*
X0164923Y0208206D01*
X0164850Y0208036D01*
X0164773Y0207868D01*
X0164692Y0207701D01*
X0164607Y0207537D01*
X0164518Y0207375D01*
X0164424Y0207215D01*
X0164327Y0207058D01*
X0164226Y0206903D01*
X0164122Y0206750D01*
X0164013Y0206600D01*
X0163901Y0206453D01*
X0163786Y0206308D01*
X0163667Y0206167D01*
X0163544Y0206028D01*
X0163418Y0205893D01*
X0163289Y0205760D01*
X0163156Y0205631D01*
X0163021Y0205505D01*
X0162882Y0205382D01*
X0162741Y0205263D01*
X0162596Y0205148D01*
X0162449Y0205036D01*
X0162299Y0204927D01*
X0162146Y0204823D01*
X0161991Y0204722D01*
X0161834Y0204625D01*
X0161674Y0204531D01*
X0161512Y0204442D01*
X0161348Y0204357D01*
X0161181Y0204276D01*
X0161013Y0204199D01*
X0160843Y0204126D01*
X0160671Y0204057D01*
X0160498Y0203993D01*
X0160323Y0203933D01*
X0160146Y0203877D01*
X0159969Y0203825D01*
X0159790Y0203778D01*
X0159610Y0203735D01*
X0159429Y0203697D01*
X0159247Y0203663D01*
X0159064Y0203634D01*
X0158881Y0203609D01*
X0158697Y0203588D01*
X0158513Y0203572D01*
X0158328Y0203561D01*
X0158143Y0203554D01*
X0157958Y0203552D01*
X0157773Y0203554D01*
X0157588Y0203561D01*
X0157403Y0203572D01*
X0157219Y0203588D01*
X0157035Y0203609D01*
X0156852Y0203634D01*
X0156669Y0203663D01*
X0156487Y0203697D01*
X0156306Y0203735D01*
X0156126Y0203778D01*
X0155947Y0203825D01*
X0155770Y0203877D01*
X0155593Y0203933D01*
X0155418Y0203993D01*
X0155245Y0204057D01*
X0155073Y0204126D01*
X0154903Y0204199D01*
X0154735Y0204276D01*
X0154568Y0204357D01*
X0154404Y0204442D01*
X0154242Y0204531D01*
X0154082Y0204625D01*
X0153925Y0204722D01*
X0153770Y0204823D01*
X0153617Y0204927D01*
X0153467Y0205036D01*
X0153320Y0205148D01*
X0153175Y0205263D01*
X0153034Y0205382D01*
X0152895Y0205505D01*
X0152760Y0205631D01*
X0152627Y0205760D01*
X0152498Y0205893D01*
X0152372Y0206028D01*
X0152249Y0206167D01*
X0152130Y0206308D01*
X0152015Y0206453D01*
X0151903Y0206600D01*
X0151794Y0206750D01*
X0151690Y0206903D01*
X0151589Y0207058D01*
X0151492Y0207215D01*
X0151398Y0207375D01*
X0151309Y0207537D01*
X0151224Y0207701D01*
X0151143Y0207868D01*
X0151066Y0208036D01*
X0150993Y0208206D01*
X0150924Y0208378D01*
X0150860Y0208551D01*
X0150800Y0208726D01*
X0150744Y0208903D01*
X0150692Y0209080D01*
X0150645Y0209259D01*
X0150602Y0209439D01*
X0150564Y0209620D01*
X0150530Y0209802D01*
X0150501Y0209985D01*
X0150476Y0210168D01*
X0150455Y0210352D01*
X0150439Y0210536D01*
X0150428Y0210721D01*
X0150421Y0210906D01*
X0150419Y0211091D01*
X0130419Y0211091D02*
X0130421Y0211276D01*
X0130428Y0211461D01*
X0130439Y0211646D01*
X0130455Y0211830D01*
X0130476Y0212014D01*
X0130501Y0212197D01*
X0130530Y0212380D01*
X0130564Y0212562D01*
X0130602Y0212743D01*
X0130645Y0212923D01*
X0130692Y0213102D01*
X0130744Y0213279D01*
X0130800Y0213456D01*
X0130860Y0213631D01*
X0130924Y0213804D01*
X0130993Y0213976D01*
X0131066Y0214146D01*
X0131143Y0214314D01*
X0131224Y0214481D01*
X0131309Y0214645D01*
X0131398Y0214807D01*
X0131492Y0214967D01*
X0131589Y0215124D01*
X0131690Y0215279D01*
X0131794Y0215432D01*
X0131903Y0215582D01*
X0132015Y0215729D01*
X0132130Y0215874D01*
X0132249Y0216015D01*
X0132372Y0216154D01*
X0132498Y0216289D01*
X0132627Y0216422D01*
X0132760Y0216551D01*
X0132895Y0216677D01*
X0133034Y0216800D01*
X0133175Y0216919D01*
X0133320Y0217034D01*
X0133467Y0217146D01*
X0133617Y0217255D01*
X0133770Y0217359D01*
X0133925Y0217460D01*
X0134082Y0217557D01*
X0134242Y0217651D01*
X0134404Y0217740D01*
X0134568Y0217825D01*
X0134735Y0217906D01*
X0134903Y0217983D01*
X0135073Y0218056D01*
X0135245Y0218125D01*
X0135418Y0218189D01*
X0135593Y0218249D01*
X0135770Y0218305D01*
X0135947Y0218357D01*
X0136126Y0218404D01*
X0136306Y0218447D01*
X0136487Y0218485D01*
X0136669Y0218519D01*
X0136852Y0218548D01*
X0137035Y0218573D01*
X0137219Y0218594D01*
X0137403Y0218610D01*
X0137588Y0218621D01*
X0137773Y0218628D01*
X0137958Y0218630D01*
X0138143Y0218628D01*
X0138328Y0218621D01*
X0138513Y0218610D01*
X0138697Y0218594D01*
X0138881Y0218573D01*
X0139064Y0218548D01*
X0139247Y0218519D01*
X0139429Y0218485D01*
X0139610Y0218447D01*
X0139790Y0218404D01*
X0139969Y0218357D01*
X0140146Y0218305D01*
X0140323Y0218249D01*
X0140498Y0218189D01*
X0140671Y0218125D01*
X0140843Y0218056D01*
X0141013Y0217983D01*
X0141181Y0217906D01*
X0141348Y0217825D01*
X0141512Y0217740D01*
X0141674Y0217651D01*
X0141834Y0217557D01*
X0141991Y0217460D01*
X0142146Y0217359D01*
X0142299Y0217255D01*
X0142449Y0217146D01*
X0142596Y0217034D01*
X0142741Y0216919D01*
X0142882Y0216800D01*
X0143021Y0216677D01*
X0143156Y0216551D01*
X0143289Y0216422D01*
X0143418Y0216289D01*
X0143544Y0216154D01*
X0143667Y0216015D01*
X0143786Y0215874D01*
X0143901Y0215729D01*
X0144013Y0215582D01*
X0144122Y0215432D01*
X0144226Y0215279D01*
X0144327Y0215124D01*
X0144424Y0214967D01*
X0144518Y0214807D01*
X0144607Y0214645D01*
X0144692Y0214481D01*
X0144773Y0214314D01*
X0144850Y0214146D01*
X0144923Y0213976D01*
X0144992Y0213804D01*
X0145056Y0213631D01*
X0145116Y0213456D01*
X0145172Y0213279D01*
X0145224Y0213102D01*
X0145271Y0212923D01*
X0145314Y0212743D01*
X0145352Y0212562D01*
X0145386Y0212380D01*
X0145415Y0212197D01*
X0145440Y0212014D01*
X0145461Y0211830D01*
X0145477Y0211646D01*
X0145488Y0211461D01*
X0145495Y0211276D01*
X0145497Y0211091D01*
X0145495Y0210906D01*
X0145488Y0210721D01*
X0145477Y0210536D01*
X0145461Y0210352D01*
X0145440Y0210168D01*
X0145415Y0209985D01*
X0145386Y0209802D01*
X0145352Y0209620D01*
X0145314Y0209439D01*
X0145271Y0209259D01*
X0145224Y0209080D01*
X0145172Y0208903D01*
X0145116Y0208726D01*
X0145056Y0208551D01*
X0144992Y0208378D01*
X0144923Y0208206D01*
X0144850Y0208036D01*
X0144773Y0207868D01*
X0144692Y0207701D01*
X0144607Y0207537D01*
X0144518Y0207375D01*
X0144424Y0207215D01*
X0144327Y0207058D01*
X0144226Y0206903D01*
X0144122Y0206750D01*
X0144013Y0206600D01*
X0143901Y0206453D01*
X0143786Y0206308D01*
X0143667Y0206167D01*
X0143544Y0206028D01*
X0143418Y0205893D01*
X0143289Y0205760D01*
X0143156Y0205631D01*
X0143021Y0205505D01*
X0142882Y0205382D01*
X0142741Y0205263D01*
X0142596Y0205148D01*
X0142449Y0205036D01*
X0142299Y0204927D01*
X0142146Y0204823D01*
X0141991Y0204722D01*
X0141834Y0204625D01*
X0141674Y0204531D01*
X0141512Y0204442D01*
X0141348Y0204357D01*
X0141181Y0204276D01*
X0141013Y0204199D01*
X0140843Y0204126D01*
X0140671Y0204057D01*
X0140498Y0203993D01*
X0140323Y0203933D01*
X0140146Y0203877D01*
X0139969Y0203825D01*
X0139790Y0203778D01*
X0139610Y0203735D01*
X0139429Y0203697D01*
X0139247Y0203663D01*
X0139064Y0203634D01*
X0138881Y0203609D01*
X0138697Y0203588D01*
X0138513Y0203572D01*
X0138328Y0203561D01*
X0138143Y0203554D01*
X0137958Y0203552D01*
X0137773Y0203554D01*
X0137588Y0203561D01*
X0137403Y0203572D01*
X0137219Y0203588D01*
X0137035Y0203609D01*
X0136852Y0203634D01*
X0136669Y0203663D01*
X0136487Y0203697D01*
X0136306Y0203735D01*
X0136126Y0203778D01*
X0135947Y0203825D01*
X0135770Y0203877D01*
X0135593Y0203933D01*
X0135418Y0203993D01*
X0135245Y0204057D01*
X0135073Y0204126D01*
X0134903Y0204199D01*
X0134735Y0204276D01*
X0134568Y0204357D01*
X0134404Y0204442D01*
X0134242Y0204531D01*
X0134082Y0204625D01*
X0133925Y0204722D01*
X0133770Y0204823D01*
X0133617Y0204927D01*
X0133467Y0205036D01*
X0133320Y0205148D01*
X0133175Y0205263D01*
X0133034Y0205382D01*
X0132895Y0205505D01*
X0132760Y0205631D01*
X0132627Y0205760D01*
X0132498Y0205893D01*
X0132372Y0206028D01*
X0132249Y0206167D01*
X0132130Y0206308D01*
X0132015Y0206453D01*
X0131903Y0206600D01*
X0131794Y0206750D01*
X0131690Y0206903D01*
X0131589Y0207058D01*
X0131492Y0207215D01*
X0131398Y0207375D01*
X0131309Y0207537D01*
X0131224Y0207701D01*
X0131143Y0207868D01*
X0131066Y0208036D01*
X0130993Y0208206D01*
X0130924Y0208378D01*
X0130860Y0208551D01*
X0130800Y0208726D01*
X0130744Y0208903D01*
X0130692Y0209080D01*
X0130645Y0209259D01*
X0130602Y0209439D01*
X0130564Y0209620D01*
X0130530Y0209802D01*
X0130501Y0209985D01*
X0130476Y0210168D01*
X0130455Y0210352D01*
X0130439Y0210536D01*
X0130428Y0210721D01*
X0130421Y0210906D01*
X0130419Y0211091D01*
X0110419Y0211091D02*
X0110421Y0211276D01*
X0110428Y0211461D01*
X0110439Y0211646D01*
X0110455Y0211830D01*
X0110476Y0212014D01*
X0110501Y0212197D01*
X0110530Y0212380D01*
X0110564Y0212562D01*
X0110602Y0212743D01*
X0110645Y0212923D01*
X0110692Y0213102D01*
X0110744Y0213279D01*
X0110800Y0213456D01*
X0110860Y0213631D01*
X0110924Y0213804D01*
X0110993Y0213976D01*
X0111066Y0214146D01*
X0111143Y0214314D01*
X0111224Y0214481D01*
X0111309Y0214645D01*
X0111398Y0214807D01*
X0111492Y0214967D01*
X0111589Y0215124D01*
X0111690Y0215279D01*
X0111794Y0215432D01*
X0111903Y0215582D01*
X0112015Y0215729D01*
X0112130Y0215874D01*
X0112249Y0216015D01*
X0112372Y0216154D01*
X0112498Y0216289D01*
X0112627Y0216422D01*
X0112760Y0216551D01*
X0112895Y0216677D01*
X0113034Y0216800D01*
X0113175Y0216919D01*
X0113320Y0217034D01*
X0113467Y0217146D01*
X0113617Y0217255D01*
X0113770Y0217359D01*
X0113925Y0217460D01*
X0114082Y0217557D01*
X0114242Y0217651D01*
X0114404Y0217740D01*
X0114568Y0217825D01*
X0114735Y0217906D01*
X0114903Y0217983D01*
X0115073Y0218056D01*
X0115245Y0218125D01*
X0115418Y0218189D01*
X0115593Y0218249D01*
X0115770Y0218305D01*
X0115947Y0218357D01*
X0116126Y0218404D01*
X0116306Y0218447D01*
X0116487Y0218485D01*
X0116669Y0218519D01*
X0116852Y0218548D01*
X0117035Y0218573D01*
X0117219Y0218594D01*
X0117403Y0218610D01*
X0117588Y0218621D01*
X0117773Y0218628D01*
X0117958Y0218630D01*
X0118143Y0218628D01*
X0118328Y0218621D01*
X0118513Y0218610D01*
X0118697Y0218594D01*
X0118881Y0218573D01*
X0119064Y0218548D01*
X0119247Y0218519D01*
X0119429Y0218485D01*
X0119610Y0218447D01*
X0119790Y0218404D01*
X0119969Y0218357D01*
X0120146Y0218305D01*
X0120323Y0218249D01*
X0120498Y0218189D01*
X0120671Y0218125D01*
X0120843Y0218056D01*
X0121013Y0217983D01*
X0121181Y0217906D01*
X0121348Y0217825D01*
X0121512Y0217740D01*
X0121674Y0217651D01*
X0121834Y0217557D01*
X0121991Y0217460D01*
X0122146Y0217359D01*
X0122299Y0217255D01*
X0122449Y0217146D01*
X0122596Y0217034D01*
X0122741Y0216919D01*
X0122882Y0216800D01*
X0123021Y0216677D01*
X0123156Y0216551D01*
X0123289Y0216422D01*
X0123418Y0216289D01*
X0123544Y0216154D01*
X0123667Y0216015D01*
X0123786Y0215874D01*
X0123901Y0215729D01*
X0124013Y0215582D01*
X0124122Y0215432D01*
X0124226Y0215279D01*
X0124327Y0215124D01*
X0124424Y0214967D01*
X0124518Y0214807D01*
X0124607Y0214645D01*
X0124692Y0214481D01*
X0124773Y0214314D01*
X0124850Y0214146D01*
X0124923Y0213976D01*
X0124992Y0213804D01*
X0125056Y0213631D01*
X0125116Y0213456D01*
X0125172Y0213279D01*
X0125224Y0213102D01*
X0125271Y0212923D01*
X0125314Y0212743D01*
X0125352Y0212562D01*
X0125386Y0212380D01*
X0125415Y0212197D01*
X0125440Y0212014D01*
X0125461Y0211830D01*
X0125477Y0211646D01*
X0125488Y0211461D01*
X0125495Y0211276D01*
X0125497Y0211091D01*
X0125495Y0210906D01*
X0125488Y0210721D01*
X0125477Y0210536D01*
X0125461Y0210352D01*
X0125440Y0210168D01*
X0125415Y0209985D01*
X0125386Y0209802D01*
X0125352Y0209620D01*
X0125314Y0209439D01*
X0125271Y0209259D01*
X0125224Y0209080D01*
X0125172Y0208903D01*
X0125116Y0208726D01*
X0125056Y0208551D01*
X0124992Y0208378D01*
X0124923Y0208206D01*
X0124850Y0208036D01*
X0124773Y0207868D01*
X0124692Y0207701D01*
X0124607Y0207537D01*
X0124518Y0207375D01*
X0124424Y0207215D01*
X0124327Y0207058D01*
X0124226Y0206903D01*
X0124122Y0206750D01*
X0124013Y0206600D01*
X0123901Y0206453D01*
X0123786Y0206308D01*
X0123667Y0206167D01*
X0123544Y0206028D01*
X0123418Y0205893D01*
X0123289Y0205760D01*
X0123156Y0205631D01*
X0123021Y0205505D01*
X0122882Y0205382D01*
X0122741Y0205263D01*
X0122596Y0205148D01*
X0122449Y0205036D01*
X0122299Y0204927D01*
X0122146Y0204823D01*
X0121991Y0204722D01*
X0121834Y0204625D01*
X0121674Y0204531D01*
X0121512Y0204442D01*
X0121348Y0204357D01*
X0121181Y0204276D01*
X0121013Y0204199D01*
X0120843Y0204126D01*
X0120671Y0204057D01*
X0120498Y0203993D01*
X0120323Y0203933D01*
X0120146Y0203877D01*
X0119969Y0203825D01*
X0119790Y0203778D01*
X0119610Y0203735D01*
X0119429Y0203697D01*
X0119247Y0203663D01*
X0119064Y0203634D01*
X0118881Y0203609D01*
X0118697Y0203588D01*
X0118513Y0203572D01*
X0118328Y0203561D01*
X0118143Y0203554D01*
X0117958Y0203552D01*
X0117773Y0203554D01*
X0117588Y0203561D01*
X0117403Y0203572D01*
X0117219Y0203588D01*
X0117035Y0203609D01*
X0116852Y0203634D01*
X0116669Y0203663D01*
X0116487Y0203697D01*
X0116306Y0203735D01*
X0116126Y0203778D01*
X0115947Y0203825D01*
X0115770Y0203877D01*
X0115593Y0203933D01*
X0115418Y0203993D01*
X0115245Y0204057D01*
X0115073Y0204126D01*
X0114903Y0204199D01*
X0114735Y0204276D01*
X0114568Y0204357D01*
X0114404Y0204442D01*
X0114242Y0204531D01*
X0114082Y0204625D01*
X0113925Y0204722D01*
X0113770Y0204823D01*
X0113617Y0204927D01*
X0113467Y0205036D01*
X0113320Y0205148D01*
X0113175Y0205263D01*
X0113034Y0205382D01*
X0112895Y0205505D01*
X0112760Y0205631D01*
X0112627Y0205760D01*
X0112498Y0205893D01*
X0112372Y0206028D01*
X0112249Y0206167D01*
X0112130Y0206308D01*
X0112015Y0206453D01*
X0111903Y0206600D01*
X0111794Y0206750D01*
X0111690Y0206903D01*
X0111589Y0207058D01*
X0111492Y0207215D01*
X0111398Y0207375D01*
X0111309Y0207537D01*
X0111224Y0207701D01*
X0111143Y0207868D01*
X0111066Y0208036D01*
X0110993Y0208206D01*
X0110924Y0208378D01*
X0110860Y0208551D01*
X0110800Y0208726D01*
X0110744Y0208903D01*
X0110692Y0209080D01*
X0110645Y0209259D01*
X0110602Y0209439D01*
X0110564Y0209620D01*
X0110530Y0209802D01*
X0110501Y0209985D01*
X0110476Y0210168D01*
X0110455Y0210352D01*
X0110439Y0210536D01*
X0110428Y0210721D01*
X0110421Y0210906D01*
X0110419Y0211091D01*
X0090419Y0211091D02*
X0090421Y0211276D01*
X0090428Y0211461D01*
X0090439Y0211646D01*
X0090455Y0211830D01*
X0090476Y0212014D01*
X0090501Y0212197D01*
X0090530Y0212380D01*
X0090564Y0212562D01*
X0090602Y0212743D01*
X0090645Y0212923D01*
X0090692Y0213102D01*
X0090744Y0213279D01*
X0090800Y0213456D01*
X0090860Y0213631D01*
X0090924Y0213804D01*
X0090993Y0213976D01*
X0091066Y0214146D01*
X0091143Y0214314D01*
X0091224Y0214481D01*
X0091309Y0214645D01*
X0091398Y0214807D01*
X0091492Y0214967D01*
X0091589Y0215124D01*
X0091690Y0215279D01*
X0091794Y0215432D01*
X0091903Y0215582D01*
X0092015Y0215729D01*
X0092130Y0215874D01*
X0092249Y0216015D01*
X0092372Y0216154D01*
X0092498Y0216289D01*
X0092627Y0216422D01*
X0092760Y0216551D01*
X0092895Y0216677D01*
X0093034Y0216800D01*
X0093175Y0216919D01*
X0093320Y0217034D01*
X0093467Y0217146D01*
X0093617Y0217255D01*
X0093770Y0217359D01*
X0093925Y0217460D01*
X0094082Y0217557D01*
X0094242Y0217651D01*
X0094404Y0217740D01*
X0094568Y0217825D01*
X0094735Y0217906D01*
X0094903Y0217983D01*
X0095073Y0218056D01*
X0095245Y0218125D01*
X0095418Y0218189D01*
X0095593Y0218249D01*
X0095770Y0218305D01*
X0095947Y0218357D01*
X0096126Y0218404D01*
X0096306Y0218447D01*
X0096487Y0218485D01*
X0096669Y0218519D01*
X0096852Y0218548D01*
X0097035Y0218573D01*
X0097219Y0218594D01*
X0097403Y0218610D01*
X0097588Y0218621D01*
X0097773Y0218628D01*
X0097958Y0218630D01*
X0098143Y0218628D01*
X0098328Y0218621D01*
X0098513Y0218610D01*
X0098697Y0218594D01*
X0098881Y0218573D01*
X0099064Y0218548D01*
X0099247Y0218519D01*
X0099429Y0218485D01*
X0099610Y0218447D01*
X0099790Y0218404D01*
X0099969Y0218357D01*
X0100146Y0218305D01*
X0100323Y0218249D01*
X0100498Y0218189D01*
X0100671Y0218125D01*
X0100843Y0218056D01*
X0101013Y0217983D01*
X0101181Y0217906D01*
X0101348Y0217825D01*
X0101512Y0217740D01*
X0101674Y0217651D01*
X0101834Y0217557D01*
X0101991Y0217460D01*
X0102146Y0217359D01*
X0102299Y0217255D01*
X0102449Y0217146D01*
X0102596Y0217034D01*
X0102741Y0216919D01*
X0102882Y0216800D01*
X0103021Y0216677D01*
X0103156Y0216551D01*
X0103289Y0216422D01*
X0103418Y0216289D01*
X0103544Y0216154D01*
X0103667Y0216015D01*
X0103786Y0215874D01*
X0103901Y0215729D01*
X0104013Y0215582D01*
X0104122Y0215432D01*
X0104226Y0215279D01*
X0104327Y0215124D01*
X0104424Y0214967D01*
X0104518Y0214807D01*
X0104607Y0214645D01*
X0104692Y0214481D01*
X0104773Y0214314D01*
X0104850Y0214146D01*
X0104923Y0213976D01*
X0104992Y0213804D01*
X0105056Y0213631D01*
X0105116Y0213456D01*
X0105172Y0213279D01*
X0105224Y0213102D01*
X0105271Y0212923D01*
X0105314Y0212743D01*
X0105352Y0212562D01*
X0105386Y0212380D01*
X0105415Y0212197D01*
X0105440Y0212014D01*
X0105461Y0211830D01*
X0105477Y0211646D01*
X0105488Y0211461D01*
X0105495Y0211276D01*
X0105497Y0211091D01*
X0105495Y0210906D01*
X0105488Y0210721D01*
X0105477Y0210536D01*
X0105461Y0210352D01*
X0105440Y0210168D01*
X0105415Y0209985D01*
X0105386Y0209802D01*
X0105352Y0209620D01*
X0105314Y0209439D01*
X0105271Y0209259D01*
X0105224Y0209080D01*
X0105172Y0208903D01*
X0105116Y0208726D01*
X0105056Y0208551D01*
X0104992Y0208378D01*
X0104923Y0208206D01*
X0104850Y0208036D01*
X0104773Y0207868D01*
X0104692Y0207701D01*
X0104607Y0207537D01*
X0104518Y0207375D01*
X0104424Y0207215D01*
X0104327Y0207058D01*
X0104226Y0206903D01*
X0104122Y0206750D01*
X0104013Y0206600D01*
X0103901Y0206453D01*
X0103786Y0206308D01*
X0103667Y0206167D01*
X0103544Y0206028D01*
X0103418Y0205893D01*
X0103289Y0205760D01*
X0103156Y0205631D01*
X0103021Y0205505D01*
X0102882Y0205382D01*
X0102741Y0205263D01*
X0102596Y0205148D01*
X0102449Y0205036D01*
X0102299Y0204927D01*
X0102146Y0204823D01*
X0101991Y0204722D01*
X0101834Y0204625D01*
X0101674Y0204531D01*
X0101512Y0204442D01*
X0101348Y0204357D01*
X0101181Y0204276D01*
X0101013Y0204199D01*
X0100843Y0204126D01*
X0100671Y0204057D01*
X0100498Y0203993D01*
X0100323Y0203933D01*
X0100146Y0203877D01*
X0099969Y0203825D01*
X0099790Y0203778D01*
X0099610Y0203735D01*
X0099429Y0203697D01*
X0099247Y0203663D01*
X0099064Y0203634D01*
X0098881Y0203609D01*
X0098697Y0203588D01*
X0098513Y0203572D01*
X0098328Y0203561D01*
X0098143Y0203554D01*
X0097958Y0203552D01*
X0097773Y0203554D01*
X0097588Y0203561D01*
X0097403Y0203572D01*
X0097219Y0203588D01*
X0097035Y0203609D01*
X0096852Y0203634D01*
X0096669Y0203663D01*
X0096487Y0203697D01*
X0096306Y0203735D01*
X0096126Y0203778D01*
X0095947Y0203825D01*
X0095770Y0203877D01*
X0095593Y0203933D01*
X0095418Y0203993D01*
X0095245Y0204057D01*
X0095073Y0204126D01*
X0094903Y0204199D01*
X0094735Y0204276D01*
X0094568Y0204357D01*
X0094404Y0204442D01*
X0094242Y0204531D01*
X0094082Y0204625D01*
X0093925Y0204722D01*
X0093770Y0204823D01*
X0093617Y0204927D01*
X0093467Y0205036D01*
X0093320Y0205148D01*
X0093175Y0205263D01*
X0093034Y0205382D01*
X0092895Y0205505D01*
X0092760Y0205631D01*
X0092627Y0205760D01*
X0092498Y0205893D01*
X0092372Y0206028D01*
X0092249Y0206167D01*
X0092130Y0206308D01*
X0092015Y0206453D01*
X0091903Y0206600D01*
X0091794Y0206750D01*
X0091690Y0206903D01*
X0091589Y0207058D01*
X0091492Y0207215D01*
X0091398Y0207375D01*
X0091309Y0207537D01*
X0091224Y0207701D01*
X0091143Y0207868D01*
X0091066Y0208036D01*
X0090993Y0208206D01*
X0090924Y0208378D01*
X0090860Y0208551D01*
X0090800Y0208726D01*
X0090744Y0208903D01*
X0090692Y0209080D01*
X0090645Y0209259D01*
X0090602Y0209439D01*
X0090564Y0209620D01*
X0090530Y0209802D01*
X0090501Y0209985D01*
X0090476Y0210168D01*
X0090455Y0210352D01*
X0090439Y0210536D01*
X0090428Y0210721D01*
X0090421Y0210906D01*
X0090419Y0211091D01*
X0070419Y0211091D02*
X0070421Y0211276D01*
X0070428Y0211461D01*
X0070439Y0211646D01*
X0070455Y0211830D01*
X0070476Y0212014D01*
X0070501Y0212197D01*
X0070530Y0212380D01*
X0070564Y0212562D01*
X0070602Y0212743D01*
X0070645Y0212923D01*
X0070692Y0213102D01*
X0070744Y0213279D01*
X0070800Y0213456D01*
X0070860Y0213631D01*
X0070924Y0213804D01*
X0070993Y0213976D01*
X0071066Y0214146D01*
X0071143Y0214314D01*
X0071224Y0214481D01*
X0071309Y0214645D01*
X0071398Y0214807D01*
X0071492Y0214967D01*
X0071589Y0215124D01*
X0071690Y0215279D01*
X0071794Y0215432D01*
X0071903Y0215582D01*
X0072015Y0215729D01*
X0072130Y0215874D01*
X0072249Y0216015D01*
X0072372Y0216154D01*
X0072498Y0216289D01*
X0072627Y0216422D01*
X0072760Y0216551D01*
X0072895Y0216677D01*
X0073034Y0216800D01*
X0073175Y0216919D01*
X0073320Y0217034D01*
X0073467Y0217146D01*
X0073617Y0217255D01*
X0073770Y0217359D01*
X0073925Y0217460D01*
X0074082Y0217557D01*
X0074242Y0217651D01*
X0074404Y0217740D01*
X0074568Y0217825D01*
X0074735Y0217906D01*
X0074903Y0217983D01*
X0075073Y0218056D01*
X0075245Y0218125D01*
X0075418Y0218189D01*
X0075593Y0218249D01*
X0075770Y0218305D01*
X0075947Y0218357D01*
X0076126Y0218404D01*
X0076306Y0218447D01*
X0076487Y0218485D01*
X0076669Y0218519D01*
X0076852Y0218548D01*
X0077035Y0218573D01*
X0077219Y0218594D01*
X0077403Y0218610D01*
X0077588Y0218621D01*
X0077773Y0218628D01*
X0077958Y0218630D01*
X0078143Y0218628D01*
X0078328Y0218621D01*
X0078513Y0218610D01*
X0078697Y0218594D01*
X0078881Y0218573D01*
X0079064Y0218548D01*
X0079247Y0218519D01*
X0079429Y0218485D01*
X0079610Y0218447D01*
X0079790Y0218404D01*
X0079969Y0218357D01*
X0080146Y0218305D01*
X0080323Y0218249D01*
X0080498Y0218189D01*
X0080671Y0218125D01*
X0080843Y0218056D01*
X0081013Y0217983D01*
X0081181Y0217906D01*
X0081348Y0217825D01*
X0081512Y0217740D01*
X0081674Y0217651D01*
X0081834Y0217557D01*
X0081991Y0217460D01*
X0082146Y0217359D01*
X0082299Y0217255D01*
X0082449Y0217146D01*
X0082596Y0217034D01*
X0082741Y0216919D01*
X0082882Y0216800D01*
X0083021Y0216677D01*
X0083156Y0216551D01*
X0083289Y0216422D01*
X0083418Y0216289D01*
X0083544Y0216154D01*
X0083667Y0216015D01*
X0083786Y0215874D01*
X0083901Y0215729D01*
X0084013Y0215582D01*
X0084122Y0215432D01*
X0084226Y0215279D01*
X0084327Y0215124D01*
X0084424Y0214967D01*
X0084518Y0214807D01*
X0084607Y0214645D01*
X0084692Y0214481D01*
X0084773Y0214314D01*
X0084850Y0214146D01*
X0084923Y0213976D01*
X0084992Y0213804D01*
X0085056Y0213631D01*
X0085116Y0213456D01*
X0085172Y0213279D01*
X0085224Y0213102D01*
X0085271Y0212923D01*
X0085314Y0212743D01*
X0085352Y0212562D01*
X0085386Y0212380D01*
X0085415Y0212197D01*
X0085440Y0212014D01*
X0085461Y0211830D01*
X0085477Y0211646D01*
X0085488Y0211461D01*
X0085495Y0211276D01*
X0085497Y0211091D01*
X0085495Y0210906D01*
X0085488Y0210721D01*
X0085477Y0210536D01*
X0085461Y0210352D01*
X0085440Y0210168D01*
X0085415Y0209985D01*
X0085386Y0209802D01*
X0085352Y0209620D01*
X0085314Y0209439D01*
X0085271Y0209259D01*
X0085224Y0209080D01*
X0085172Y0208903D01*
X0085116Y0208726D01*
X0085056Y0208551D01*
X0084992Y0208378D01*
X0084923Y0208206D01*
X0084850Y0208036D01*
X0084773Y0207868D01*
X0084692Y0207701D01*
X0084607Y0207537D01*
X0084518Y0207375D01*
X0084424Y0207215D01*
X0084327Y0207058D01*
X0084226Y0206903D01*
X0084122Y0206750D01*
X0084013Y0206600D01*
X0083901Y0206453D01*
X0083786Y0206308D01*
X0083667Y0206167D01*
X0083544Y0206028D01*
X0083418Y0205893D01*
X0083289Y0205760D01*
X0083156Y0205631D01*
X0083021Y0205505D01*
X0082882Y0205382D01*
X0082741Y0205263D01*
X0082596Y0205148D01*
X0082449Y0205036D01*
X0082299Y0204927D01*
X0082146Y0204823D01*
X0081991Y0204722D01*
X0081834Y0204625D01*
X0081674Y0204531D01*
X0081512Y0204442D01*
X0081348Y0204357D01*
X0081181Y0204276D01*
X0081013Y0204199D01*
X0080843Y0204126D01*
X0080671Y0204057D01*
X0080498Y0203993D01*
X0080323Y0203933D01*
X0080146Y0203877D01*
X0079969Y0203825D01*
X0079790Y0203778D01*
X0079610Y0203735D01*
X0079429Y0203697D01*
X0079247Y0203663D01*
X0079064Y0203634D01*
X0078881Y0203609D01*
X0078697Y0203588D01*
X0078513Y0203572D01*
X0078328Y0203561D01*
X0078143Y0203554D01*
X0077958Y0203552D01*
X0077773Y0203554D01*
X0077588Y0203561D01*
X0077403Y0203572D01*
X0077219Y0203588D01*
X0077035Y0203609D01*
X0076852Y0203634D01*
X0076669Y0203663D01*
X0076487Y0203697D01*
X0076306Y0203735D01*
X0076126Y0203778D01*
X0075947Y0203825D01*
X0075770Y0203877D01*
X0075593Y0203933D01*
X0075418Y0203993D01*
X0075245Y0204057D01*
X0075073Y0204126D01*
X0074903Y0204199D01*
X0074735Y0204276D01*
X0074568Y0204357D01*
X0074404Y0204442D01*
X0074242Y0204531D01*
X0074082Y0204625D01*
X0073925Y0204722D01*
X0073770Y0204823D01*
X0073617Y0204927D01*
X0073467Y0205036D01*
X0073320Y0205148D01*
X0073175Y0205263D01*
X0073034Y0205382D01*
X0072895Y0205505D01*
X0072760Y0205631D01*
X0072627Y0205760D01*
X0072498Y0205893D01*
X0072372Y0206028D01*
X0072249Y0206167D01*
X0072130Y0206308D01*
X0072015Y0206453D01*
X0071903Y0206600D01*
X0071794Y0206750D01*
X0071690Y0206903D01*
X0071589Y0207058D01*
X0071492Y0207215D01*
X0071398Y0207375D01*
X0071309Y0207537D01*
X0071224Y0207701D01*
X0071143Y0207868D01*
X0071066Y0208036D01*
X0070993Y0208206D01*
X0070924Y0208378D01*
X0070860Y0208551D01*
X0070800Y0208726D01*
X0070744Y0208903D01*
X0070692Y0209080D01*
X0070645Y0209259D01*
X0070602Y0209439D01*
X0070564Y0209620D01*
X0070530Y0209802D01*
X0070501Y0209985D01*
X0070476Y0210168D01*
X0070455Y0210352D01*
X0070439Y0210536D01*
X0070428Y0210721D01*
X0070421Y0210906D01*
X0070419Y0211091D01*
X0050419Y0211091D02*
X0050421Y0211276D01*
X0050428Y0211461D01*
X0050439Y0211646D01*
X0050455Y0211830D01*
X0050476Y0212014D01*
X0050501Y0212197D01*
X0050530Y0212380D01*
X0050564Y0212562D01*
X0050602Y0212743D01*
X0050645Y0212923D01*
X0050692Y0213102D01*
X0050744Y0213279D01*
X0050800Y0213456D01*
X0050860Y0213631D01*
X0050924Y0213804D01*
X0050993Y0213976D01*
X0051066Y0214146D01*
X0051143Y0214314D01*
X0051224Y0214481D01*
X0051309Y0214645D01*
X0051398Y0214807D01*
X0051492Y0214967D01*
X0051589Y0215124D01*
X0051690Y0215279D01*
X0051794Y0215432D01*
X0051903Y0215582D01*
X0052015Y0215729D01*
X0052130Y0215874D01*
X0052249Y0216015D01*
X0052372Y0216154D01*
X0052498Y0216289D01*
X0052627Y0216422D01*
X0052760Y0216551D01*
X0052895Y0216677D01*
X0053034Y0216800D01*
X0053175Y0216919D01*
X0053320Y0217034D01*
X0053467Y0217146D01*
X0053617Y0217255D01*
X0053770Y0217359D01*
X0053925Y0217460D01*
X0054082Y0217557D01*
X0054242Y0217651D01*
X0054404Y0217740D01*
X0054568Y0217825D01*
X0054735Y0217906D01*
X0054903Y0217983D01*
X0055073Y0218056D01*
X0055245Y0218125D01*
X0055418Y0218189D01*
X0055593Y0218249D01*
X0055770Y0218305D01*
X0055947Y0218357D01*
X0056126Y0218404D01*
X0056306Y0218447D01*
X0056487Y0218485D01*
X0056669Y0218519D01*
X0056852Y0218548D01*
X0057035Y0218573D01*
X0057219Y0218594D01*
X0057403Y0218610D01*
X0057588Y0218621D01*
X0057773Y0218628D01*
X0057958Y0218630D01*
X0058143Y0218628D01*
X0058328Y0218621D01*
X0058513Y0218610D01*
X0058697Y0218594D01*
X0058881Y0218573D01*
X0059064Y0218548D01*
X0059247Y0218519D01*
X0059429Y0218485D01*
X0059610Y0218447D01*
X0059790Y0218404D01*
X0059969Y0218357D01*
X0060146Y0218305D01*
X0060323Y0218249D01*
X0060498Y0218189D01*
X0060671Y0218125D01*
X0060843Y0218056D01*
X0061013Y0217983D01*
X0061181Y0217906D01*
X0061348Y0217825D01*
X0061512Y0217740D01*
X0061674Y0217651D01*
X0061834Y0217557D01*
X0061991Y0217460D01*
X0062146Y0217359D01*
X0062299Y0217255D01*
X0062449Y0217146D01*
X0062596Y0217034D01*
X0062741Y0216919D01*
X0062882Y0216800D01*
X0063021Y0216677D01*
X0063156Y0216551D01*
X0063289Y0216422D01*
X0063418Y0216289D01*
X0063544Y0216154D01*
X0063667Y0216015D01*
X0063786Y0215874D01*
X0063901Y0215729D01*
X0064013Y0215582D01*
X0064122Y0215432D01*
X0064226Y0215279D01*
X0064327Y0215124D01*
X0064424Y0214967D01*
X0064518Y0214807D01*
X0064607Y0214645D01*
X0064692Y0214481D01*
X0064773Y0214314D01*
X0064850Y0214146D01*
X0064923Y0213976D01*
X0064992Y0213804D01*
X0065056Y0213631D01*
X0065116Y0213456D01*
X0065172Y0213279D01*
X0065224Y0213102D01*
X0065271Y0212923D01*
X0065314Y0212743D01*
X0065352Y0212562D01*
X0065386Y0212380D01*
X0065415Y0212197D01*
X0065440Y0212014D01*
X0065461Y0211830D01*
X0065477Y0211646D01*
X0065488Y0211461D01*
X0065495Y0211276D01*
X0065497Y0211091D01*
X0065495Y0210906D01*
X0065488Y0210721D01*
X0065477Y0210536D01*
X0065461Y0210352D01*
X0065440Y0210168D01*
X0065415Y0209985D01*
X0065386Y0209802D01*
X0065352Y0209620D01*
X0065314Y0209439D01*
X0065271Y0209259D01*
X0065224Y0209080D01*
X0065172Y0208903D01*
X0065116Y0208726D01*
X0065056Y0208551D01*
X0064992Y0208378D01*
X0064923Y0208206D01*
X0064850Y0208036D01*
X0064773Y0207868D01*
X0064692Y0207701D01*
X0064607Y0207537D01*
X0064518Y0207375D01*
X0064424Y0207215D01*
X0064327Y0207058D01*
X0064226Y0206903D01*
X0064122Y0206750D01*
X0064013Y0206600D01*
X0063901Y0206453D01*
X0063786Y0206308D01*
X0063667Y0206167D01*
X0063544Y0206028D01*
X0063418Y0205893D01*
X0063289Y0205760D01*
X0063156Y0205631D01*
X0063021Y0205505D01*
X0062882Y0205382D01*
X0062741Y0205263D01*
X0062596Y0205148D01*
X0062449Y0205036D01*
X0062299Y0204927D01*
X0062146Y0204823D01*
X0061991Y0204722D01*
X0061834Y0204625D01*
X0061674Y0204531D01*
X0061512Y0204442D01*
X0061348Y0204357D01*
X0061181Y0204276D01*
X0061013Y0204199D01*
X0060843Y0204126D01*
X0060671Y0204057D01*
X0060498Y0203993D01*
X0060323Y0203933D01*
X0060146Y0203877D01*
X0059969Y0203825D01*
X0059790Y0203778D01*
X0059610Y0203735D01*
X0059429Y0203697D01*
X0059247Y0203663D01*
X0059064Y0203634D01*
X0058881Y0203609D01*
X0058697Y0203588D01*
X0058513Y0203572D01*
X0058328Y0203561D01*
X0058143Y0203554D01*
X0057958Y0203552D01*
X0057773Y0203554D01*
X0057588Y0203561D01*
X0057403Y0203572D01*
X0057219Y0203588D01*
X0057035Y0203609D01*
X0056852Y0203634D01*
X0056669Y0203663D01*
X0056487Y0203697D01*
X0056306Y0203735D01*
X0056126Y0203778D01*
X0055947Y0203825D01*
X0055770Y0203877D01*
X0055593Y0203933D01*
X0055418Y0203993D01*
X0055245Y0204057D01*
X0055073Y0204126D01*
X0054903Y0204199D01*
X0054735Y0204276D01*
X0054568Y0204357D01*
X0054404Y0204442D01*
X0054242Y0204531D01*
X0054082Y0204625D01*
X0053925Y0204722D01*
X0053770Y0204823D01*
X0053617Y0204927D01*
X0053467Y0205036D01*
X0053320Y0205148D01*
X0053175Y0205263D01*
X0053034Y0205382D01*
X0052895Y0205505D01*
X0052760Y0205631D01*
X0052627Y0205760D01*
X0052498Y0205893D01*
X0052372Y0206028D01*
X0052249Y0206167D01*
X0052130Y0206308D01*
X0052015Y0206453D01*
X0051903Y0206600D01*
X0051794Y0206750D01*
X0051690Y0206903D01*
X0051589Y0207058D01*
X0051492Y0207215D01*
X0051398Y0207375D01*
X0051309Y0207537D01*
X0051224Y0207701D01*
X0051143Y0207868D01*
X0051066Y0208036D01*
X0050993Y0208206D01*
X0050924Y0208378D01*
X0050860Y0208551D01*
X0050800Y0208726D01*
X0050744Y0208903D01*
X0050692Y0209080D01*
X0050645Y0209259D01*
X0050602Y0209439D01*
X0050564Y0209620D01*
X0050530Y0209802D01*
X0050501Y0209985D01*
X0050476Y0210168D01*
X0050455Y0210352D01*
X0050439Y0210536D01*
X0050428Y0210721D01*
X0050421Y0210906D01*
X0050419Y0211091D01*
X0030419Y0211091D02*
X0030421Y0211276D01*
X0030428Y0211461D01*
X0030439Y0211646D01*
X0030455Y0211830D01*
X0030476Y0212014D01*
X0030501Y0212197D01*
X0030530Y0212380D01*
X0030564Y0212562D01*
X0030602Y0212743D01*
X0030645Y0212923D01*
X0030692Y0213102D01*
X0030744Y0213279D01*
X0030800Y0213456D01*
X0030860Y0213631D01*
X0030924Y0213804D01*
X0030993Y0213976D01*
X0031066Y0214146D01*
X0031143Y0214314D01*
X0031224Y0214481D01*
X0031309Y0214645D01*
X0031398Y0214807D01*
X0031492Y0214967D01*
X0031589Y0215124D01*
X0031690Y0215279D01*
X0031794Y0215432D01*
X0031903Y0215582D01*
X0032015Y0215729D01*
X0032130Y0215874D01*
X0032249Y0216015D01*
X0032372Y0216154D01*
X0032498Y0216289D01*
X0032627Y0216422D01*
X0032760Y0216551D01*
X0032895Y0216677D01*
X0033034Y0216800D01*
X0033175Y0216919D01*
X0033320Y0217034D01*
X0033467Y0217146D01*
X0033617Y0217255D01*
X0033770Y0217359D01*
X0033925Y0217460D01*
X0034082Y0217557D01*
X0034242Y0217651D01*
X0034404Y0217740D01*
X0034568Y0217825D01*
X0034735Y0217906D01*
X0034903Y0217983D01*
X0035073Y0218056D01*
X0035245Y0218125D01*
X0035418Y0218189D01*
X0035593Y0218249D01*
X0035770Y0218305D01*
X0035947Y0218357D01*
X0036126Y0218404D01*
X0036306Y0218447D01*
X0036487Y0218485D01*
X0036669Y0218519D01*
X0036852Y0218548D01*
X0037035Y0218573D01*
X0037219Y0218594D01*
X0037403Y0218610D01*
X0037588Y0218621D01*
X0037773Y0218628D01*
X0037958Y0218630D01*
X0038143Y0218628D01*
X0038328Y0218621D01*
X0038513Y0218610D01*
X0038697Y0218594D01*
X0038881Y0218573D01*
X0039064Y0218548D01*
X0039247Y0218519D01*
X0039429Y0218485D01*
X0039610Y0218447D01*
X0039790Y0218404D01*
X0039969Y0218357D01*
X0040146Y0218305D01*
X0040323Y0218249D01*
X0040498Y0218189D01*
X0040671Y0218125D01*
X0040843Y0218056D01*
X0041013Y0217983D01*
X0041181Y0217906D01*
X0041348Y0217825D01*
X0041512Y0217740D01*
X0041674Y0217651D01*
X0041834Y0217557D01*
X0041991Y0217460D01*
X0042146Y0217359D01*
X0042299Y0217255D01*
X0042449Y0217146D01*
X0042596Y0217034D01*
X0042741Y0216919D01*
X0042882Y0216800D01*
X0043021Y0216677D01*
X0043156Y0216551D01*
X0043289Y0216422D01*
X0043418Y0216289D01*
X0043544Y0216154D01*
X0043667Y0216015D01*
X0043786Y0215874D01*
X0043901Y0215729D01*
X0044013Y0215582D01*
X0044122Y0215432D01*
X0044226Y0215279D01*
X0044327Y0215124D01*
X0044424Y0214967D01*
X0044518Y0214807D01*
X0044607Y0214645D01*
X0044692Y0214481D01*
X0044773Y0214314D01*
X0044850Y0214146D01*
X0044923Y0213976D01*
X0044992Y0213804D01*
X0045056Y0213631D01*
X0045116Y0213456D01*
X0045172Y0213279D01*
X0045224Y0213102D01*
X0045271Y0212923D01*
X0045314Y0212743D01*
X0045352Y0212562D01*
X0045386Y0212380D01*
X0045415Y0212197D01*
X0045440Y0212014D01*
X0045461Y0211830D01*
X0045477Y0211646D01*
X0045488Y0211461D01*
X0045495Y0211276D01*
X0045497Y0211091D01*
X0045495Y0210906D01*
X0045488Y0210721D01*
X0045477Y0210536D01*
X0045461Y0210352D01*
X0045440Y0210168D01*
X0045415Y0209985D01*
X0045386Y0209802D01*
X0045352Y0209620D01*
X0045314Y0209439D01*
X0045271Y0209259D01*
X0045224Y0209080D01*
X0045172Y0208903D01*
X0045116Y0208726D01*
X0045056Y0208551D01*
X0044992Y0208378D01*
X0044923Y0208206D01*
X0044850Y0208036D01*
X0044773Y0207868D01*
X0044692Y0207701D01*
X0044607Y0207537D01*
X0044518Y0207375D01*
X0044424Y0207215D01*
X0044327Y0207058D01*
X0044226Y0206903D01*
X0044122Y0206750D01*
X0044013Y0206600D01*
X0043901Y0206453D01*
X0043786Y0206308D01*
X0043667Y0206167D01*
X0043544Y0206028D01*
X0043418Y0205893D01*
X0043289Y0205760D01*
X0043156Y0205631D01*
X0043021Y0205505D01*
X0042882Y0205382D01*
X0042741Y0205263D01*
X0042596Y0205148D01*
X0042449Y0205036D01*
X0042299Y0204927D01*
X0042146Y0204823D01*
X0041991Y0204722D01*
X0041834Y0204625D01*
X0041674Y0204531D01*
X0041512Y0204442D01*
X0041348Y0204357D01*
X0041181Y0204276D01*
X0041013Y0204199D01*
X0040843Y0204126D01*
X0040671Y0204057D01*
X0040498Y0203993D01*
X0040323Y0203933D01*
X0040146Y0203877D01*
X0039969Y0203825D01*
X0039790Y0203778D01*
X0039610Y0203735D01*
X0039429Y0203697D01*
X0039247Y0203663D01*
X0039064Y0203634D01*
X0038881Y0203609D01*
X0038697Y0203588D01*
X0038513Y0203572D01*
X0038328Y0203561D01*
X0038143Y0203554D01*
X0037958Y0203552D01*
X0037773Y0203554D01*
X0037588Y0203561D01*
X0037403Y0203572D01*
X0037219Y0203588D01*
X0037035Y0203609D01*
X0036852Y0203634D01*
X0036669Y0203663D01*
X0036487Y0203697D01*
X0036306Y0203735D01*
X0036126Y0203778D01*
X0035947Y0203825D01*
X0035770Y0203877D01*
X0035593Y0203933D01*
X0035418Y0203993D01*
X0035245Y0204057D01*
X0035073Y0204126D01*
X0034903Y0204199D01*
X0034735Y0204276D01*
X0034568Y0204357D01*
X0034404Y0204442D01*
X0034242Y0204531D01*
X0034082Y0204625D01*
X0033925Y0204722D01*
X0033770Y0204823D01*
X0033617Y0204927D01*
X0033467Y0205036D01*
X0033320Y0205148D01*
X0033175Y0205263D01*
X0033034Y0205382D01*
X0032895Y0205505D01*
X0032760Y0205631D01*
X0032627Y0205760D01*
X0032498Y0205893D01*
X0032372Y0206028D01*
X0032249Y0206167D01*
X0032130Y0206308D01*
X0032015Y0206453D01*
X0031903Y0206600D01*
X0031794Y0206750D01*
X0031690Y0206903D01*
X0031589Y0207058D01*
X0031492Y0207215D01*
X0031398Y0207375D01*
X0031309Y0207537D01*
X0031224Y0207701D01*
X0031143Y0207868D01*
X0031066Y0208036D01*
X0030993Y0208206D01*
X0030924Y0208378D01*
X0030860Y0208551D01*
X0030800Y0208726D01*
X0030744Y0208903D01*
X0030692Y0209080D01*
X0030645Y0209259D01*
X0030602Y0209439D01*
X0030564Y0209620D01*
X0030530Y0209802D01*
X0030501Y0209985D01*
X0030476Y0210168D01*
X0030455Y0210352D01*
X0030439Y0210536D01*
X0030428Y0210721D01*
X0030421Y0210906D01*
X0030419Y0211091D01*
X0010419Y0211091D02*
X0010421Y0211276D01*
X0010428Y0211461D01*
X0010439Y0211646D01*
X0010455Y0211830D01*
X0010476Y0212014D01*
X0010501Y0212197D01*
X0010530Y0212380D01*
X0010564Y0212562D01*
X0010602Y0212743D01*
X0010645Y0212923D01*
X0010692Y0213102D01*
X0010744Y0213279D01*
X0010800Y0213456D01*
X0010860Y0213631D01*
X0010924Y0213804D01*
X0010993Y0213976D01*
X0011066Y0214146D01*
X0011143Y0214314D01*
X0011224Y0214481D01*
X0011309Y0214645D01*
X0011398Y0214807D01*
X0011492Y0214967D01*
X0011589Y0215124D01*
X0011690Y0215279D01*
X0011794Y0215432D01*
X0011903Y0215582D01*
X0012015Y0215729D01*
X0012130Y0215874D01*
X0012249Y0216015D01*
X0012372Y0216154D01*
X0012498Y0216289D01*
X0012627Y0216422D01*
X0012760Y0216551D01*
X0012895Y0216677D01*
X0013034Y0216800D01*
X0013175Y0216919D01*
X0013320Y0217034D01*
X0013467Y0217146D01*
X0013617Y0217255D01*
X0013770Y0217359D01*
X0013925Y0217460D01*
X0014082Y0217557D01*
X0014242Y0217651D01*
X0014404Y0217740D01*
X0014568Y0217825D01*
X0014735Y0217906D01*
X0014903Y0217983D01*
X0015073Y0218056D01*
X0015245Y0218125D01*
X0015418Y0218189D01*
X0015593Y0218249D01*
X0015770Y0218305D01*
X0015947Y0218357D01*
X0016126Y0218404D01*
X0016306Y0218447D01*
X0016487Y0218485D01*
X0016669Y0218519D01*
X0016852Y0218548D01*
X0017035Y0218573D01*
X0017219Y0218594D01*
X0017403Y0218610D01*
X0017588Y0218621D01*
X0017773Y0218628D01*
X0017958Y0218630D01*
X0018143Y0218628D01*
X0018328Y0218621D01*
X0018513Y0218610D01*
X0018697Y0218594D01*
X0018881Y0218573D01*
X0019064Y0218548D01*
X0019247Y0218519D01*
X0019429Y0218485D01*
X0019610Y0218447D01*
X0019790Y0218404D01*
X0019969Y0218357D01*
X0020146Y0218305D01*
X0020323Y0218249D01*
X0020498Y0218189D01*
X0020671Y0218125D01*
X0020843Y0218056D01*
X0021013Y0217983D01*
X0021181Y0217906D01*
X0021348Y0217825D01*
X0021512Y0217740D01*
X0021674Y0217651D01*
X0021834Y0217557D01*
X0021991Y0217460D01*
X0022146Y0217359D01*
X0022299Y0217255D01*
X0022449Y0217146D01*
X0022596Y0217034D01*
X0022741Y0216919D01*
X0022882Y0216800D01*
X0023021Y0216677D01*
X0023156Y0216551D01*
X0023289Y0216422D01*
X0023418Y0216289D01*
X0023544Y0216154D01*
X0023667Y0216015D01*
X0023786Y0215874D01*
X0023901Y0215729D01*
X0024013Y0215582D01*
X0024122Y0215432D01*
X0024226Y0215279D01*
X0024327Y0215124D01*
X0024424Y0214967D01*
X0024518Y0214807D01*
X0024607Y0214645D01*
X0024692Y0214481D01*
X0024773Y0214314D01*
X0024850Y0214146D01*
X0024923Y0213976D01*
X0024992Y0213804D01*
X0025056Y0213631D01*
X0025116Y0213456D01*
X0025172Y0213279D01*
X0025224Y0213102D01*
X0025271Y0212923D01*
X0025314Y0212743D01*
X0025352Y0212562D01*
X0025386Y0212380D01*
X0025415Y0212197D01*
X0025440Y0212014D01*
X0025461Y0211830D01*
X0025477Y0211646D01*
X0025488Y0211461D01*
X0025495Y0211276D01*
X0025497Y0211091D01*
X0025495Y0210906D01*
X0025488Y0210721D01*
X0025477Y0210536D01*
X0025461Y0210352D01*
X0025440Y0210168D01*
X0025415Y0209985D01*
X0025386Y0209802D01*
X0025352Y0209620D01*
X0025314Y0209439D01*
X0025271Y0209259D01*
X0025224Y0209080D01*
X0025172Y0208903D01*
X0025116Y0208726D01*
X0025056Y0208551D01*
X0024992Y0208378D01*
X0024923Y0208206D01*
X0024850Y0208036D01*
X0024773Y0207868D01*
X0024692Y0207701D01*
X0024607Y0207537D01*
X0024518Y0207375D01*
X0024424Y0207215D01*
X0024327Y0207058D01*
X0024226Y0206903D01*
X0024122Y0206750D01*
X0024013Y0206600D01*
X0023901Y0206453D01*
X0023786Y0206308D01*
X0023667Y0206167D01*
X0023544Y0206028D01*
X0023418Y0205893D01*
X0023289Y0205760D01*
X0023156Y0205631D01*
X0023021Y0205505D01*
X0022882Y0205382D01*
X0022741Y0205263D01*
X0022596Y0205148D01*
X0022449Y0205036D01*
X0022299Y0204927D01*
X0022146Y0204823D01*
X0021991Y0204722D01*
X0021834Y0204625D01*
X0021674Y0204531D01*
X0021512Y0204442D01*
X0021348Y0204357D01*
X0021181Y0204276D01*
X0021013Y0204199D01*
X0020843Y0204126D01*
X0020671Y0204057D01*
X0020498Y0203993D01*
X0020323Y0203933D01*
X0020146Y0203877D01*
X0019969Y0203825D01*
X0019790Y0203778D01*
X0019610Y0203735D01*
X0019429Y0203697D01*
X0019247Y0203663D01*
X0019064Y0203634D01*
X0018881Y0203609D01*
X0018697Y0203588D01*
X0018513Y0203572D01*
X0018328Y0203561D01*
X0018143Y0203554D01*
X0017958Y0203552D01*
X0017773Y0203554D01*
X0017588Y0203561D01*
X0017403Y0203572D01*
X0017219Y0203588D01*
X0017035Y0203609D01*
X0016852Y0203634D01*
X0016669Y0203663D01*
X0016487Y0203697D01*
X0016306Y0203735D01*
X0016126Y0203778D01*
X0015947Y0203825D01*
X0015770Y0203877D01*
X0015593Y0203933D01*
X0015418Y0203993D01*
X0015245Y0204057D01*
X0015073Y0204126D01*
X0014903Y0204199D01*
X0014735Y0204276D01*
X0014568Y0204357D01*
X0014404Y0204442D01*
X0014242Y0204531D01*
X0014082Y0204625D01*
X0013925Y0204722D01*
X0013770Y0204823D01*
X0013617Y0204927D01*
X0013467Y0205036D01*
X0013320Y0205148D01*
X0013175Y0205263D01*
X0013034Y0205382D01*
X0012895Y0205505D01*
X0012760Y0205631D01*
X0012627Y0205760D01*
X0012498Y0205893D01*
X0012372Y0206028D01*
X0012249Y0206167D01*
X0012130Y0206308D01*
X0012015Y0206453D01*
X0011903Y0206600D01*
X0011794Y0206750D01*
X0011690Y0206903D01*
X0011589Y0207058D01*
X0011492Y0207215D01*
X0011398Y0207375D01*
X0011309Y0207537D01*
X0011224Y0207701D01*
X0011143Y0207868D01*
X0011066Y0208036D01*
X0010993Y0208206D01*
X0010924Y0208378D01*
X0010860Y0208551D01*
X0010800Y0208726D01*
X0010744Y0208903D01*
X0010692Y0209080D01*
X0010645Y0209259D01*
X0010602Y0209439D01*
X0010564Y0209620D01*
X0010530Y0209802D01*
X0010501Y0209985D01*
X0010476Y0210168D01*
X0010455Y0210352D01*
X0010439Y0210536D01*
X0010428Y0210721D01*
X0010421Y0210906D01*
X0010419Y0211091D01*
X0007958Y0218888D02*
X0007958Y0203152D01*
X0007958Y0201251D01*
X0007958Y0195244D01*
X0007958Y0201251D02*
X0167958Y0201251D01*
X0007958Y0218888D02*
X0007958Y0220826D01*
D14*
X0013606Y0128178D02*
X0013606Y0123578D01*
X0013606Y0126134D02*
X0016162Y0126134D01*
X0016162Y0128178D02*
X0016162Y0123578D01*
X0018415Y0123578D02*
X0020460Y0123578D01*
X0022373Y0123578D02*
X0022373Y0128178D01*
X0023395Y0126389D02*
X0024929Y0123578D01*
X0026656Y0123578D02*
X0029212Y0123578D01*
X0027934Y0123578D02*
X0027934Y0128178D01*
X0026656Y0127156D01*
X0024929Y0128178D02*
X0022373Y0125367D01*
X0018415Y0123578D02*
X0018415Y0128178D01*
M02*
