%
M48
M72
T01C0.01378
T02C0.01575
T03C0.04000
T04C0.05118
%
T01
X30335Y61169
X67245Y75933
X94312Y83315
X97757Y77409
X102186Y86268
X110552Y76425
X120394Y79378
X128761Y76425
X132698Y75441
X146969Y61169
X149430Y76917
X158288Y93650
X154351Y96602
X146477Y111858
X129745Y110382
X122363Y107429
X129253Y100047
X103662Y100047
X103662Y113335
X102186Y145323
X84469Y147291
X84469Y151228
X64292Y174358
X61831Y156150
X43623Y178787
X36733Y176819
X26398Y174358
X21969Y178787
X38702Y154181
X42146Y156150
X38209Y148276
X10650Y134496
X98249Y59201
X102678Y59201
X134666Y138433
X143032Y139909
X159765Y137449
X170591Y136957
X163209Y158610
X166654Y78886
T02
X162717Y47094
X159961Y40795
X159961Y34102
X152481Y34102
X152481Y40795
X140670Y40795
X140670Y35677
X133190Y35677
X133190Y42764
X133190Y48669
X119804Y47882
X119804Y39614
X119804Y33709
X111930Y32921
X111930Y39614
X101300Y40008
X101694Y34102
X93820Y34102
X93426Y40795
X93032Y47882
X80040Y47882
X80040Y40008
X79646Y33315
X72166Y33315
X72166Y39614
X61143Y40008
X61143Y34102
X53269Y34102
X53662Y43945
X53269Y52606
X40670Y51819
X40670Y43551
X40670Y34890
X33190Y34890
X33190Y40008
X21379Y40008
X20985Y35283
X13111Y35283
X13111Y43945
X13111Y52606
X13111Y183709
X13111Y191583
X13111Y199457
X20985Y199457
X32796Y199457
X40670Y199457
X40670Y191583
X40670Y183709
X54450Y183709
X54450Y191583
X54450Y199063
X62324Y199457
X74135Y199457
X81221Y199457
X81221Y191189
X81221Y184102
X93426Y183709
X93426Y191583
X93426Y199457
X102087Y199457
X113111Y199063
X121772Y199063
X121772Y191189
X121772Y183709
X135158Y184102
X135552Y191583
X135158Y199457
X143032Y199457
X154843Y199457
X163111Y199457
X163111Y191583
X163505Y184102
X164292Y219142
X155631Y219142
X145394Y219142
X134371Y219142
X122954Y218354
X113111Y218748
X103662Y219142
X93820Y219142
X82009Y219142
X72560Y219142
X63505Y219142
X54056Y219142
X43820Y218748
X32402Y218748
X23347Y219142
X13111Y219142
T03
X13170Y126843
X13170Y107157
X128918Y86685
X167087Y121976
X167087Y131976
X167087Y141976
X167087Y151976
X128918Y147315
T04
X17870Y23650
X37870Y23650
X57870Y23650
X77870Y23650
X97870Y23650
X117870Y23650
X137870Y23650
X157870Y23650
X157501Y85437
X157501Y105437
X157958Y211091
X137958Y211091
X117958Y211091
X97958Y211091
X77958Y211091
X57958Y211091
X37958Y211091
X17958Y211091
M30
